<?xml version="1.0" encoding="UTF-8" standalone="no"?>
<svg
   version="1.1"
   id="Ebene_1"
   height="183"
   width="690"
   viewBox="0 0 690 183"
   enable-background="new 0 0 690 183"
   xml:space="preserve"
   inkscape:version="0.48.5 r10040"
   sodipodi:docname="neo-4-numpad.svg"
   inkscape:export-xdpi="90"
   inkscape:export-ydpi="90"
   xmlns:inkscape="http://www.inkscape.org/namespaces/inkscape"
   xmlns:sodipodi="http://sodipodi.sourceforge.net/DTD/sodipodi-0.dtd"
   xmlns:xlink="http://www.w3.org/1999/xlink"
   xmlns="http://www.w3.org/2000/svg"
   xmlns:svg="http://www.w3.org/2000/svg"
   xmlns:rdf="http://www.w3.org/1999/02/22-rdf-syntax-ns#"
   xmlns:cc="http://creativecommons.org/ns#"
   xmlns:dc="http://purl.org/dc/elements/1.1/">

  <metadata
   id="metadata135">
    <rdf:RDF>
      <cc:Work
   rdf:about="">
        <dc:format>image/svg+xml</dc:format>
        <dc:type
   rdf:resource="http://purl.org/dc/dcmitype/StillImage" />
        <dc:title />
      </cc:Work>
    </rdf:RDF>
  </metadata>

<defs
   id="defs">
<style
   type="text/css"
   id="style46661">
text.mod, text.key, text.dead {
	fill:#111;
	fill-opacity:1;
    stroke:none;
    font-style:normal;
    font-variant:normal;
    font-weight:normal;
    font-stretch:normal;
    display:inline;
    font-family:DejaVu Sans;
    writing-mode:lr-tb;
}

text.key {
    font-family:Linux Libertine;
}

text.dead {
    font-family: Gentium Plus Compact; 
}

text.mod {
    text-align:start;
    text-anchor:start;
}

text.space, text.dead, text.center, text.key {
    text-align:center;
    text-anchor:middle;
}

text.key { font-size:20px; }
text.dead { font-size:20px; }
text.mod { font-size:10px; }
text.big { font-size:14px; }

.key {
stroke-width:1.25;
}

.grey { fill:#949494; stroke:#696969; }
.grey { fill:#9f9f9f; stroke:#747474; }

.numpad { fill:#afaa9f; stroke:#747474; }

/* bootstrap colors */
.l5, .r5 { fill:#93CCEA; }
.l4, .r4 { fill:#7abeb3; }
.l3, .r3 { fill:#63b280; }
.l2, .r2 { fill:#4aa44a; }

/* btn bg hover, unused */
.l2, .r2 { stroke:#3071a9; }
.l3, .r3 { stroke:#449d44; }
.l4, .r4 { stroke:#c9302c; }
.l5, .r5 { stroke:#ec971f; }

/* btn border hover */
.l2, .r2 { stroke:#204d74; }
.l3, .r3 { stroke:#204d74; }
.l4, .r4 { stroke:#204d74; }
.l5, .r5 { stroke:#204d74; }

text.nubkey { fill:#eee; }

.pressed {
	<!--opacity:0.5;-->
	fill:#777;
}
    </style>

    <g
   id="basekey">
        <rect
   width="32"
   height="32"
   rx="4"
   class="key"
   id="rect4" />
	<!--rect width="20" height="20" x="6" y="6" /-->
        <!--rect width="2" height="2" fill="#000" x="15" y="15" /-->
    </g>

    </defs>
<sodipodi:namedview
   pagecolor="#ffffff"
   bordercolor="#666666"
   borderopacity="1"
   objecttolerance="10"
   gridtolerance="10"
   guidetolerance="10"
   inkscape:pageopacity="0"
   inkscape:pageshadow="2"
   inkscape:window-width="1614"
   inkscape:window-height="969"
   id="base"
   showgrid="false"
   inkscape:zoom="0.70961538"
   inkscape:cx="685.32105"
   inkscape:cy="241.15395"
   inkscape:window-x="78"
   inkscape:window-y="71"
   inkscape:window-maximized="0"
   inkscape:current-layer="Ebene_1"
   inkscape:pagecheckerboard="0" />

<g
   transform="translate(3.5,3.5)"
   id="g148">
<use
   xlink:href="#basekey"
   y="0"
   x="0"
   class="l5"
   id="use9"
   width="100%"
   height="100%" />
<use
   xlink:href="#basekey"
   y="0"
   x="36"
   class="l5"
   id="use11"
   width="100%"
   height="100%" />
<use
   xlink:href="#basekey"
   y="0"
   x="72"
   class="l5"
   id="use13"
   width="100%"
   height="100%" />
<use
   xlink:href="#basekey"
   y="0"
   x="108"
   class="l4"
   id="use15"
   width="100%"
   height="100%" />
<use
   xlink:href="#basekey"
   y="0"
   x="144"
   class="l3"
   id="use17"
   width="100%"
   height="100%" />
<use
   xlink:href="#basekey"
   y="0"
   x="180"
   class="l2"
   id="use19"
   width="100%"
   height="100%" />
<use
   xlink:href="#basekey"
   y="0"
   x="216"
   class="l2"
   id="use21"
   width="100%"
   height="100%" />

<use
   xlink:href="#basekey"
   y="0"
   x="252"
   class="r2"
   id="use23"
   width="100%"
   height="100%" />
<use
   xlink:href="#basekey"
   y="0"
   x="288"
   class="r2"
   id="use25"
   width="100%"
   height="100%" />
<use
   xlink:href="#basekey"
   y="0"
   x="324"
   class="r3"
   id="use27"
   width="100%"
   height="100%" />
<use
   xlink:href="#basekey"
   y="0"
   x="360"
   class="r4"
   id="use29"
   width="100%"
   height="100%" />
<use
   xlink:href="#basekey"
   y="0"
   x="396"
   class="r5"
   id="use31"
   width="100%"
   height="100%" />
<use
   xlink:href="#basekey"
   y="0"
   x="432"
   class="r5"
   id="use33"
   width="100%"
   height="100%" />


<use
   xlink:href="#basekey"
   y="36"
   x="54"
   class="l5"
   id="use35"
   width="100%"
   height="100%" />
<use
   xlink:href="#basekey"
   y="36"
   x="90"
   class="l4"
   id="use37"
   width="100%"
   height="100%" />
<use
   xlink:href="#basekey"
   y="36"
   x="126"
   class="l3"
   id="use39"
   width="100%"
   height="100%" />
<use
   xlink:href="#basekey"
   y="36"
   x="162"
   class="l2"
   id="use41"
   width="100%"
   height="100%" />
<use
   xlink:href="#basekey"
   y="36"
   x="198"
   class="l2"
   id="use43"
   width="100%"
   height="100%" />

<use
   xlink:href="#basekey"
   y="36"
   x="234"
   class="r2"
   id="use45"
   width="100%"
   height="100%" />
<use
   xlink:href="#basekey"
   y="36"
   x="270"
   class="r2"
   id="use47"
   width="100%"
   height="100%" />
<use
   xlink:href="#basekey"
   y="36"
   x="306"
   class="r3"
   id="use49"
   width="100%"
   height="100%" />
<use
   xlink:href="#basekey"
   y="36"
   x="342"
   class="r4"
   id="use51"
   width="100%"
   height="100%" />
<use
   xlink:href="#basekey"
   y="36"
   x="378"
   class="r5"
   id="use53"
   width="100%"
   height="100%" />
<use
   xlink:href="#basekey"
   y="36"
   x="414"
   class="r5"
   id="use55"
   width="100%"
   height="100%" />
<use
   xlink:href="#basekey"
   y="36"
   x="450"
   class="r5"
   id="use57"
   width="100%"
   height="100%" />


<use
   xlink:href="#basekey"
   y="72"
   x="64"
   class="l5"
   id="use59"
   width="100%"
   height="100%" />
<use
   xlink:href="#basekey"
   y="72"
   x="100"
   class="l4"
   id="use61"
   width="100%"
   height="100%" />
<use
   xlink:href="#basekey"
   y="72"
   x="136"
   class="l3"
   id="use63"
   width="100%"
   height="100%" />
<use
   xlink:href="#basekey"
   y="72"
   x="172"
   class="l2"
   id="use65"
   width="100%"
   height="100%" />
<use
   xlink:href="#basekey"
   y="72"
   x="208"
   class="l2"
   id="use67"
   width="100%"
   height="100%" />

<use
   xlink:href="#basekey"
   y="72"
   x="244"
   class="r2"
   id="use69"
   width="100%"
   height="100%" />
<use
   xlink:href="#basekey"
   y="72"
   x="280"
   class="r2"
   id="use71"
   width="100%"
   height="100%" />
<use
   xlink:href="#basekey"
   y="72"
   x="316"
   class="r3"
   id="use73"
   width="100%"
   height="100%" />
<use
   xlink:href="#basekey"
   y="72"
   x="352"
   class="r4"
   id="use75"
   width="100%"
   height="100%" />
<use
   xlink:href="#basekey"
   y="72"
   x="388"
   class="r5"
   id="use77"
   width="100%"
   height="100%" />

    <use
   xlink:href="#basekey"
   y="72"
   x="424"
   class="r5"
   id="use79"
   width="100%"
   height="100%" />



<use
   xlink:href="#basekey"
   y="108"
   x="82"
   class="l5"
   id="use81"
   width="100%"
   height="100%" />
<use
   xlink:href="#basekey"
   y="108"
   x="118"
   class="l4"
   id="use83"
   width="100%"
   height="100%" />
<use
   xlink:href="#basekey"
   y="108"
   x="154"
   class="l3"
   id="use85"
   width="100%"
   height="100%" />
<use
   xlink:href="#basekey"
   y="108"
   x="190"
   class="l2"
   id="use87"
   width="100%"
   height="100%" />
<use
   xlink:href="#basekey"
   y="108"
   x="226"
   class="l2"
   id="use89"
   width="100%"
   height="100%" />

<use
   xlink:href="#basekey"
   y="108"
   x="262"
   class="r2"
   id="use91"
   width="100%"
   height="100%" />
<use
   xlink:href="#basekey"
   y="108"
   x="298"
   class="r2"
   id="use93"
   width="100%"
   height="100%" />
<use
   xlink:href="#basekey"
   y="108"
   x="334"
   class="r3"
   id="use95"
   width="100%"
   height="100%" />
<use
   xlink:href="#basekey"
   y="108"
   x="370"
   class="r4"
   id="use97"
   width="100%"
   height="100%" />
<use
   xlink:href="#basekey"
   y="108"
   x="406"
   class="r5"
   id="use99"
   width="100%"
   height="100%" />


<path
   id="backspace"
   class="key grey"
   style="fill:#9f9f9f;stroke:#747474;stroke-width:1.25"
   d="m 472,0 h 52 c 2.216,0 4,1.784 4,4 v 24 c 0,2.216 -1.784,4 -4,4 h -52 c -2.216,0 -4,-1.784 -4,-4 V 4 c 0,-2.216 1.784,-4 4,-4 z" />

<path
   id="tab"
   class="key grey"
   style="fill:#9f9f9f;stroke:#747474;stroke-width:1.25"
   d="m 4,36 h 42 c 2.216,0 4,1.784 4,4 v 24 c 0,2.216 -1.784,4 -4,4 H 4 C 1.784,68 0,66.216 0,64 V 40 c 0,-2.216 1.784,-4 4,-4 z" />

<path
   id="m3l"
   class="key grey"
   style="fill:#9f9f9f;stroke:#747474;stroke-width:1.25"
   d="m 4,72 h 52 c 2.216,0 4,1.784 4,4 v 24 c 0,2.216 -1.784,4 -4,4 H 4 c -2.216,0 -4,-1.784 -4,-4 V 76 c 0,-2.216 1.784,-4 4,-4 z" />

<use
   id="m3r"
   xlink:href="#basekey"
   x="460"
   y="72"
   class="key grey"
   width="100%"
   height="100%" />


<path
   id="shiftl"
   class="key grey"
   style="fill:#9f9f9f;stroke:#747474;stroke-width:1.25"
   d="m 4,108 h 32 c 2.216,0 4,1.784 4,4 v 24 c 0,2.216 -1.784,4 -4,4 H 4 c -2.216,0 -4,-1.784 -4,-4 v -24 c 0,-2.216 1.784,-4 4,-4 z" />
<path
   id="m4l"
   class="key grey pressed"
   style="fill:#777777;stroke:#747474;stroke-width:1.25"
   d="m 48,108 h 26 c 2.216,0 4,1.784 4,4 v 24 c 0,2.216 -1.784,4 -4,4 H 48 c -2.216,0 -4,-1.784 -4,-4 v -24 c 0,-2.216 1.784,-4 4,-4 z" />
<path
   id="shiftr"
   class="key grey"
   style="fill:#9f9f9f;stroke:#747474;stroke-width:1.25"
   d="m 446,108 h 78 c 2.216,0 4,1.784 4,4 v 24 c 0,2.216 -1.784,4 -4,4 h -78 c -2.216,0 -4,-1.784 -4,-4 v -24 c 0,-2.216 1.784,-4 4,-4 z" />

<path
   id="ctrll"
   class="key grey"
   style="fill:#9f9f9f;stroke:#747474;stroke-width:1.25"
   d="m 4,144 h 42 c 2.216,0 4,1.784 4,4 v 24 c 0,2.216 -1.784,4 -4,4 H 4 c -2.216,0 -4,-1.784 -4,-4 v -24 c 0,-2.216 1.784,-4 4,-4 z" />
<path
   id="altl"
   class="key grey"
   style="fill:#9f9f9f;stroke:#747474;stroke-width:1.25"
   d="m 128,144 h 40 c 2.216,0 4,1.784 4,4 v 24 c 0,2.216 -1.784,4 -4,4 h -40 c -2.216,0 -4,-1.784 -4,-4 v -24 c 0,-2.216 1.784,-4 4,-4 z" />
<path
   id="space"
   class="key grey"
   style="fill:#9f9f9f;stroke:#747474;stroke-width:1.25"
   d="m 180,144 h 160 c 2.216,0 4,1.784 4,4 v 24 c 0,2.216 -1.784,4 -4,4 H 180 c -2.216,0 -4,-1.784 -4,-4 v -24 c 0,-2.216 1.784,-4 4,-4 z" />
<path
   id="m4r"
   class="key grey pressed"
   style="fill:#777777;stroke:#747474;stroke-width:1.25"
   d="m 352,144 h 40 c 2.216,0 4,1.784 4,4 v 24 c 0,2.216 -1.784,4 -4,4 h -40 c -2.216,0 -4,-1.784 -4,-4 v -24 c 0,-2.216 1.784,-4 4,-4 z" />
<path
   id="ctrlr"
   class="key grey"
   style="fill:#9f9f9f;stroke:#747474;stroke-width:1.25"
   d="m 482,144 h 42 c 2.216,0 4,1.784 4,4 v 24 c 0,2.216 -1.784,4 -4,4 h -42 c -2.216,0 -4,-1.784 -4,-4 v -24 c 0,-2.216 1.784,-4 4,-4 z" />

<use
   xlink:href="#basekey"
   y="0"
   x="542"
   class="key numpad"
   id="use113"
   width="100%"
   height="100%" />
<use
   xlink:href="#basekey"
   y="0"
   x="578"
   class="key numpad"
   id="use115"
   width="100%"
   height="100%" />
<use
   xlink:href="#basekey"
   y="0"
   x="614"
   class="key numpad"
   id="use117"
   width="100%"
   height="100%" />
<use
   xlink:href="#basekey"
   y="0"
   x="650"
   class="key numpad"
   id="use119"
   width="100%"
   height="100%" />

<use
   xlink:href="#basekey"
   y="36"
   x="542"
   class="key numpad"
   id="use121"
   width="100%"
   height="100%" />
<use
   xlink:href="#basekey"
   y="36"
   x="578"
   class="key numpad"
   id="use123"
   width="100%"
   height="100%" />
<use
   xlink:href="#basekey"
   y="36"
   x="614"
   class="key numpad"
   id="use125"
   width="100%"
   height="100%" />
<path
   id="kpplus"
   class="key numpad"
   style="fill:#afaa9f;stroke:#747474;stroke-width:1.25"
   d="m 654,36 h 24 c 2.216,0 4,1.784 4,4 v 60 c 0,2.216 -1.784,4 -4,4 h -24 c -2.216,0 -4,-1.784 -4,-4 V 40 c 0,-2.216 1.784,-4 4,-4 z" />

<use
   xlink:href="#basekey"
   y="72"
   x="542"
   class="key numpad"
   id="use128"
   width="100%"
   height="100%" />
<use
   xlink:href="#basekey"
   y="72"
   x="578"
   class="key numpad"
   id="use130"
   width="100%"
   height="100%" />
<use
   xlink:href="#basekey"
   y="72"
   x="614"
   class="key numpad"
   id="use132"
   width="100%"
   height="100%" />

<use
   xlink:href="#basekey"
   y="108"
   x="542"
   class="key numpad"
   id="use134"
   width="100%"
   height="100%" />
<use
   xlink:href="#basekey"
   y="108"
   x="578"
   class="key numpad"
   id="use136"
   width="100%"
   height="100%" />
<use
   xlink:href="#basekey"
   y="108"
   x="614"
   class="key numpad"
   id="use138"
   width="100%"
   height="100%" />
<path
   id="kppenter"
   class="key numpad"
   style="fill:#afaa9f;stroke:#747474;stroke-width:1.25"
   d="m 654,108 h 24 c 2.216,0 4,1.784 4,4 v 60 c 0,2.216 -1.784,4 -4,4 h -24 c -2.216,0 -4,-1.784 -4,-4 v -60 c 0,-2.216 1.784,-4 4,-4 z" />

<path
   id="kp0"
   class="key numpad"
   style="fill:#afaa9f;stroke:#747474;stroke-width:1.25"
   d="m 546,144 h 60 c 2.216,0 4,1.784 4,4 v 24 c 0,2.216 -1.784,4 -4,4 h -60 c -2.216,0 -4,-1.784 -4,-4 v -24 c 0,-2.216 1.784,-4 4,-4 z" />
<use
   xlink:href="#basekey"
   y="144"
   x="614"
   class="key numpad"
   id="use142"
   width="100%"
   height="100%" />

<path
   fill-rule="evenodd"
   clip-rule="evenodd"
   d="M 10,32 H 4 A 4,4 0 0 1 0,28 V 4 A 4,4 0 0 1 4,0 h 34 a 4,4 0 0 1 4,4 v 60 a 4,4 0 0 1 -4,4 H 14 a 4,4 0 0 1 -4,-4 z"
   transform="translate(486,36)"
   id="return"
   class="key grey" />

<path
   id="nub"
   style="fill:#eeeeee"
   d="m 182,101 h 12 c 0.554,0 1,0.223 1,0.5 0,0.277 -0.446,0.5 -1,0.5 h -12 c -0.554,0 -1,-0.223 -1,-0.5 0,-0.277 0.446,-0.5 1,-0.5 z" />
<use
   y="0"
   x="108"
   xlink:href="#nub"
   id="use146"
   width="100%"
   height="100%" />
</g>

<g
   transform="translate(-0.5,-0.5)"
   id="g163">
<g
   aria-label="Mod3"
   id="m3ltxt"
   style="font-size:10px;line-height:0%;font-family:'DejaVu Sans';display:inline;fill:#111111"
   class="mod"><path
     d="m 10.981445,88.709961 h 1.469727 l 1.860351,4.960937 1.870118,-4.960937 h 1.469726 V 96 h -0.961914 v -6.401367 l -1.879883,5 h -0.991211 l -1.879882,-5 V 96 h -0.957032 z"
     style="font-size:10px;line-height:0%;font-family:'DejaVu Sans';display:inline;fill:#111111"
     id="path328" /><path
     d="m 21.689453,91.161133 q -0.722656,0 -1.142578,0.566406 -0.419922,0.561523 -0.419922,1.542969 0,0.981445 0.415039,1.547851 0.419922,0.561524 1.147461,0.561524 0.717774,0 1.137695,-0.566406 0.419922,-0.566407 0.419922,-1.542969 0,-0.97168 -0.419922,-1.538086 -0.419921,-0.571289 -1.137695,-0.571289 z m 0,-0.761719 q 1.171875,0 1.84082,0.761719 0.668946,0.761719 0.668946,2.109375 0,1.342773 -0.668946,2.109375 -0.668945,0.761719 -1.84082,0.761719 -1.176758,0 -1.845703,-0.761719 -0.664063,-0.766602 -0.664063,-2.109375 0,-1.347656 0.664063,-2.109375 0.668945,-0.761719 1.845703,-0.761719 z"
     style="font-size:10px;line-height:0%;font-family:'DejaVu Sans';display:inline;fill:#111111"
     id="path330" /><path
     d="m 29.287109,91.361328 v -2.958984 h 0.898438 V 96 h -0.898438 v -0.820313 q -0.283203,0.488282 -0.717773,0.72754 -0.429688,0.234375 -1.035156,0.234375 -0.991211,0 -1.616211,-0.791016 -0.620117,-0.791016 -0.620117,-2.080078 0,-1.289063 0.620117,-2.080078 0.625,-0.791016 1.616211,-0.791016 0.605468,0 1.035156,0.239258 0.43457,0.234375 0.717773,0.722656 z m -3.061523,1.90918 q 0,0.991211 0.405273,1.557617 0.410157,0.561523 1.123047,0.561523 0.712891,0 1.123047,-0.561523 0.410156,-0.566406 0.410156,-1.557617 0,-0.991211 -0.410156,-1.552735 -0.410156,-0.566406 -1.123047,-0.566406 -0.71289,0 -1.123047,0.566406 -0.405273,0.561524 -0.405273,1.552735 z"
     style="font-size:10px;line-height:0%;font-family:'DejaVu Sans';display:inline;fill:#111111"
     id="path332" /><path
     d="m 35.151367,92.069336 q 0.708008,0.151367 1.103516,0.629883 0.40039,0.478515 0.40039,1.18164 0,1.079102 -0.742187,1.669922 -0.742188,0.590821 -2.109375,0.590821 -0.458984,0 -0.947266,-0.09277 -0.483398,-0.08789 -1.000976,-0.268555 v -0.952148 q 0.410156,0.239258 0.898437,0.361328 0.488281,0.12207 1.020508,0.12207 0.927734,0 1.411133,-0.366211 0.488281,-0.36621 0.488281,-1.064453 0,-0.644531 -0.454101,-1.005859 -0.449219,-0.366211 -1.254883,-0.366211 h -0.84961 v -0.810547 h 0.888672 q 0.727539,0 1.113281,-0.288086 0.385743,-0.292969 0.385743,-0.839844 0,-0.561523 -0.400391,-0.859375 -0.395508,-0.302734 -1.137695,-0.302734 -0.405274,0 -0.869141,0.08789 -0.463867,0.08789 -1.020508,0.273437 v -0.878906 q 0.561524,-0.15625 1.049805,-0.234375 0.493164,-0.07813 0.927734,-0.07813 1.123047,0 1.777344,0.512695 0.654297,0.507813 0.654297,1.376953 0,0.605469 -0.34668,1.025391 -0.346679,0.415039 -0.986328,0.576172 z"
     style="font-size:10px;line-height:0%;font-family:'DejaVu Sans';display:inline;fill:#111111"
     id="path334" /></g>
<g
   aria-label="⇧"
   id="shiftltxt"
   style="font-size:14px;line-height:0%;font-family:'DejaVu Sans';display:inline;fill:#111111"
   class="mod big"><path
     d="m 17.683594,125.23438 -1.81836,-1.81836 -1.818359,1.81836 h 0.895508 v 7.08203 h 1.845703 v -7.08203 z m -5.291016,0.68359 3.472656,-3.47266 3.472657,3.47266 H 17.47168 V 133 h -3.212891 v -7.08203 z"
     style="font-size:14px;line-height:0%;font-family:'DejaVu Sans';display:inline;fill:#111111"
     id="path337" /></g>
<g
   aria-label="Strg"
   id="ctrlltxt"
   style="font-size:10px;line-height:0%;font-family:'DejaVu Sans';display:inline;fill:#111111"
   class="mod"><path
     d="m 15.351563,160.94922 v 0.96191 q -0.561524,-0.26855 -1.059571,-0.40039 -0.498047,-0.13183 -0.961914,-0.13183 -0.805664,0 -1.245117,0.3125 -0.43457,0.3125 -0.43457,0.88867 0,0.4834 0.288086,0.73242 0.292968,0.24414 1.103515,0.39551 l 0.595703,0.12207 q 1.103516,0.20996 1.625977,0.74219 0.527344,0.52734 0.527344,1.41601 0,1.05957 -0.712891,1.60645 -0.708008,0.54687 -2.080078,0.54687 -0.517578,0 -1.103516,-0.11719 -0.581054,-0.11718 -1.206054,-0.34668 v -1.01562 q 0.600586,0.33691 1.176757,0.50781 0.576172,0.1709 1.132813,0.1709 0.844726,0 1.303711,-0.33203 0.458984,-0.33203 0.458984,-0.94727 0,-0.53711 -0.332031,-0.83984 -0.327148,-0.30273 -1.079102,-0.4541 l -0.600586,-0.11719 q -1.103515,-0.21973 -1.596679,-0.68848 -0.493164,-0.46875 -0.493164,-1.30371 0,-0.96679 0.678711,-1.52343 0.683593,-0.55665 1.879882,-0.55665 0.512696,0 1.044922,0.0928 0.532227,0.0928 1.088868,0.27832 z"
     style="font-size:10px;line-height:0%;font-family:'DejaVu Sans';display:inline;fill:#111111"
     id="path340" /><path
     d="m 18.178711,160.97852 v 1.55273 h 1.850586 v 0.69824 h -1.850586 v 2.96875 q 0,0.66895 0.180664,0.85938 0.185547,0.19043 0.74707,0.19043 h 0.922852 V 168 h -0.922852 q -1.040039,0 -1.435547,-0.38574 -0.395507,-0.39063 -0.395507,-1.41602 v -2.96875 h -0.65918 v -0.69824 h 0.65918 v -1.55273 z"
     style="font-size:10px;line-height:0%;font-family:'DejaVu Sans';display:inline;fill:#111111"
     id="path342" /><path
     d="m 24.379883,163.37109 q -0.151367,-0.0879 -0.332031,-0.12695 -0.175782,-0.0439 -0.390625,-0.0439 -0.761719,0 -1.171875,0.49804 -0.405274,0.49317 -0.405274,1.4209 V 168 h -0.90332 v -5.46875 h 0.90332 v 0.84961 q 0.283203,-0.49805 0.737305,-0.73731 0.454101,-0.24414 1.103515,-0.24414 0.09277,0 0.205079,0.0147 0.112304,0.01 0.249023,0.0342 z"
     style="font-size:10px;line-height:0%;font-family:'DejaVu Sans';display:inline;fill:#111111"
     id="path344" /><path
     d="m 28.745117,165.20215 q 0,-0.97656 -0.405273,-1.51367 -0.400391,-0.53711 -1.12793,-0.53711 -0.722656,0 -1.12793,0.53711 -0.40039,0.53711 -0.40039,1.51367 0,0.97168 0.40039,1.50879 0.405274,0.53711 1.12793,0.53711 0.727539,0 1.12793,-0.53711 0.405273,-0.53711 0.405273,-1.50879 z m 0.898438,2.11914 q 0,1.39648 -0.620118,2.07519 -0.620117,0.6836 -1.899414,0.6836 -0.473632,0 -0.893554,-0.0732 -0.419922,-0.0684 -0.81543,-0.21485 v -0.87402 q 0.395508,0.21484 0.78125,0.31738 0.385742,0.10254 0.786133,0.10254 0.883789,0 1.323242,-0.46387 0.439453,-0.45898 0.439453,-1.3916 v -0.44433 q -0.27832,0.48339 -0.71289,0.72265 Q 27.597656,168 26.992187,168 q -1.005859,0 -1.621093,-0.7666 -0.615235,-0.7666 -0.615235,-2.03125 0,-1.26953 0.615235,-2.03613 0.615234,-0.76661 1.621093,-0.76661 0.605469,0 1.04004,0.23926 0.43457,0.23926 0.71289,0.72266 v -0.83008 h 0.898438 z"
     style="font-size:10px;line-height:0%;font-family:'DejaVu Sans';display:inline;fill:#111111"
     id="path346" /></g>

<g
   aria-label="M4"
   id="m4ltxt"
   style="font-size:10px;line-height:0%;font-family:'DejaVu Sans';display:inline;fill:#111111"
   class="mod"><path
     d="m 56.981445,124.70996 h 1.469727 l 1.860351,4.96094 1.870118,-4.96094 h 1.469726 V 132 h -0.961914 v -6.40137 l -1.879883,5 h -0.991211 l -1.879882,-5 V 132 h -0.957032 z"
     style="font-size:10px;line-height:0%;font-family:'DejaVu Sans';display:inline;fill:#111111"
     id="path349" /><path
     d="m 68.407227,125.56934 -2.490235,3.8916 h 2.490235 z m -0.25879,-0.85938 h 1.240235 v 4.75098 h 1.040039 v 0.82031 H 69.388672 V 132 h -0.981445 v -1.71875 h -3.291016 v -0.95215 z"
     style="font-size:10px;line-height:0%;font-family:'DejaVu Sans';display:inline;fill:#111111"
     id="path351" /></g>
<g
   aria-label="Alt"
   id="altltxt"
   style="font-size:10px;line-height:0%;font-family:'DejaVu Sans';display:inline;fill:#111111"
   class="mod"><path
     d="m 138.41797,161.68164 -1.33789,3.62793 h 2.68066 z m -0.55664,-0.97168 h 1.11816 L 141.75781,168 h -1.02539 l -0.66406,-1.87012 h -3.28613 L 136.11816,168 h -1.04004 z"
     style="font-size:10px;line-height:0%;font-family:'DejaVu Sans';display:inline;fill:#111111"
     id="path354" /><path
     d="m 142.7832,160.40234 h 0.89844 V 168 h -0.89844 z"
     style="font-size:10px;line-height:0%;font-family:'DejaVu Sans';display:inline;fill:#111111"
     id="path356" /><path
     d="m 146.4502,160.97852 v 1.55273 h 1.85058 v 0.69824 h -1.85058 v 2.96875 q 0,0.66895 0.18066,0.85938 0.18555,0.19043 0.74707,0.19043 h 0.92285 V 168 h -0.92285 q -1.04004,0 -1.43555,-0.38574 -0.39551,-0.39063 -0.39551,-1.41602 v -2.96875 h -0.65917 v -0.69824 h 0.65917 v -1.55273 z"
     style="font-size:10px;line-height:0%;font-family:'DejaVu Sans';display:inline;fill:#111111"
     id="path358" /></g>


<g
   aria-label="M3"
   id="m3rtxt"
   style="font-size:10px;line-height:0%;font-family:'DejaVu Sans';display:inline;fill:#111111"
   class="mod"><path
     d="m 472.98145,88.709961 h 1.46972 l 1.86035,4.960937 1.87012,-4.960937 h 1.46973 V 96 h -0.96192 v -6.401367 l -1.87988,5 h -0.99121 l -1.87988,-5 V 96 h -0.95703 z"
     style="font-size:10px;line-height:0%;font-family:'DejaVu Sans';display:inline;fill:#111111"
     id="path361" /><path
     d="m 484.68555,92.069336 q 0.708,0.151367 1.10351,0.629883 0.40039,0.478515 0.40039,1.18164 0,1.079102 -0.74218,1.669922 -0.74219,0.590821 -2.10938,0.590821 -0.45898,0 -0.94727,-0.09277 -0.48339,-0.08789 -1.00097,-0.268555 v -0.952148 q 0.41015,0.239258 0.89844,0.361328 0.48828,0.12207 1.0205,0.12207 0.92774,0 1.41114,-0.366211 0.48828,-0.36621 0.48828,-1.064453 0,-0.644531 -0.4541,-1.005859 -0.44922,-0.366211 -1.25489,-0.366211 h -0.84961 v -0.810547 h 0.88868 q 0.72753,0 1.11328,-0.288086 0.38574,-0.292969 0.38574,-0.839844 0,-0.561523 -0.40039,-0.859375 -0.39551,-0.302734 -1.1377,-0.302734 -0.40527,0 -0.86914,0.08789 -0.46386,0.08789 -1.02051,0.273437 v -0.878906 q 0.56153,-0.15625 1.04981,-0.234375 0.49316,-0.07813 0.92773,-0.07813 1.12305,0 1.77735,0.512695 0.65429,0.507813 0.65429,1.376953 0,0.605469 -0.34668,1.025391 -0.34667,0.415039 -0.98632,0.576172 z"
     style="font-size:10px;line-height:0%;font-family:'DejaVu Sans';display:inline;fill:#111111"
     id="path363" /></g>


<g
   aria-label="⇧"
   id="shiftrtxt"
   style="font-size:14px;line-height:0%;font-family:'DejaVu Sans';display:inline;fill:#111111"
   class="mod big"><path
     d="m 457.68359,125.23438 -1.81836,-1.81836 -1.81836,1.81836 h 0.89551 v 7.08203 h 1.84571 v -7.08203 z m -5.29101,0.68359 3.47265,-3.47266 3.47266,3.47266 h -1.86621 V 133 h -3.21289 v -7.08203 z"
     style="font-size:14px;line-height:0%;font-family:'DejaVu Sans';display:inline;fill:#111111"
     id="path366" /></g>
<g
   aria-label="Strg"
   id="ctrlrtxt"
   style="font-size:10px;line-height:0%;font-family:'DejaVu Sans';display:inline;fill:#111111"
   class="mod"><path
     d="m 495.35156,160.94922 v 0.96191 q -0.56152,-0.26855 -1.05957,-0.40039 -0.49804,-0.13183 -0.96191,-0.13183 -0.80567,0 -1.24512,0.3125 -0.43457,0.3125 -0.43457,0.88867 0,0.4834 0.28809,0.73242 0.29297,0.24414 1.10351,0.39551 l 0.59571,0.12207 q 1.10351,0.20996 1.62597,0.74219 0.52735,0.52734 0.52735,1.41601 0,1.05957 -0.7129,1.60645 -0.708,0.54687 -2.08007,0.54687 -0.51758,0 -1.10352,-0.11719 -0.58105,-0.11718 -1.20605,-0.34668 v -1.01562 q 0.60058,0.33691 1.17675,0.50781 0.57618,0.1709 1.13282,0.1709 0.84472,0 1.30371,-0.33203 0.45898,-0.33203 0.45898,-0.94727 0,-0.53711 -0.33203,-0.83984 -0.32715,-0.30273 -1.0791,-0.4541 l -0.60059,-0.11719 q -1.10351,-0.21973 -1.59668,-0.68848 -0.49316,-0.46875 -0.49316,-1.30371 0,-0.96679 0.67871,-1.52343 0.68359,-0.55665 1.87988,-0.55665 0.5127,0 1.04493,0.0928 0.53222,0.0928 1.08886,0.27832 z"
     style="font-size:10px;line-height:0%;font-family:'DejaVu Sans';display:inline;fill:#111111"
     id="path369" /><path
     d="m 498.17871,160.97852 v 1.55273 h 1.85059 v 0.69824 h -1.85059 v 2.96875 q 0,0.66895 0.18066,0.85938 0.18555,0.19043 0.74708,0.19043 h 0.92285 V 168 h -0.92285 q -1.04004,0 -1.43555,-0.38574 -0.39551,-0.39063 -0.39551,-1.41602 v -2.96875 h -0.65918 v -0.69824 h 0.65918 v -1.55273 z"
     style="font-size:10px;line-height:0%;font-family:'DejaVu Sans';display:inline;fill:#111111"
     id="path371" /><path
     d="m 504.37988,163.37109 q -0.15136,-0.0879 -0.33203,-0.12695 -0.17578,-0.0439 -0.39062,-0.0439 -0.76172,0 -1.17188,0.49804 -0.40527,0.49317 -0.40527,1.4209 V 168 h -0.90332 v -5.46875 h 0.90332 v 0.84961 q 0.2832,-0.49805 0.7373,-0.73731 0.4541,-0.24414 1.10352,-0.24414 0.0928,0 0.20508,0.0147 0.1123,0.01 0.24902,0.0342 z"
     style="font-size:10px;line-height:0%;font-family:'DejaVu Sans';display:inline;fill:#111111"
     id="path373" /><path
     d="m 508.74512,165.20215 q 0,-0.97656 -0.40528,-1.51367 -0.40039,-0.53711 -1.12793,-0.53711 -0.72265,0 -1.12793,0.53711 -0.40039,0.53711 -0.40039,1.51367 0,0.97168 0.40039,1.50879 0.40528,0.53711 1.12793,0.53711 0.72754,0 1.12793,-0.53711 0.40528,-0.53711 0.40528,-1.50879 z m 0.89843,2.11914 q 0,1.39648 -0.62011,2.07519 -0.62012,0.6836 -1.89942,0.6836 -0.47363,0 -0.89355,-0.0732 -0.41992,-0.0684 -0.81543,-0.21485 v -0.87402 q 0.39551,0.21484 0.78125,0.31738 0.38574,0.10254 0.78613,0.10254 0.88379,0 1.32324,-0.46387 0.43946,-0.45898 0.43946,-1.3916 v -0.44433 q -0.27832,0.48339 -0.71289,0.72265 Q 507.59766,168 506.99219,168 q -1.00586,0 -1.6211,-0.7666 -0.61523,-0.7666 -0.61523,-2.03125 0,-1.26953 0.61523,-2.03613 0.61524,-0.76661 1.6211,-0.76661 0.60547,0 1.04004,0.23926 0.43457,0.23926 0.71289,0.72266 v -0.83008 h 0.89843 z"
     style="font-size:10px;line-height:0%;font-family:'DejaVu Sans';display:inline;fill:#111111"
     id="path375" /></g>
<g
   aria-label="Mod4"
   id="m4rtxt"
   style="font-size:10px;line-height:0%;font-family:'DejaVu Sans';display:inline;fill:#111111"
   class="mod"><path
     d="m 357.98145,160.70996 h 1.46972 l 1.86035,4.96094 1.87012,-4.96094 h 1.46973 V 168 h -0.96192 v -6.40137 l -1.87988,5 h -0.99121 l -1.87988,-5 V 168 h -0.95703 z"
     style="font-size:10px;line-height:0%;font-family:'DejaVu Sans';display:inline;fill:#111111"
     id="path378" /><path
     d="m 368.68945,163.16113 q -0.72265,0 -1.14258,0.56641 -0.41992,0.56152 -0.41992,1.54297 0,0.98144 0.41504,1.54785 0.41992,0.56152 1.14746,0.56152 0.71778,0 1.1377,-0.5664 0.41992,-0.56641 0.41992,-1.54297 0,-0.97168 -0.41992,-1.53809 -0.41992,-0.57129 -1.1377,-0.57129 z m 0,-0.76172 q 1.17188,0 1.84082,0.76172 0.66895,0.76172 0.66895,2.10938 0,1.34277 -0.66895,2.10937 -0.66894,0.76172 -1.84082,0.76172 -1.17675,0 -1.8457,-0.76172 -0.66406,-0.7666 -0.66406,-2.10937 0,-1.34766 0.66406,-2.10938 0.66895,-0.76172 1.8457,-0.76172 z"
     style="font-size:10px;line-height:0%;font-family:'DejaVu Sans';display:inline;fill:#111111"
     id="path380" /><path
     d="m 376.28711,163.36133 v -2.95899 h 0.89844 V 168 h -0.89844 v -0.82031 q -0.2832,0.48828 -0.71777,0.72754 -0.42969,0.23437 -1.03516,0.23437 -0.99121,0 -1.61621,-0.79101 -0.62012,-0.79102 -0.62012,-2.08008 0,-1.28906 0.62012,-2.08008 0.625,-0.79102 1.61621,-0.79102 0.60547,0 1.03516,0.23926 0.43457,0.23438 0.71777,0.72266 z m -3.06152,1.90918 q 0,0.99121 0.40527,1.55761 0.41016,0.56153 1.12305,0.56153 0.71289,0 1.12304,-0.56153 0.41016,-0.5664 0.41016,-1.55761 0,-0.99121 -0.41016,-1.55274 -0.41015,-0.5664 -1.12304,-0.5664 -0.71289,0 -1.12305,0.5664 -0.40527,0.56153 -0.40527,1.55274 z"
     style="font-size:10px;line-height:0%;font-family:'DejaVu Sans';display:inline;fill:#111111"
     id="path382" /><path
     d="m 381.87305,161.56934 -2.49024,3.8916 h 2.49024 z m -0.25879,-0.85938 h 1.24023 v 4.75098 h 1.04004 v 0.82031 h -1.04004 V 168 h -0.98144 v -1.71875 h -3.29102 v -0.95215 z"
     style="font-size:10px;line-height:0%;font-family:'DejaVu Sans';display:inline;fill:#111111"
     id="path384" /></g>
<g
   aria-label="0"
   id="text159"
   style="font-size:10px;line-height:0%;font-family:'DejaVu Sans';text-align:center;text-anchor:middle;display:inline;fill:#111111"
   class="mod space"><path
     d="m 262.99756,161.35937 q -0.76172,0 -1.14746,0.75196 -0.38086,0.74707 -0.38086,2.25097 0,1.49903 0.38086,2.25098 0.38574,0.74707 1.14746,0.74707 0.7666,0 1.14746,-0.74707 0.38574,-0.75195 0.38574,-2.25098 0,-1.5039 -0.38574,-2.25097 -0.38086,-0.75196 -1.14746,-0.75196 z m 0,-0.78125 q 1.22558,0 1.87012,0.97168 0.64941,0.9668 0.64941,2.8125 0,1.84082 -0.64941,2.8125 -0.64454,0.9668 -1.87012,0.9668 -1.22559,0 -1.875,-0.9668 -0.64453,-0.97168 -0.64453,-2.8125 0,-1.8457 0.64453,-2.8125 0.64941,-0.97168 1.875,-0.97168 z"
     style="font-size:10px;line-height:0%;font-family:'DejaVu Sans';text-align:center;text-anchor:middle;display:inline;fill:#111111"
     id="path387" /></g>

<g
   aria-label="⏎"
   id="returntxt"
   style="font-size:14px;line-height:0%;font-family:'DejaVu Sans';display:inline;fill:#111111"
   class="mod big"><path
     d="m 498.84863,61.083984 -3.47265,-3.472656 3.47265,-3.472656 v 1.866211 h 3.87598 v -4.210938 h 3.21289 l -0.007,7.423828 h -7.08203 z m -0.68359,-4.395507 v -0.895508 l -1.81836,1.818359 1.81836,1.818359 V 58.53418 h 7.08203 l 0.007,-6.056641 h -1.84571 l -0.007,4.210938 z"
     style="font-size:14px;line-height:0%;font-family:'DejaVu Sans';display:inline;fill:#111111"
     id="path390" /></g>
<g
   aria-label="⌫"
   id="backspacetxt"
   style="font-size:10px;line-height:0%;font-family:'DejaVu Sans';display:inline;fill:#111111"
   class="mod"><path
     d="m 493.37891,23 h -9.5752 l -3.79883,-3.798828 3.79883,-3.798828 h 9.5752 z m -0.72266,-6.875 h -0.68848 l -3.07617,3.076172 3.07617,3.076172 h 0.68848 z m -6.8457,0 2.56347,2.563477 2.56348,-2.563477 z m 5.12695,6.152344 -2.56348,-2.563477 -2.56347,2.563477 z M 484.79492,16.125 h -0.69336 l -3.07617,3.085937 3.07617,3.066407 h 0.69336 l 3.07617,-3.076172 z"
     style="font-size:10px;line-height:0%;font-family:'DejaVu Sans';display:inline;fill:#111111"
     id="path393" /></g>
</g>

<g
   transform="translate(55,26)"
   id="g187">
	<g
   aria-label="ª"
   id="text165"
   style="font-size:20px;line-height:0%;font-family:'Linux Libertine';text-align:center;text-anchor:middle;display:inline;fill:#111111;stroke-width:1.25"
   class="key"><path
     d="m 1.6300079,-7.16 c 0.38,0 0.76,-0.24 0.94,-0.44 0.02,-0.16 -0.06,-0.26 -0.2,-0.32 -0.06,0.06 -0.16,0.1 -0.24,0.1 -0.18,0 -0.28,-0.32 -0.28,-1.14 v -1.5 c 0,-1.88 -1.13999997,-2.28 -2.11999997,-2.28 -0.84000003,0 -2.08000003,0.66 -2.08000003,1.46 0,0.3 0.22,0.5 0.52,0.5 0.38,0 0.52,-0.26 0.52,-0.42 0,-0.1 -0.02,-0.2 -0.04,-0.24 -0.02,-0.04 -0.04,-0.12 -0.04,-0.26 0,-0.32 0.42000003,-0.54 1.08000003,-0.54 0.46,0 1.08,0.16 1.08,1.66 l -1.16,0.3 c -1.26000003,0.32 -2.06000003,0.88 -2.06000003,1.72 0,0.86 0.7,1.4 1.54000003,1.4 0.66,0 1.02,-0.18 1.7,-0.78 0.06,0.36 0.33999997,0.78 0.83999997,0.78 z m -0.85999997,-2.88 v 1.58 c -0.52,0.46 -0.86,0.66 -1.28,0.66 -0.68000003,0 -0.90000003,-0.4 -0.90000003,-0.82 0,-0.62 0.48000003,-0.98 2.18000003,-1.42 z"
     style="font-size:20px;line-height:0%;font-family:'Linux Libertine';text-align:center;text-anchor:middle;display:inline;fill:#111111;stroke-width:1.25"
     id="path396" /></g>
	<g
   aria-label="º"
   id="text167"
   style="font-size:20px;line-height:0%;font-family:'Linux Libertine';text-align:center;text-anchor:middle;display:inline;fill:#111111;stroke-width:1.25"
   class="key"><path
     d="m 33.29001,-9.66 c 0,1.42 1.18,2.52 2.66,2.52 1.88,0 2.78,-1.34 2.78,-2.64 0,-1.38 -0.9,-2.62 -2.64,-2.62 -1.72,0 -2.8,1.12 -2.8,2.74 z m 2.64,-2.22 c 1,0 1.64,0.82 1.64,2.42 0,1.44 -0.86,1.8 -1.4,1.8 -1.2,0 -1.72,-1.22 -1.72,-2.2 0,-1.08 0.48,-2.02 1.48,-2.02 z"
     style="font-size:20px;line-height:0%;font-family:'Linux Libertine';text-align:center;text-anchor:middle;display:inline;fill:#111111;stroke-width:1.25"
     id="path399" /></g>
	<g
   aria-label="№"
   id="text169"
   style="font-size:20px;line-height:0%;font-family:'Linux Libertine';text-align:center;text-anchor:middle;display:inline;fill:#111111;stroke-width:1.25"
   class="key"><path
     d="m 66.710008,-3.36 v -5.42 c 0,-0.5 0.02,-0.74 0.1,-0.74 0.06,0 0.16,0.16 0.32,0.42 l 5.24,8.82 c 0.26,0.4 0.72,0.52 1.04,0.52 0.28,0 0.64,-0.28 0.64,-0.66 v -9.6 c 0,-2.02 0.14,-2.5 0.92,-2.5 0.28,0 0.4,0.42 0.54,0.68 0.18,0.36 0.42,0.62 0.86,0.62 0.36,0 0.66,-0.24 0.66,-0.76 0,-0.64 -0.8,-1.18 -1.82,-1.18 -1.76,0 -2.06,0.86 -2.06,3.56 v 6.04 c 0,0.58 -0.04,0.82 -0.16,0.82 -0.14,0 -0.38,-0.38 -0.96,-1.36 l -5.26,-8.82 h -2.64 l -0.04,0.02 v 0.38 c 0,0.1 0.16,0.16 0.26,0.16 h 0.1 c 0.66,0 1.24,0.84 1.36,1.36 v 8.06 c 0,2.02 -0.14,2.5 -0.92,2.5 -0.28,0 -0.4,-0.42 -0.54,-0.68 -0.18,-0.36 -0.42,-0.62 -0.86,-0.62 -0.36,0 -0.66,0.24 -0.66,0.76 0,0.64 0.8,1.18 1.82,1.18 1.76,0 2.06,-0.86 2.06,-3.56 z m 11.64,-5.76 c -1.78,0 -2.58,1.5 -2.58,2.92 0,1.28 0.94,2.64 2.56,2.64 1.66,0 2.6,-1.4 2.6,-2.7 0,-1.44 -0.74,-2.86 -2.58,-2.86 z m 1.4,3.24 c 0,1.22 -0.62,1.82 -1.2,1.82 -0.82,0 -1.6,-0.82 -1.6,-2.38 0,-1.58 0.6,-2.18 1.28,-2.18 0.84,0 1.52,1.16 1.52,2.74 z m 0.56,4.7 c 0.26,0 0.54,-0.4 0.54,-0.58 0,-0.16 -0.08,-0.3 -0.28,-0.3 h -4.18 c -0.24,0 -0.5,0.34 -0.5,0.6 0,0.14 0.12,0.28 0.3,0.28 z"
     style="font-size:20px;line-height:0%;font-family:'Linux Libertine';text-align:center;text-anchor:middle;display:inline;fill:#111111;stroke-width:1.25"
     id="path402" /></g>
	<g
   id="text171"
   class="key"
   style="font-size:20px;font-family:'Linux Libertine';text-align:center;text-anchor:middle;display:inline;fill:#111111;stroke-width:1.25" />
	<g
   aria-label="·"
   id="text173"
   style="font-size:20px;line-height:0%;font-family:'Linux Libertine';text-align:center;text-anchor:middle;display:inline;fill:#111111;stroke-width:1.25"
   class="key"><path
     d="m 144.00002,-3.98 c 0.56,0 1.08,-0.52 1.08,-1.08 0,-0.56 -0.52,-1.08 -1.08,-1.08 -0.56,0 -1.08,0.52 -1.08,1.08 0,0.56 0.52,1.08 1.08,1.08 z"
     style="font-size:20px;line-height:0%;font-family:'Linux Libertine';text-align:center;text-anchor:middle;display:inline;fill:#111111;stroke-width:1.25"
     id="path406" /></g>

	<g
   aria-label="£"
   id="text175"
   style="font-size:20px;line-height:0%;font-family:'Linux Libertine';text-align:center;text-anchor:middle;display:inline;fill:#111111;stroke-width:1.25"
   class="key"><path
     d="m 176.83002,-6 h 1.26 v 0.38 c 0,1.82 -0.22,3.42 -1.4,4.28 -0.54,0.3 -1.02,0.62 -1.02,1 0,0.32 0.34,0.56 0.72,0.56 0.44,0 0.8,-0.24 0.8,-0.7 0,-0.22 0.1,-0.5 0.8,-0.5 1.76,0 1.78,1.2 3.58,1.2 1.3,0 2.3,-0.72 2.78,-1.76 -0.08,-0.14 -0.2,-0.2 -0.36,-0.22 -0.52,0.72 -1.46,0.88 -2.06,0.88 -1.38,0 -1.16,-0.94 -3.64,-0.94 0.68,-0.64 1.48,-1.8 1.5,-4.18 h 2.16 c 0.22,0 0.48,-0.1 0.48,-0.26 v -0.4 c 0,-0.08 -0.06,-0.12 -0.16,-0.12 h -2.48 V -8.2 c 0,-1.74 0.74,-3.06 1.66,-3.06 0.44,0 0.74,0.22 1,0.46 0.24,0.22 0.42,0.38 0.72,0.38 0.48,0 0.82,-0.32 0.82,-0.82 0,-0.72 -1.14,-0.98 -1.6,-0.98 -1.06,0 -1.96,0.46 -2.66,1.18 -1.1,1.08 -1.64,2.16 -1.64,3.86 v 0.4 h -0.9 c -0.36,0 -0.48,0.26 -0.48,0.42 v 0.22 c 0,0.1 0.02,0.14 0.12,0.14 z"
     style="font-size:20px;line-height:0%;font-family:'Linux Libertine';text-align:center;text-anchor:middle;display:inline;fill:#111111;stroke-width:1.25"
     id="path409" /></g>
	<g
   aria-label="¤"
   id="text177"
   style="font-size:20px;line-height:0%;font-family:'Linux Libertine';text-align:center;text-anchor:middle;display:inline;fill:#111111;stroke-width:1.25"
   class="key"><path
     d="m 215.97002,-2.38 c 0.86,0 1.64,-0.26 2.34,-0.78 l 0.96,1.06 0.76,-0.8 -1.1,-0.92 c 0.5,-0.66 0.78,-1.42 0.78,-2.26 0,-0.88 -0.28,-1.64 -0.8,-2.28 l 1.16,-0.94 -0.82,-0.86 -0.98,1.16 c -0.68,-0.52 -1.44,-0.78 -2.3,-0.78 -0.82,0 -1.56,0.24 -2.26,0.74 l -0.96,-1.08 -0.78,0.84 1.1,0.88 c -0.54,0.64 -0.84,1.42 -0.84,2.32 0,0.86 0.3,1.64 0.84,2.3 l -1.14,0.9 0.86,0.86 0.9,-1.12 c 0.68,0.5 1.44,0.76 2.28,0.76 z m -2.46,-3.72 c 0,-1.5 1.02,-2.8 2.5,-2.8 1.3,0 2.42,1.24 2.42,2.82 0,1.5 -0.98,2.8 -2.46,2.8 -1.5,0 -2.46,-1.28 -2.46,-2.82 z"
     style="font-size:20px;line-height:0%;font-family:'Linux Libertine';text-align:center;text-anchor:middle;display:inline;fill:#111111;stroke-width:1.25"
     id="path412" /></g>
	<g
   aria-label="⇥"
   id="text179"
   style="font-size:20px;line-height:0%;font-family:'Linux Libertine';text-align:center;text-anchor:middle;display:inline;fill:#111111;stroke-width:1.25"
   class="key"><path
     d="m 244.76367,-7.0996094 h 10.17578 l -2.28515,-2.2851562 1.17187,-1.1718754 3.84766,3.8476566 v -3.7499996 h 1.66015 v 8.3984371 h -1.66015 v -3.7695312 l -3.84766,3.8476562 -1.17187,-1.171875 2.28515,-2.2851562 h -10.17578 z"
     style="font-size:20px;line-height:0%;font-family:'Linux Libertine';text-align:center;text-anchor:middle;display:inline;fill:#111111;stroke-width:1.25"
     id="path415" /></g>
	<g
   aria-label="/"
   id="text181"
   style="font-size:20px;line-height:0%;font-family:'Linux Libertine';text-align:center;text-anchor:middle;display:inline;fill:#111111;stroke-width:1.25"
   class="key"><path
     d="m 290.63,-12.92 h -0.82 l -4.74,14.1 h 0.82 z"
     style="font-size:20px;line-height:0%;font-family:'Linux Libertine';text-align:center;text-anchor:middle;display:inline;fill:#111111;stroke-width:1.25"
     id="path418" /></g>
	<g
   aria-label="*"
   id="text183"
   style="font-size:20px;line-height:0%;font-family:'Linux Libertine';text-align:center;text-anchor:middle;display:inline;fill:#111111;stroke-width:1.25"
   class="key"><path
     d="m 323.67001,-10.94 c -0.66,0.74 -1.68,0.9 -1.68,1.76 0,0.3 0.24,0.56 0.58,0.56 0.76,0 0.9,-1.18 1.4,-2.08 0.5,0.78 0.64,2.08 1.42,2.08 0.28,0 0.58,-0.22 0.58,-0.58 0,-0.8 -0.98,-1 -1.66,-1.74 0.36,-0.06 0.72,-0.08 1.1,-0.08 0.68,0 1.38,-0.14 1.38,-0.74 0,-0.2 -0.14,-0.6 -0.68,-0.6 -0.66,0 -0.98,0.64 -1.9,1.04 0.04,-0.6 0.38,-1.4 0.38,-1.94 0,-0.48 -0.3,-0.7 -0.66,-0.7 -0.36,0 -0.6,0.36 -0.6,0.78 0,0.52 0.38,1.06 0.46,1.84 -0.88,-0.36 -1.24,-1.02 -1.92,-1.02 -0.48,0 -0.66,0.32 -0.66,0.6 0,0.6 0.64,0.74 1.62,0.74 0.3,0 0.58,0.02 0.84,0.08 z"
     style="font-size:20px;line-height:0%;font-family:'Linux Libertine';text-align:center;text-anchor:middle;display:inline;fill:#111111;stroke-width:1.25"
     id="path421" /></g>
	<g
   aria-label="-"
   id="text185"
   style="font-size:20px;line-height:0%;font-family:'Linux Libertine';text-align:center;text-anchor:middle;display:inline;fill:#111111;stroke-width:1.25"
   class="key"><path
     d="m 362.04001,-4.46 c 0.26,0 0.54,-0.56 0.54,-0.8 0,-0.2 -0.08,-0.4 -0.28,-0.4 h -4.38 c -0.24,0 -0.5,0.46 -0.5,0.82 0,0.2 0.12,0.38 0.3,0.38 z"
     style="font-size:20px;line-height:0%;font-family:'Linux Libertine';text-align:center;text-anchor:middle;display:inline;fill:#111111;stroke-width:1.25"
     id="path424" /></g>
</g>


<g
   aria-label="⇥"
   id="text189"
   style="font-size:14px;line-height:0%;font-family:'DejaVu Sans';display:inline;fill:#111111"
   class="mod big"><path
     d="m 10.799805,55.030273 h 7.123047 l -1.59961,-1.599609 0.820313,-0.820312 2.693359,2.693359 v -2.625 h 1.162109 v 5.878906 h -1.162109 v -2.638672 l -2.693359,2.69336 -0.820313,-0.820313 1.59961,-1.599609 h -7.123047 z"
     style="font-size:14px;line-height:0%;font-family:'DejaVu Sans';display:inline;fill:#111111"
     id="path427" /></g>

<g
   transform="translate(73,62)"
   id="g213">
	<g
   aria-label="⇞"
   id="text191"
   style="font-size:20px;line-height:0%;font-family:'Linux Libertine';text-align:center;text-anchor:middle;display:inline;fill:#111111;stroke-width:1.25"
   class="key"><path
     d="m -0.43945313,-14.648438 h 0.87890626 l 3.82812497,3.847657 -1.171875,1.1718747 -2.26562497,-2.2851567 v 3.6132817 H 3.7207031 V -6.640625 H 0.83007813 v 1.6601563 H 3.7207031 v 1.6601562 H 0.83007813 V 0 H -0.83007813 V -3.3203125 H -3.7011719 v -1.6601562 h 2.87109377 V -6.640625 H -3.7011719 v -1.6601563 h 2.87109377 v -3.6132817 l -2.28515627,2.2851567 -1.171875,-1.1718747 z"
     style="font-size:20px;line-height:0%;font-family:'Linux Libertine';text-align:center;text-anchor:middle;display:inline;fill:#111111;stroke-width:1.25"
     id="path430" /></g>
	<g
   aria-label="⌫"
   id="text193"
   style="font-size:20px;line-height:0%;font-family:'Linux Libertine';text-align:center;text-anchor:middle;display:inline;fill:#111111;stroke-width:1.25"
   class="key"><path
     d="m 32.220014,-8.6 c -1.5,1.6 -2.96,2.92 -4.38,3.92 v 0.76 c 1.26,0.88 2.84,2.28 4.38,3.92 h 11.06 v -8.6 z m 1.68,0.68 3.04,3.64 -3.02,3.6 h -1.36 c -1.2,-1.34 -2.12,-2.26 -3.72,-3.62 1.64,-1.4 2.56,-2.28 3.72,-3.62 z m 7.02,7.24 -3.02,-3.6 3.04,-3.64 h 1.56 v 7.24 z m -6.08,-7.24 h 5.14 l -2.56,3.06 z m 5.12,7.24 h -5.08 l 2.54,-3.04 z"
     style="font-size:20px;line-height:0%;font-family:'Linux Libertine';text-align:center;text-anchor:middle;display:inline;fill:#111111;stroke-width:1.25"
     id="path433" /></g>
	<g
   aria-label="⇡"
   id="text195"
   style="font-size:20px;line-height:0%;font-family:'Linux Libertine';text-align:center;text-anchor:middle;display:inline;fill:#111111;stroke-width:1.25"
   class="key"><path
     d="m 71.560547,-14.648438 h 0.878906 l 3.847656,3.847657 -1.171875,1.1718747 -2.285156,-2.2851567 v 3.6132817 h -1.660156 v -3.6132817 l -2.285156,2.2851567 -1.171875,-1.1718747 z m -0.390625,8.007813 h 1.660156 v 2.4804688 h -1.660156 z m 0,4.140625 h 1.660156 V 0 h -1.660156 z"
     style="font-size:20px;line-height:0%;font-family:'Linux Libertine';text-align:center;text-anchor:middle;display:inline;fill:#111111;stroke-width:1.25"
     id="path436" /></g>
	<g
   aria-label="⌦"
   id="text197"
   style="font-size:20px;line-height:0%;font-family:'Linux Libertine';text-align:center;text-anchor:middle;display:inline;fill:#111111;stroke-width:1.25"
   class="key"><path
     d="m 111.78001,-8.58 h -11.06 V 0 h 11.06 c 1.54,-1.64 3.12,-3.04 4.38,-3.92 v -0.76 c -1.42,-1 -2.88,-2.3 -4.38,-3.9 z m -1.66,0.68 h 1.32 c 1.16,1.34 2.1,2.2 3.74,3.6 -1.6,1.36 -2.54,2.28 -3.72,3.62 h -1.36 l -3.02,-3.6 z m -7.02,7.22 h -1.58 V -7.9 h 1.54 l 3.06,3.62 z m 6.06,-7.22 -2.56,3.04 -2.58,-3.04 z m -5.1,7.22 2.54,-3.04 2.54,3.04 z"
     style="font-size:20px;line-height:0%;font-family:'Linux Libertine';text-align:center;text-anchor:middle;display:inline;fill:#111111;stroke-width:1.25"
     id="path439" /></g>
	<g
   aria-label="⇟"
   id="text199"
   style="font-size:20px;line-height:0%;font-family:'Linux Libertine';text-align:center;text-anchor:middle;display:inline;fill:#111111;stroke-width:1.25"
   class="key"><path
     d="m 144.41992,0.06835937 h -0.8789 l -3.82813,-3.84765627 1.17188,-1.171875 2.26562,2.2851563 v -3.6132813 h -2.89062 v -1.6601562 h 2.89062 v -1.6601563 h -2.89062 v -1.6601566 h 2.89062 v -3.320312 h 1.66016 v 3.320312 h 2.87109 v 1.6601566 h -2.87109 v 1.6601563 h 2.87109 v 1.6601562 h -2.87109 v 3.6132813 l 2.28515,-2.2851563 1.17188,1.171875 z"
     style="font-size:20px;line-height:0%;font-family:'Linux Libertine';text-align:center;text-anchor:middle;display:inline;fill:#111111;stroke-width:1.25"
     id="path442" /></g>

	<g
   aria-label="¡"
   id="text201"
   style="font-size:20px;line-height:0%;font-family:'Linux Libertine';text-align:center;text-anchor:middle;display:inline;fill:#111111;stroke-width:1.25"
   class="key"><path
     d="m 180.00002,4.58 c 0.48,0 1.06,-0.38 1.06,-1.46 0,-1.4 -0.28,-2.1 -0.46,-3.86 -0.16,-1.56 -0.28,-3.36 -0.32,-3.78 -0.02,-0.12 -0.08,-0.26 -0.28,-0.26 -0.2,0 -0.26,0.18 -0.28,0.4 -0.04,0.28 -0.04,1.48 -0.3,3.64 -0.2,1.72 -0.48,2.56 -0.48,3.86 0,1.08 0.58,1.46 1.06,1.46 z m -1.06,-12.3 c 0,0.58 0.48,1.06 1.06,1.06 0.58,0 1.06,-0.48 1.06,-1.06 0,-0.58 -0.48,-1.06 -1.06,-1.06 -0.58,0 -1.06,0.48 -1.06,1.06 z"
     style="font-size:20px;line-height:0%;font-family:'Linux Libertine';text-align:center;text-anchor:middle;display:inline;fill:#111111;stroke-width:1.25"
     id="path445" /></g>
	<g
   aria-label="7"
   id="text203"
   style="font-size:20px;line-height:0%;font-family:'Linux Libertine';text-align:center;text-anchor:middle;display:inline;fill:#111111;stroke-width:1.25"
   class="key"><path
     d="m 214.75002,-10.7 h 3.58 c -1.56,3.88 -3.14,7.78 -4.5,10.82 l 0.16,0.14 1.36,-0.06 c 1.14,-3.4 2.24,-6.72 4.48,-12.18 l -0.32,-0.24 c -0.34,0.1 -0.78,0.22 -1.54,0.22 h -4.12 c -0.68,0 -0.64,-0.2 -1,-0.28 -0.06,0 -0.08,0 -0.08,0.06 -0.02,0.96 -0.24,2.16 -0.4,3.2 0.22,0.06 0.42,0.08 0.64,0.06 0.44,-1.6 1.1,-1.74 1.74,-1.74 z"
     style="font-size:20px;line-height:0%;font-family:'Linux Libertine';text-align:center;text-anchor:middle;display:inline;fill:#111111;stroke-width:1.25"
     id="path448" /></g>
	<g
   aria-label="8"
   id="text205"
   style="font-size:20px;line-height:0%;font-family:'Linux Libertine';text-align:center;text-anchor:middle;display:inline;fill:#111111;stroke-width:1.25"
   class="key"><path
     d="m 255.21002,-9.7 c 0,-1.44 -1.12,-2.5 -3.08,-2.5 -2.04,0 -3.36,1.22 -3.36,2.76 0,1.12 0.54,1.94 1.76,2.7 l 0.52,0.32 c -0.58,0.3 -1.12,0.66 -1.62,1.1 -0.82,0.72 -1.16,1.62 -1.16,2.4 0,2.04 1.44,3.12 3.56,3.12 2.62,0 3.9,-1.92 3.9,-3.44 0,-1.16 -0.5,-2.18 -1.56,-2.82 l -1.42,-0.86 c 0.94,-0.46 2.46,-1.5 2.46,-2.78 z m -3.34,9.2 c -0.9,0 -2.26,-0.62 -2.26,-2.42 0,-0.6 0.26,-2 1.98,-3.14 l 0.94,0.56 c 1.24,0.76 1.74,1.7 1.74,2.66 0,2 -1.5,2.34 -2.4,2.34 z m 0.16,-11 c 1.3,0 1.78,0.86 1.78,1.78 0,1.08 -1.06,1.98 -1.6,2.38 l -0.62,-0.38 c -1.26,-0.82 -1.4,-1.48 -1.4,-2.1 0,-0.92 0.64,-1.68 1.84,-1.68 z"
     style="font-size:20px;line-height:0%;font-family:'Linux Libertine';text-align:center;text-anchor:middle;display:inline;fill:#111111;stroke-width:1.25"
     id="path451" /></g>
	<g
   aria-label="9"
   id="text207"
   style="font-size:20px;line-height:0%;font-family:'Linux Libertine';text-align:center;text-anchor:middle;display:inline;fill:#111111;stroke-width:1.25"
   class="key"><path
     d="m 289.89002,-5.12 c -0.54,1.82 -1.82,3.84 -4.48,4.84 0,0.24 0.08,0.42 0.24,0.52 2.02,-0.6 3.26,-1.44 4.38,-2.74 1.24,-1.44 1.86,-3.26 1.86,-4.84 0,-4.06 -2.3,-4.86 -3.84,-4.86 -2.62,0 -3.7,2.54 -3.7,4.26 0,1.72 0.92,3.26 3.64,3.26 0.52,0 1.3,-0.16 1.9,-0.44 z m 0.18,-0.72 c -0.66,0.44 -1.32,0.46 -1.66,0.46 -1.96,0 -2.4,-1.92 -2.4,-2.92 0,-2.2 0.84,-3.2 1.82,-3.2 1.26,0 2.4,0.68 2.4,4.1 0,0.44 -0.04,0.98 -0.16,1.56 z"
     style="font-size:20px;line-height:0%;font-family:'Linux Libertine';text-align:center;text-anchor:middle;display:inline;fill:#111111;stroke-width:1.25"
     id="path454" /></g>
	<g
   aria-label="+"
   id="text209"
   style="font-size:20px;line-height:0%;font-family:'Linux Libertine';text-align:center;text-anchor:middle;display:inline;fill:#111111;stroke-width:1.25"
   class="key"><path
     d="m 323.50001,-8.7 v 3.18 h -3.3 c -0.24,0 -0.5,0.38 -0.5,0.68 0,0.16 0.12,0.32 0.3,0.32 h 3.5 v 3.4 c 0,0.18 0.16,0.3 0.32,0.3 0.3,0 0.68,-0.26 0.68,-0.5 v -3.2 h 3.26 c 0.26,0 0.54,-0.46 0.54,-0.66 0,-0.16 -0.08,-0.34 -0.28,-0.34 h -3.52 v -3.44 c 0,-0.2 -0.18,-0.28 -0.34,-0.28 -0.2,0 -0.66,0.28 -0.66,0.54 z"
     style="font-size:20px;line-height:0%;font-family:'Linux Libertine';text-align:center;text-anchor:middle;display:inline;fill:#111111;stroke-width:1.25"
     id="path457" /></g>
	<g
   aria-label="−"
   id="text211"
   style="font-size:20px;line-height:0%;font-family:'Linux Libertine';text-align:center;text-anchor:middle;display:inline;fill:#111111;stroke-width:1.25"
   class="key"><path
     d="m 363.76001,-4.52 c 0.26,0 0.54,-0.46 0.54,-0.66 0,-0.16 -0.08,-0.34 -0.28,-0.34 h -7.82 c -0.24,0 -0.5,0.38 -0.5,0.68 0,0.16 0.12,0.32 0.3,0.32 z"
     style="font-size:20px;line-height:0%;font-family:'Linux Libertine';text-align:center;text-anchor:middle;display:inline;fill:#111111;stroke-width:1.25"
     id="path460" /></g>
</g>


<g
   transform="translate(84,98)"
   id="g237">
	<g
   aria-label="⇱"
   id="text215"
   style="font-size:20px;line-height:0%;font-family:'Linux Libertine';text-align:center;text-anchor:middle;display:inline;fill:#111111;stroke-width:1.25"
   class="key"><path
     d="m 7.3730469,-14.580078 v 0.966797 h -13.59375 V 0 H -7.1875 v -14.580078 z m -11.7285156,3.447265 0.6152343,-0.615234 h 5.4296875 v 1.650391 h -3.2226562 l 8.4179687,8.4179685 -1.171875,1.171875 -8.4179687,-8.4179688 v 3.2226563 h -1.6503906 z"
     style="font-size:20px;line-height:0%;font-family:'Linux Libertine';text-align:center;text-anchor:middle;display:inline;fill:#111111;stroke-width:1.25"
     id="path463" /></g>
	<g
   aria-label="⇠"
   id="text217"
   style="font-size:20px;line-height:0%;font-family:'Linux Libertine';text-align:center;text-anchor:middle;display:inline;fill:#111111;stroke-width:1.25"
   class="key"><path
     d="m 28.597656,-5.8300781 v -0.8789063 l 3.837891,-3.8378906 1.171875,1.171875 -2.275391,2.2753906 h 3.603516 v 1.6601563 h -3.603516 l 2.275391,2.2753906 -1.171875,1.171875 z m 7.998047,0.390625 v -1.6601563 h 2.490234 v 1.6601563 z m 4.150391,0 v -1.6601563 h 2.490234 v 1.6601563 z"
     style="font-size:20px;line-height:0%;font-family:'Linux Libertine';text-align:center;text-anchor:middle;display:inline;fill:#111111;stroke-width:1.25"
     id="path466" /></g>
	<g
   aria-label="⇣"
   id="text219"
   style="font-size:20px;line-height:0%;font-family:'Linux Libertine';text-align:center;text-anchor:middle;display:inline;fill:#111111;stroke-width:1.25"
   class="key"><path
     d="m 71.560547,0.06835937 -3.847656,-3.84765627 1.171875,-1.171875 2.285156,2.2851563 v -3.6132813 h 1.660156 v 3.6132813 l 2.285156,-2.2851563 1.171875,1.171875 -3.847656,3.84765627 z M 71.169922,-7.9394531 v -2.4804689 h 1.660156 v 2.4804689 z m 0,-4.1406249 v -2.5 h 1.660156 v 2.5 z"
     style="font-size:20px;line-height:0%;font-family:'Linux Libertine';text-align:center;text-anchor:middle;display:inline;fill:#111111;stroke-width:1.25"
     id="path469" /></g>
	<g
   aria-label="⇢"
   id="text221"
   style="font-size:20px;line-height:0%;font-family:'Linux Libertine';text-align:center;text-anchor:middle;display:inline;fill:#eeeeee;stroke-width:1.25"
   class="key nubkey"><path
     d="m 115.40234,-5.8300781 -3.83789,3.8378906 -1.17187,-1.171875 2.27539,-2.2753906 h -3.60352 v -1.6601563 h 3.60352 L 110.39258,-9.375 l 1.17187,-1.171875 3.83789,3.8378906 z m -10.48828,-1.2695313 h 2.49024 v 1.6601563 h -2.49024 z m -1.66015,0 v 1.6601563 h -2.49024 v -1.6601563 z"
     style="font-size:20px;line-height:0%;font-family:'Linux Libertine';text-align:center;text-anchor:middle;display:inline;fill:#eeeeee;stroke-width:1.25"
     id="path472" /></g>
	<g
   aria-label="⇲"
   id="text223"
   style="font-size:20px;line-height:0%;font-family:'Linux Libertine';text-align:center;text-anchor:middle;display:inline;fill:#111111;stroke-width:1.25"
   class="key"><path
     d="m 136.8125,0 v -0.96679688 h 13.59375 V -14.580078 h 0.9668 V 0 Z m 11.72852,-3.4472656 -0.61524,0.6152343 h -5.42969 v -1.6503906 h 3.22266 l -8.41797,-8.4179691 1.17188,-1.171875 8.41796,8.4179691 v -3.2226562 h 1.6504 z"
     style="font-size:20px;line-height:0%;font-family:'Linux Libertine';text-align:center;text-anchor:middle;display:inline;fill:#111111;stroke-width:1.25"
     id="path475" /></g>

	<g
   aria-label="¿"
   id="text225"
   style="font-size:20px;line-height:0%;font-family:'Linux Libertine';text-align:center;text-anchor:middle;display:inline;fill:#111111;stroke-width:1.25"
   class="key"><path
     d="m 182.07001,2.86 c 0,0.6 -0.8,1.08 -1.94,1.08 -1.14,0 -1.9,-1.14 -1.9,-2.44 0,-0.94 0.3,-1.52 1.1,-2.26 1.3,-1.18 1.4,-2.36 1.4,-3.22 V -4.9 c 0,-0.14 -0.16,-0.2 -0.32,-0.2 -0.16,0 -0.34,0.06 -0.34,0.2 v 0.88 c 0,0.48 -0.02,0.96 -0.28,1.46 -0.18,0.34 -0.58,0.66 -1.04,1 -0.94,0.68 -2.18,1.56 -2.18,3.14 0,1.82 1.32,3.02 3.36,3.02 1.06,0 1.9,-0.28 2.48,-0.78 0.6,-0.48 1.02,-1.04 1.02,-1.8 0,-0.7 -0.5,-0.86 -0.82,-0.86 -0.38,0 -0.78,0.24 -0.78,0.7 0,0.26 0.04,0.38 0.12,0.48 0.08,0.1 0.12,0.22 0.12,0.52 z m -2.72,-10.58 c 0,0.58 0.48,1.06 1.06,1.06 0.58,0 1.06,-0.48 1.06,-1.06 0,-0.58 -0.48,-1.06 -1.06,-1.06 -0.58,0 -1.06,0.48 -1.06,1.06 z"
     style="font-size:20px;line-height:0%;font-family:'Linux Libertine';text-align:center;text-anchor:middle;display:inline;fill:#111111;stroke-width:1.25"
     id="path478" /></g>
	<g
   aria-label="4"
   id="text227"
   style="font-size:20px;line-height:0%;font-family:'Linux Libertine';text-align:center;text-anchor:middle;display:inline;fill:#eeeeee;stroke-width:1.25"
   class="key nubkey"><path
     d="m 219.95002,-4.38 h -1.66 v -5.84 c 0,-1 0,-1.78 0.04,-1.94 l -0.04,-0.04 h -0.64 c -0.14,0 -0.24,0.12 -0.32,0.22 -1.26,1.54 -3.58,4.84 -5.42,7.7 0.06,0.3 0.18,0.84 0.78,0.84 h 4.08 v 1.84 c 0,0.92 -0.76,0.92 -1.62,0.98 -0.12,0.12 -0.12,0.54 0,0.66 0.64,-0.02 1.44,-0.04 2.36,-0.04 0.78,0 1.54,0.02 2.18,0.04 0.12,-0.12 0.12,-0.54 0,-0.66 -0.98,-0.08 -1.4,-0.04 -1.4,-0.98 v -1.84 h 1.38 c 0.28,0 0.58,-0.38 0.58,-0.62 0,-0.2 -0.08,-0.32 -0.3,-0.32 z m -3.18,-5.76 v 5.76 h -3.82 c 1.02,-1.64 2.44,-3.88 3.82,-5.76 z"
     style="font-size:20px;line-height:0%;font-family:'Linux Libertine';text-align:center;text-anchor:middle;display:inline;fill:#eeeeee;stroke-width:1.25"
     id="path481" /></g>
	<g
   aria-label="5"
   id="text229"
   style="font-size:20px;line-height:0%;font-family:'Linux Libertine';text-align:center;text-anchor:middle;display:inline;fill:#111111;stroke-width:1.25"
   class="key"><path
     d="m 253.73002,-3.78 c 0,1.9 -1,3.3 -2.2,3.3 -0.76,0 -1.02,-0.5 -1.32,-0.9 -0.26,-0.34 -0.6,-0.64 -1.02,-0.64 -0.38,0 -0.76,0.34 -0.76,0.74 0,0.82 1.7,1.5 2.84,1.5 2.48,0 4.24,-1.84 4.24,-4.36 0,-1.94 -1.34,-3.68 -3.58,-3.68 -0.86,0 -1.6,0.18 -1.96,0.32 l 0.4,-3.34 c 0.74,0.08 1.38,0.18 2.34,0.18 0.6,0 1.28,-0.04 2.1,-0.12 l 0.32,-1.36 -0.14,-0.08 c -1.14,0.12 -2.22,0.22 -3.28,0.22 -0.74,0 -1.46,-0.04 -2.16,-0.1 l -0.68,5.76 c 1.06,-0.4 1.82,-0.48 2.54,-0.48 1.3,0 2.32,0.86 2.32,3.04 z"
     style="font-size:20px;line-height:0%;font-family:'Linux Libertine';text-align:center;text-anchor:middle;display:inline;fill:#111111;stroke-width:1.25"
     id="path484" /></g>
	<g
   aria-label="6"
   id="text231"
   style="font-size:20px;line-height:0%;font-family:'Linux Libertine';text-align:center;text-anchor:middle;display:inline;fill:#111111;stroke-width:1.25"
   class="key"><path
     d="m 286.23002,-6.86 c 0.54,-1.82 1.82,-3.84 4.48,-4.84 0,-0.24 -0.08,-0.42 -0.24,-0.52 -2.02,0.6 -3.26,1.44 -4.38,2.74 -1.24,1.44 -1.86,3.26 -1.86,4.84 0,4.06 2.3,4.86 3.84,4.86 2.62,0 3.7,-2.54 3.7,-4.26 0,-1.72 -0.92,-3.26 -3.64,-3.26 -0.52,0 -1.3,0.16 -1.9,0.44 z m -0.18,0.72 c 0.66,-0.44 1.32,-0.46 1.66,-0.46 1.96,0 2.4,1.92 2.4,2.92 0,2.2 -0.84,3.2 -1.82,3.2 -1.26,0 -2.4,-0.68 -2.4,-4.1 0,-0.46 0.04,-0.98 0.16,-1.56 z"
     style="font-size:20px;line-height:0%;font-family:'Linux Libertine';text-align:center;text-anchor:middle;display:inline;fill:#111111;stroke-width:1.25"
     id="path487" /></g>
	<g
   aria-label=","
   id="text233"
   style="font-size:20px;line-height:0%;font-family:'Linux Libertine';text-align:center;text-anchor:middle;display:inline;fill:#111111;stroke-width:1.25"
   class="key"><path
     d="m 323.88001,-1.9 c -0.62,0 -1.06,0.42 -1.06,0.98 0,0.62 0.52,0.82 0.88,0.88 0.38,0.04 0.72,0.16 0.72,0.62 0,0.42 -0.72,1.34 -1.76,1.6 0,0.2 0.04,0.34 0.18,0.48 1.2,-0.22 2.36,-1.18 2.36,-2.58 0,-1.2 -0.52,-1.98 -1.32,-1.98 z"
     style="font-size:20px;line-height:0%;font-family:'Linux Libertine';text-align:center;text-anchor:middle;display:inline;fill:#111111;stroke-width:1.25"
     id="path490" /></g>

    <g
   aria-label="."
   id="text235"
   style="font-size:20px;line-height:0%;font-family:'Linux Libertine';text-align:center;text-anchor:middle;display:inline;fill:#111111;stroke-width:1.25"
   class="key"><path
     d="m 358.94001,-0.86 c 0,0.58 0.48,1.06 1.06,1.06 0.58,0 1.06,-0.48 1.06,-1.06 0,-0.58 -0.48,-1.06 -1.06,-1.06 -0.58,0 -1.06,0.48 -1.06,1.06 z"
     style="font-size:20px;line-height:0%;font-family:'Linux Libertine';text-align:center;text-anchor:middle;display:inline;fill:#111111;stroke-width:1.25"
     id="path493" /></g>

</g>

<g
   transform="translate(101,134)"
   id="g259">
    <g
   aria-label="⌧"
   id="text239"
   style="font-size:20px;line-height:0%;font-family:'Linux Libertine';text-align:center;text-anchor:middle;display:inline;fill:#111111;stroke-width:1.25"
   class="key"><path
     d="m 5.7700043,-8.6 h -11.54 V 0 h 11.54 z m -9.26,7.92 h -1.5 v -7.24 h 1.48 l 3.03999997,3.64 z m 8.48,0 h -1.48 L 0.49000427,-4.28 3.5300043,-7.92 h 1.46 z m -2.42,-7.24 -2.56000003,3.06 -2.57999997,-3.06 z m -5.1,7.24 2.53999997,-3.04 2.54000003,3.04 z"
     style="font-size:20px;line-height:0%;font-family:'Linux Libertine';text-align:center;text-anchor:middle;display:inline;fill:#111111;stroke-width:1.25"
     id="path496" /></g>
    <g
   aria-label="⇥"
   id="text241"
   style="font-size:20px;line-height:0%;font-family:'Linux Libertine';text-align:center;text-anchor:middle;display:inline;fill:#111111;stroke-width:1.25"
   class="key"><path
     d="m 28.763672,-7.0996094 h 10.175781 l -2.285156,-2.2851562 1.171875,-1.1718754 3.847656,3.8476566 v -3.7499996 h 1.660156 v 8.3984371 h -1.660156 v -3.7695312 l -3.847656,3.8476562 -1.171875,-1.171875 2.285156,-2.2851562 H 28.763672 Z"
     style="font-size:20px;line-height:0%;font-family:'Linux Libertine';text-align:center;text-anchor:middle;display:inline;fill:#111111;stroke-width:1.25"
     id="path499" /></g>
    <g
   aria-label="⎀"
   id="text243"
   style="font-size:20px;line-height:0%;font-family:'Linux Libertine';text-align:center;text-anchor:middle;display:inline;fill:#111111;stroke-width:1.25"
   class="key"><path
     d="m 71.750017,-12.46 c -0.7,0 -1.54,0.34 -1.9,0.52 l 0.24,0.86 c 0.58,-0.36 0.9,-0.5 1.58,-0.5 0.76,0 1.3,0.48 1.3,1.22 h -1.06 c -1.22,0 -2.22,0.62 -2.22,1.82 0,1.1 0.64,1.74 1.68,1.74 0.72,0 1.24,-0.16 1.6,-0.46 v 0.38 h 0.96 V -10 c 0,-1.58 -0.66,-2.46 -2.18,-2.46 z m 0.3,11.8 c -0.82,-1.76 -2.58,-4.42 -4.14,-6.46 l -0.72,0.32 c 1.64,2.26 3.2,4.62 4.44,7.04 h 0.84 c 1.08,-2.22 2.72,-4.72 4.34,-6.92 l -0.64,-0.44 c -1.52,2 -3.32,4.76 -4.12,6.46 z m -0.48,-7.06 c -0.52,0 -0.92,-0.3 -0.92,-0.88 0,-0.66 0.7,-0.88 1.58,-0.88 h 0.74 c 0,1.5 -0.88,1.76 -1.4,1.76 z"
     style="font-size:20px;line-height:0%;font-family:'Linux Libertine';text-align:center;text-anchor:middle;display:inline;fill:#111111;stroke-width:1.25"
     id="path502" /></g>
    <g
   aria-label="⏎"
   id="text245"
   style="font-size:20px;line-height:0%;font-family:'Linux Libertine';text-align:center;text-anchor:middle;display:inline;fill:#111111;stroke-width:1.25"
   class="key"><path
     d="m 110.62002,-14 v 5.24 h -6.06 v -3.48 l -5.960001,5.98 5.960001,5.96 v -3.48 h 10.24 c 0.6,0 1,-0.4 1,-1 V -14 c 0,-0.6 -0.4,-1 -1,-1 h -3.18 c -0.6,0 -1,0.4 -1,1 z m 4.26,-0.12 v 9.46 h -11.22 v 2.22 l -3.780001,-3.82 3.780001,-3.82 v 2.22 h 7.86 v -6.26 z"
     style="font-size:20px;line-height:0%;font-family:'Linux Libertine';text-align:center;text-anchor:middle;display:inline;fill:#111111;stroke-width:1.25"
     id="path505" /></g>

    <g
   aria-label="↶"
   id="text247"
   style="font-size:20px;line-height:0%;font-family:'Linux Libertine';text-align:center;text-anchor:middle;display:inline;fill:#111111;stroke-width:1.25"
   class="key"><path
     d="m 141.17773,-6.796875 2.26563,-2.2851563 1.17187,1.1718751 -3.82812,3.8476562 h -0.87891 l -3.84765,-3.8476562 1.17187,-1.1718751 2.28516,2.2851563 v -0.4882812 q 0,-1.2402344 0.44922,-2.3339844 0.43945,-1.0449224 1.33789,-1.9726564 0.8789,-0.839844 1.95312,-1.318359 1.05469,-0.449219 2.30469,-0.449219 1.25,0 2.30469,0.449219 1.07422,0.478515 1.95312,1.318359 0.89844,0.927734 1.33789,1.9726564 0.44922,1.09375 0.44922,2.3339844 h -1.66015 q 0,-0.9082032 -0.32227,-1.6992188 -0.32227,-0.7910156 -0.9668,-1.435547 -0.58593,-0.576172 -1.42578,-0.957031 -0.72265,-0.322266 -1.65039,-0.322266 -0.92773,0 -1.68945,0.322266 -0.80078,0.341797 -1.42578,0.957031 -0.625,0.6250001 -0.9668,1.435547 -0.32227,0.7910156 -0.32227,1.6992188 z"
     style="font-size:20px;line-height:0%;font-family:'Linux Libertine';text-align:center;text-anchor:middle;display:inline;fill:#111111;stroke-width:1.25"
     id="path508" /></g>
    <g
   aria-label=":"
   id="text249"
   style="font-size:20px;line-height:0%;font-family:'Linux Libertine';text-align:center;text-anchor:middle;display:inline;fill:#111111;stroke-width:1.25"
   class="key"><path
     d="m 179.04002,-1.2 c 0,0.58 0.48,1.06 1.06,1.06 0.58,0 1.06,-0.48 1.06,-1.06 0,-0.58 -0.48,-1.06 -1.06,-1.06 -0.58,0 -1.06,0.48 -1.06,1.06 z m 0,-5.96 c 0,0.58 0.48,1.06 1.06,1.06 0.58,0 1.06,-0.48 1.06,-1.06 0,-0.58 -0.48,-1.06 -1.06,-1.06 -0.58,0 -1.06,0.48 -1.06,1.06 z"
     style="font-size:20px;line-height:0%;font-family:'Linux Libertine';text-align:center;text-anchor:middle;display:inline;fill:#111111;stroke-width:1.25"
     id="path511" /></g>
    <g
   aria-label="1"
   id="text251"
   style="font-size:20px;line-height:0%;font-family:'Linux Libertine';text-align:center;text-anchor:middle;display:inline;fill:#111111;stroke-width:1.25"
   class="key"><path
     d="m 217.11002,-2.44 v -6.94 c 0,-1.2 0.02,-2.42 0.06,-2.68 0,-0.1 -0.04,-0.1 -0.12,-0.1 -1.1,0.68 -2.16,1.18 -3.92,2 0.04,0.22 0.12,0.42 0.3,0.54 0.92,-0.38 1.36,-0.5 1.74,-0.5 0.34,0 0.4,0.48 0.4,1.16 v 6.52 c 0,1.66 -0.54,1.76 -1.94,1.82 -0.12,0.12 -0.12,0.54 0,0.66 0.98,-0.02 1.7,-0.04 2.78,-0.04 0.96,0 1.44,0.02 2.44,0.04 0.12,-0.12 0.12,-0.54 0,-0.66 -1.4,-0.06 -1.74,-0.16 -1.74,-1.82 z"
     style="font-size:20px;line-height:0%;font-family:'Linux Libertine';text-align:center;text-anchor:middle;display:inline;fill:#111111;stroke-width:1.25"
     id="path514" /></g>
    <g
   aria-label="2"
   id="text253"
   style="font-size:20px;line-height:0%;font-family:'Linux Libertine';text-align:center;text-anchor:middle;display:inline;fill:#111111;stroke-width:1.25"
   class="key"><path
     d="m 248.57002,-9.36 c 0,0.42 0.38,0.78 0.8,0.78 0.34,0 0.94,-0.36 0.94,-0.8 0,-0.16 -0.04,-0.28 -0.08,-0.42 -0.04,-0.14 -0.16,-0.32 -0.16,-0.48 0,-0.5 0.52,-1.22 1.98,-1.22 0.72,0 1.74,0.5 1.74,2.42 0,1.28 -0.46,2.32 -1.64,3.52 l -1.48,1.46 c -1.96,2 -2.28,2.96 -2.28,4.14 0,0 1.02,-0.04 1.66,-0.04 h 3.5 c 0.64,0 1.56,0.04 1.56,0.04 0.26,-1.06 0.46,-2.56 0.48,-3.16 -0.12,-0.1 -0.38,-0.14 -0.58,-0.1 -0.34,1.42 -0.68,1.92 -1.4,1.92 h -3.56 c 0,-0.96 1.38,-2.32 1.48,-2.42 l 2.02,-1.94 c 1.14,-1.1 2,-1.98 2,-3.5 0,-2.16 -1.76,-3.04 -3.38,-3.04 -2.22,0 -3.6,1.64 -3.6,2.84 z"
     style="font-size:20px;line-height:0%;font-family:'Linux Libertine';text-align:center;text-anchor:middle;display:inline;fill:#111111;stroke-width:1.25"
     id="path517" /></g>
    <g
   aria-label="3"
   id="text255"
   style="font-size:20px;line-height:0%;font-family:'Linux Libertine';text-align:center;text-anchor:middle;display:inline;fill:#111111;stroke-width:1.25"
   class="key"><path
     d="m 287.65002,-11.5 c 0.86,0 1.66,0.52 1.66,1.8 0,1 -1.16,2.54 -3.14,2.82 l 0.1,0.64 c 0.34,-0.04 0.7,-0.04 0.96,-0.04 1.14,0 2.62,0.32 2.62,2.58 0,2.66 -1.78,3.2 -2.48,3.2 -1.02,0 -1.2,-0.46 -1.44,-0.82 -0.2,-0.28 -0.46,-0.52 -0.86,-0.52 -0.42,0 -0.84,0.38 -0.84,0.7 0,0.8 1.68,1.34 2.88,1.34 2.38,0 4.5,-1.54 4.5,-4.18 0,-2.18 -1.64,-2.96 -2.82,-3.16 l -0.02,-0.04 c 1.64,-0.78 2.1,-1.6 2.1,-2.66 0,-0.6 -0.14,-1.08 -0.62,-1.58 -0.44,-0.44 -1.14,-0.78 -2.18,-0.78 -2.94,0 -3.78,1.92 -3.78,2.58 0,0.28 0.2,0.68 0.68,0.68 0.7,0 0.78,-0.66 0.78,-1.04 0,-1.28 1.38,-1.52 1.9,-1.52 z"
     style="font-size:20px;line-height:0%;font-family:'Linux Libertine';text-align:center;text-anchor:middle;display:inline;fill:#111111;stroke-width:1.25"
     id="path520" /></g>
    <g
   aria-label=";"
   id="text257"
   style="font-size:20px;line-height:0%;font-family:'Linux Libertine';text-align:center;text-anchor:middle;display:inline;fill:#111111;stroke-width:1.25"
   class="key"><path
     d="m 324.10002,-1.9 c -0.62,0 -1.06,0.42 -1.06,0.98 0,0.62 0.52,0.82 0.88,0.88 0.38,0.04 0.72,0.16 0.72,0.62 0,0.42 -0.72,1.34 -1.76,1.6 0,0.2 0.04,0.34 0.18,0.48 1.2,-0.22 2.36,-1.18 2.36,-2.58 0,-1.2 -0.52,-1.98 -1.32,-1.98 z m -1.06,-5.2 c 0,0.58 0.48,1.06 1.06,1.06 0.58,0 1.06,-0.48 1.06,-1.06 0,-0.58 -0.48,-1.06 -1.06,-1.06 -0.58,0 -1.06,0.48 -1.06,1.06 z"
     style="font-size:20px;line-height:0%;font-family:'Linux Libertine';text-align:center;text-anchor:middle;display:inline;fill:#111111;stroke-width:1.25"
     id="path523" /></g>
</g>


<g
   transform="translate(561,26)"
   id="g269">
    <g
   aria-label="≠"
   id="text261"
   style="font-size:20px;line-height:0%;font-family:'Linux Libertine';text-align:center;text-anchor:middle;display:inline;fill:#111111;stroke-width:1.25"
   class="key"><path
     d="m 1.2300148,-7.18 1.32,-3.96 -0.76,-0.2 -1.4,4.16 h -3.96 c -0.24,0 -0.5,0.38 -0.5,0.68 0,0.16 0.12,0.32 0.3,0.32 h 3.82 l -0.78,2.32 h -2.84 c -0.24,0 -0.5,0.38 -0.5,0.68 0,0.16 0.12,0.32 0.3,0.32 h 2.7 l -1.24,3.68 0.76,0.24 1.32,-3.92 h 4.24 c 0.26,0 0.54,-0.46 0.54,-0.66 0,-0.16 -0.08,-0.34 -0.28,-0.34 h -4.16 l 0.78,-2.32 h 3.12 c 0.26,0 0.54,-0.46 0.54,-0.66 0,-0.16 -0.08,-0.34 -0.28,-0.34 z"
     style="font-size:20px;line-height:0%;font-family:'Linux Libertine';text-align:center;text-anchor:middle;display:inline;fill:#111111;stroke-width:1.25"
     id="path526" /></g>
    <g
   aria-label="⁄"
   id="text263"
   style="font-size:20px;line-height:0%;font-family:'Linux Libertine';text-align:center;text-anchor:middle;display:inline;fill:#111111;stroke-width:1.25"
   class="key"><path
     d="m 40.040013,-12.02 -9.16,13.1 h 0.82 l 9.18,-13.1 z"
     style="font-size:20px;line-height:0%;font-family:'Linux Libertine';text-align:center;text-anchor:middle;display:inline;fill:#111111;stroke-width:1.25"
     id="path529" /></g>
    <g
   aria-label="×"
   id="text265"
   style="font-size:20px;line-height:0%;font-family:'Linux Libertine';text-align:center;text-anchor:middle;display:inline;fill:#111111;stroke-width:1.25"
   class="key"><path
     d="m 72.660008,-5.04 2.46,-2.46 -0.7,-0.7 -2.44,2.46 -2.44,-2.46 -0.72,0.7 2.46,2.46 -2.46,2.44 0.72,0.7 2.44,-2.44 2.44,2.44 0.7,-0.7 z"
     style="font-size:20px;line-height:0%;font-family:'Linux Libertine';text-align:center;text-anchor:middle;display:inline;fill:#111111;stroke-width:1.25"
     id="path532" /></g>
    <g
   aria-label="∖"
   id="text267"
   style="font-size:20px;line-height:0%;font-family:'Linux Libertine';text-align:center;text-anchor:middle;display:inline;fill:#111111;stroke-width:1.25"
   class="key"><path
     d="m 112.05001,0 h 1 l -9,-11.46 h -0.98 z"
     style="font-size:20px;line-height:0%;font-family:'Linux Libertine';text-align:center;text-anchor:middle;display:inline;fill:#111111;stroke-width:1.25"
     id="path535" /></g>
</g>
<g
   transform="translate(561,62)"
   id="g277">
    <g
   aria-label="⇱"
   id="text271"
   style="font-size:20px;line-height:0%;font-family:'Linux Libertine';text-align:center;text-anchor:middle;display:inline;fill:#111111;stroke-width:1.25"
   class="key"><path
     d="m 7.3730469,-14.580078 v 0.966797 h -13.59375 V 0 H -7.1875 v -14.580078 z m -11.7285156,3.447265 0.6152343,-0.615234 h 5.4296875 v 1.650391 h -3.2226562 l 8.4179687,8.4179685 -1.171875,1.171875 -8.4179687,-8.4179688 v 3.2226563 h -1.6503906 z"
     style="font-size:20px;line-height:0%;font-family:'Linux Libertine';text-align:center;text-anchor:middle;display:inline;fill:#111111;stroke-width:1.25"
     id="path538" /></g>
    <g
   aria-label="⇡"
   id="text273"
   style="font-size:20px;line-height:0%;font-family:'Linux Libertine';text-align:center;text-anchor:middle;display:inline;fill:#111111;stroke-width:1.25"
   class="key"><path
     d="m 35.560547,-14.648438 h 0.878906 l 3.847656,3.847657 -1.171875,1.1718747 -2.285156,-2.2851567 v 3.6132817 h -1.660156 v -3.6132817 l -2.285156,2.2851567 -1.171875,-1.1718747 z m -0.390625,8.007813 h 1.660156 v 2.4804688 h -1.660156 z m 0,4.140625 h 1.660156 V 0 h -1.660156 z"
     style="font-size:20px;line-height:0%;font-family:'Linux Libertine';text-align:center;text-anchor:middle;display:inline;fill:#111111;stroke-width:1.25"
     id="path541" /></g>
    <g
   aria-label="⇞"
   id="text275"
   style="font-size:20px;line-height:0%;font-family:'Linux Libertine';text-align:center;text-anchor:middle;display:inline;fill:#111111;stroke-width:1.25"
   class="key"><path
     d="m 71.560547,-14.648438 h 0.878906 l 3.828125,3.847657 -1.171875,1.1718747 -2.265625,-2.2851567 v 3.6132817 h 2.890625 v 1.6601563 h -2.890625 v 1.6601563 h 2.890625 v 1.6601562 H 72.830078 V 0 h -1.660156 v -3.3203125 h -2.871094 v -1.6601562 h 2.871094 V -6.640625 h -2.871094 v -1.6601563 h 2.871094 v -3.6132817 l -2.285156,2.2851567 -1.171875,-1.1718747 z"
     style="font-size:20px;line-height:0%;font-family:'Linux Libertine';text-align:center;text-anchor:middle;display:inline;fill:#111111;stroke-width:1.25"
     id="path544" /></g>
</g>
<g
   transform="translate(561,98)"
   id="g285">
    <g
   aria-label="⇠"
   id="text279"
   style="font-size:20px;line-height:0%;font-family:'Linux Libertine';text-align:center;text-anchor:middle;display:inline;fill:#111111;stroke-width:1.25"
   class="key"><path
     d="m -7.4023437,-5.8300781 v -0.8789063 l 3.8378906,-3.8378906 1.171875,1.171875 -2.2753906,2.2753906 h 3.6035156 v 1.6601563 h -3.6035156 l 2.2753906,2.2753906 -1.171875,1.171875 z m 7.99804682,0.390625 V -7.0996094 H 3.0859375 v 1.6601563 z m 4.15039058,0 v -1.6601563 h 2.4902344 v 1.6601563 z"
     style="font-size:20px;line-height:0%;font-family:'Linux Libertine';text-align:center;text-anchor:middle;display:inline;fill:#111111;stroke-width:1.25"
     id="path547" /></g>
    <g
   id="text281"
   class="key"
   style="font-size:20px;font-family:'Linux Libertine';text-align:center;text-anchor:middle;display:inline;fill:#111111;stroke-width:1.25" />
    <g
   aria-label="⇢"
   id="text283"
   style="font-size:20px;line-height:0%;font-family:'Linux Libertine';text-align:center;text-anchor:middle;display:inline;fill:#111111;stroke-width:1.25"
   class="key"><path
     d="m 79.402344,-5.8300781 -3.837891,3.8378906 -1.171875,-1.171875 2.275391,-2.2753906 h -3.603516 v -1.6601563 h 3.603516 L 74.392578,-9.375 l 1.171875,-1.171875 3.837891,3.8378906 z M 68.914062,-7.0996094 h 2.490235 v 1.6601563 h -2.490235 z m -1.660156,0 v 1.6601563 h -2.490234 v -1.6601563 z"
     style="font-size:20px;line-height:0%;font-family:'Linux Libertine';text-align:center;text-anchor:middle;display:inline;fill:#111111;stroke-width:1.25"
     id="path551" /></g>
</g>
<g
   transform="translate(561,134)"
   id="g293">
    <g
   aria-label="⇲"
   id="text287"
   style="font-size:20px;line-height:0%;font-family:'Linux Libertine';text-align:center;text-anchor:middle;display:inline;fill:#111111;stroke-width:1.25"
   class="key"><path
     d="M -7.1875,0 V -0.96679688 H 6.40625 V -14.580078 H 7.3730469 V 0 Z M 4.5410156,-3.4472656 3.9257813,-2.8320313 H -1.5039062 V -4.4824219 H 1.71875 l -8.4179687,-8.4179691 1.171875,-1.171875 8.4179687,8.4179691 v -3.2226562 h 1.6503906 z"
     style="font-size:20px;line-height:0%;font-family:'Linux Libertine';text-align:center;text-anchor:middle;display:inline;fill:#111111;stroke-width:1.25"
     id="path554" /></g>
    <g
   aria-label="⇣"
   id="text289"
   style="font-size:20px;line-height:0%;font-family:'Linux Libertine';text-align:center;text-anchor:middle;display:inline;fill:#111111;stroke-width:1.25"
   class="key"><path
     d="m 35.560547,0.06835937 -3.847656,-3.84765627 1.171875,-1.171875 2.285156,2.2851563 v -3.6132813 h 1.660156 v 3.6132813 l 2.285156,-2.2851563 1.171875,1.171875 -3.847656,3.84765627 z M 35.169922,-7.9394531 v -2.4804689 h 1.660156 v 2.4804689 z m 0,-4.1406249 v -2.5 h 1.660156 v 2.5 z"
     style="font-size:20px;line-height:0%;font-family:'Linux Libertine';text-align:center;text-anchor:middle;display:inline;fill:#111111;stroke-width:1.25"
     id="path557" /></g>
    <g
   aria-label="⇟"
   id="text291"
   style="font-size:20px;line-height:0%;font-family:'Linux Libertine';text-align:center;text-anchor:middle;display:inline;fill:#111111;stroke-width:1.25"
   class="key"><path
     d="m 72.419922,0.06835937 h -0.878906 l -3.828125,-3.84765627 1.171875,-1.171875 2.265625,2.2851563 v -3.6132813 h -2.890625 v -1.6601562 h 2.890625 v -1.6601563 h -2.890625 v -1.6601566 h 2.890625 v -3.320312 h 1.660156 v 3.320312 h 2.871094 v 1.6601566 h -2.871094 v 1.6601563 h 2.871094 v 1.6601562 h -2.871094 v 3.6132813 l 2.285156,-2.2851563 1.171875,1.171875 z"
     style="font-size:20px;line-height:0%;font-family:'Linux Libertine';text-align:center;text-anchor:middle;display:inline;fill:#111111;stroke-width:1.25"
     id="path560" /></g>
</g>
<g
   transform="translate(561,170)"
   id="g299">
    <g
   aria-label="⎀"
   id="text295"
   style="font-size:20px;line-height:0%;font-family:'Linux Libertine';text-align:center;text-anchor:middle;display:inline;fill:#111111;stroke-width:1.25"
   class="key"><path
     d="m 17.750017,-12.46 c -0.7,0 -1.54,0.34 -1.9,0.52 l 0.24,0.86 c 0.58,-0.36 0.9,-0.5 1.58,-0.5 0.76,0 1.3,0.48 1.3,1.22 h -1.06 c -1.22,0 -2.22,0.62 -2.22,1.82 0,1.1 0.64,1.74 1.68,1.74 0.72,0 1.24,-0.16 1.6,-0.46 v 0.38 h 0.96 V -10 c 0,-1.58 -0.66,-2.46 -2.18,-2.46 z m 0.3,11.8 c -0.82,-1.76 -2.58,-4.42 -4.14,-6.46 l -0.72,0.32 c 1.64,2.26 3.2,4.62 4.44,7.04 h 0.84 c 1.08,-2.22 2.72,-4.72 4.34,-6.92 l -0.64,-0.44 c -1.52,2 -3.32,4.76 -4.12,6.46 z m -0.48,-7.06 c -0.52,0 -0.92,-0.3 -0.92,-0.88 0,-0.66 0.7,-0.88 1.58,-0.88 h 0.74 c 0,1.5 -0.88,1.76 -1.4,1.76 z"
     style="font-size:20px;line-height:0%;font-family:'Linux Libertine';text-align:center;text-anchor:middle;display:inline;fill:#111111;stroke-width:1.25"
     id="path563" /></g>
    <g
   aria-label="⌦"
   id="text297"
   style="font-size:20px;line-height:0%;font-family:'Linux Libertine';text-align:center;text-anchor:middle;display:inline;fill:#111111;stroke-width:1.25"
   class="key"><path
     d="m 75.780014,-8.58 h -11.06 V 0 h 11.06 c 1.54,-1.64 3.12,-3.04 4.38,-3.92 v -0.76 c -1.42,-1 -2.88,-2.3 -4.38,-3.9 z m -1.66,0.68 h 1.32 c 1.16,1.34 2.1,2.2 3.74,3.6 -1.6,1.36 -2.54,2.28 -3.72,3.62 h -1.36 l -3.02,-3.6 z m -7.02,7.22 h -1.58 V -7.9 h 1.54 l 3.06,3.62 z m 6.06,-7.22 -2.56,3.04 -2.58,-3.04 z m -5.1,7.22 2.54,-3.04 2.54,3.04 z"
     style="font-size:20px;line-height:0%;font-family:'Linux Libertine';text-align:center;text-anchor:middle;display:inline;fill:#111111;stroke-width:1.25"
     id="path566" /></g>
</g>

<g
   transform="translate(561,78)"
   id="g303">
    <g
   aria-label="∓"
   id="text301"
   style="font-size:20px;line-height:0%;font-family:'Linux Libertine';text-align:center;text-anchor:middle;display:inline;fill:#111111;stroke-width:1.25"
   class="key"><path
     d="M 108.50001,-0.62 V -3.8 h 3.3 c 0.24,0 0.5,-0.38 0.5,-0.68 0,-0.16 -0.12,-0.32 -0.3,-0.32 h -3.5 v -3.4 c 0,-0.18 -0.16,-0.3 -0.32,-0.3 -0.3,0 -0.68,0.26 -0.68,0.5 v 3.2 h -3.26 c -0.26,0 -0.54,0.46 -0.54,0.66 0,0.16 0.08,0.34 0.28,0.34 h 3.52 v 3.44 c 0,0.2 0.18,0.28 0.34,0.28 0.2,0 0.66,-0.28 0.66,-0.54 z m -4.26,-9.66 c -0.26,0 -0.54,0.46 -0.54,0.66 0,0.16 0.08,0.34 0.28,0.34 h 7.82 c 0.24,0 0.5,-0.38 0.5,-0.68 0,-0.16 -0.12,-0.32 -0.3,-0.32 z"
     style="font-size:20px;line-height:0%;font-family:'Linux Libertine';text-align:center;text-anchor:middle;display:inline;fill:#111111;stroke-width:1.25"
     id="path569" /></g>
</g>
<g
   transform="translate(561,150)"
   id="g307">
    <g
   aria-label="⏎"
   id="text305"
   style="font-size:20px;line-height:0%;font-family:'Linux Libertine';text-align:center;text-anchor:middle;display:inline;fill:#111111;stroke-width:1.25"
   class="key"><path
     d="m 110.62002,-14 v 5.24 h -6.06 v -3.48 l -5.960001,5.98 5.960001,5.96 v -3.48 h 10.24 c 0.6,0 1,-0.4 1,-1 V -14 c 0,-0.6 -0.4,-1 -1,-1 h -3.18 c -0.6,0 -1,0.4 -1,1 z m 4.26,-0.12 v 9.46 h -11.22 v 2.22 l -3.780001,-3.82 3.780001,-3.82 v 2.22 h 7.86 v -6.26 z"
     style="font-size:20px;line-height:0%;font-family:'Linux Libertine';text-align:center;text-anchor:middle;display:inline;fill:#111111;stroke-width:1.25"
     id="path572" /></g>
</g>

<g
   aria-label="◌̇"
   id="t1"
   style="font-size:20px;line-height:0%;font-family:'Gentium Plus Compact';text-align:center;text-anchor:middle;display:inline;fill:#111111"
   class="dead"><path
     d="m 18.886719,17.640625 q 0.03906,0.07813 0.03906,0.185547 0,0.185547 -0.126953,0.332031 -0.117187,0.136719 -0.3125,0.136719 -0.185547,0 -0.341797,-0.126953 -0.146484,-0.136719 -0.146484,-0.341797 0,-0.175781 0.136719,-0.322266 0.146484,-0.146484 0.341796,-0.146484 0.292969,0 0.410157,0.283203 z m 3.076172,7.412109 q 0.03906,0.117188 0.03906,0.175782 0,0.175781 -0.136719,0.322265 -0.136718,0.146485 -0.332031,0.146485 -0.175781,0 -0.322266,-0.136719 -0.146484,-0.136719 -0.146484,-0.341797 0,-0.166016 0.126953,-0.3125 0.126953,-0.146484 0.3125,-0.146484 0.3125,0 0.458985,0.292968 z m -4.482422,-6.689453 q 0.146484,0.126953 0.146484,0.322266 0,0.46875 -0.458984,0.46875 -0.195313,0 -0.332032,-0.126953 -0.136718,-0.136719 -0.136718,-0.322266 0,-0.195312 0.136718,-0.332031 0.136719,-0.146485 0.322266,-0.146485 0.185547,0 0.322266,0.136719 z m 5.683593,5.664063 q 0.136719,0.136718 0.136719,0.332031 0,0.185547 -0.136719,0.322266 -0.126953,0.136718 -0.332031,0.136718 -0.195312,0 -0.332031,-0.136718 -0.136719,-0.136719 -0.136719,-0.322266 0,-0.195313 0.126953,-0.322266 0.136719,-0.136718 0.322266,-0.136718 0.195312,0 0.351562,0.126953 z m -6.699218,-4.462891 q 0.302734,0.126953 0.302734,0.449219 0,0.185547 -0.15625,0.322265 -0.146484,0.126954 -0.322266,0.126954 -0.205078,0 -0.332031,-0.146485 -0.126953,-0.146484 -0.126953,-0.322265 0,-0.195313 0.136719,-0.332032 0.146484,-0.136718 0.322265,-0.136718 0.05859,0 0.175782,0.03906 z m 7.412109,3.066406 q 0.292969,0.126953 0.292969,0.429688 0,0.195312 -0.146485,0.332031 -0.136718,0.126953 -0.322265,0.126953 -0.214844,0 -0.341797,-0.136719 -0.126953,-0.146484 -0.126953,-0.322265 0,-0.22461 0.146484,-0.341797 0.15625,-0.117188 0.332031,-0.117188 0.09766,0 0.166016,0.0293 z m -7.890625,-1.5625 q 0.185547,0 0.332031,0.136719 0.146485,0.126953 0.146485,0.3125 0,0.195313 -0.146485,0.341797 -0.146484,0.136719 -0.322265,0.136719 h -0.01953 q -0.185547,0 -0.322266,-0.136719 -0.126953,-0.146484 -0.126953,-0.332031 0,-0.195313 0.126953,-0.322266 0.136719,-0.136719 0.332031,-0.136719 z m 8.017578,-0.0098 q 0.195313,0 0.332031,0.136718 0.136719,0.136719 0.136719,0.332032 0,0.185547 -0.136719,0.322265 -0.126953,0.136719 -0.322265,0.136719 h -0.03906 q -0.175781,0 -0.3125,-0.136719 -0.126953,-0.136718 -0.126953,-0.3125 0,-0.195312 0.146485,-0.332031 0.146484,-0.136719 0.322265,-0.146484 z m -7.890625,1.582031 q 0.07813,-0.03906 0.185547,-0.03906 0.195313,0 0.332031,0.126954 0.136719,0.126953 0.136719,0.322265 0,0.185547 -0.136719,0.332031 -0.136718,0.146485 -0.332031,0.146485 -0.185547,0 -0.332031,-0.136719 -0.136719,-0.146484 -0.136719,-0.341797 0,-0.302734 0.283203,-0.410156 z m 7.41211,-3.076172 q 0.117187,-0.03906 0.175781,-0.03906 0.175781,0 0.322265,0.136718 0.146485,0.136719 0.146485,0.332032 0,0.175781 -0.136719,0.322265 -0.136719,0.146485 -0.341797,0.146485 -0.175781,0 -0.3125,-0.136719 -0.136719,-0.136719 -0.136719,-0.322266 0,-0.3125 0.283204,-0.439453 z m -6.689454,4.482422 q 0.146485,-0.146484 0.3125,-0.146484 0.205079,0 0.341797,0.136718 0.136719,0.126953 0.136719,0.322266 0,0.185547 -0.136719,0.332031 -0.126953,0.136719 -0.322265,0.136719 -0.185547,0 -0.332032,-0.136719 -0.136718,-0.146484 -0.136718,-0.332031 0,-0.175781 0.136718,-0.3125 z M 22.5,18.363281 q 0.15625,-0.136719 0.332031,-0.136719 0.195313,0 0.322266,0.136719 0.136719,0.136719 0.136719,0.332031 0,0.185547 -0.136719,0.332032 -0.126953,0.136718 -0.322266,0.136718 -0.185547,0 -0.322265,-0.146484 -0.136719,-0.146484 -0.136719,-0.322266 0,-0.185546 0.126953,-0.332031 z M 18.037109,25.0625 q 0.05859,-0.136719 0.185547,-0.214844 0.136719,-0.07813 0.253906,-0.07813 0.195313,0 0.322266,0.146485 0.136719,0.146484 0.136719,0.322265 0,0.195313 -0.146485,0.332031 -0.146484,0.126954 -0.322265,0.126954 -0.185547,0 -0.332031,-0.146485 -0.136719,-0.146484 -0.136719,-0.3125 0,-0.05859 0.03906,-0.175781 z m 3.066407,-7.412109 q 0.126953,-0.292969 0.429687,-0.292969 0.195313,0 0.332031,0.146484 0.136719,0.146485 0.136719,0.332031 0,0.195313 -0.146484,0.332032 -0.146485,0.126953 -0.322266,0.126953 -0.195312,0 -0.332031,-0.146485 -0.126953,-0.15625 -0.126953,-0.332031 0,-0.07813 0.0293,-0.166015 z m -1.5625,7.890625 q 0,-0.195313 0.136718,-0.332032 Q 19.814453,25.072266 20,25.072266 q 0.195312,0 0.332031,0.136718 0.136719,0.136719 0.136719,0.332032 0,0.185546 -0.136719,0.322265 Q 20.195312,26 20,26 19.814453,26 19.677734,25.863281 19.541016,25.726562 19.541016,25.541016 Z m 0,-8.017579 q 0,-0.195312 0.136718,-0.332031 Q 19.814453,17.054687 20,17.054687 q 0.195312,0 0.332031,0.136719 0.136719,0.136719 0.136719,0.332031 0,0.185547 -0.136719,0.322266 Q 20.195312,17.982422 20,17.982422 q -0.185547,0 -0.322266,-0.136719 -0.136718,-0.136719 -0.136718,-0.322266 z"
     style="font-size:20px;line-height:0%;font-family:'Gentium Plus Compact';text-align:center;text-anchor:middle;display:inline;fill:#111111"
     id="path575" /><path
     d="m 21.152344,13.685547 q 0,0.546875 -0.322266,0.947266 -0.322266,0.390625 -0.810547,0.390625 -0.820312,0 -0.820312,-0.9375 0,-0.556641 0.332031,-0.9375 0.332031,-0.390625 0.791016,-0.390625 0.830078,0 0.830078,0.927734 z"
     style="font-size:20px;line-height:0%;font-family:'Gentium Plus Compact';text-align:center;text-anchor:middle;display:inline;fill:#111111"
     id="path577" /></g>
<g
   aria-label="◌̈"
   id="t2"
   style="font-size:20px;line-height:0%;font-family:'Gentium Plus Compact';text-align:center;text-anchor:middle;display:inline;fill:#111111"
   class="dead"><path
     d="m 450.88672,17.640625 q 0.0391,0.07813 0.0391,0.185547 0,0.185547 -0.12695,0.332031 -0.11719,0.136719 -0.3125,0.136719 -0.18555,0 -0.3418,-0.126953 -0.14648,-0.136719 -0.14648,-0.341797 0,-0.175781 0.13672,-0.322266 0.14648,-0.146484 0.34179,-0.146484 0.29297,0 0.41016,0.283203 z m 3.07617,7.412109 q 0.0391,0.117188 0.0391,0.175782 0,0.175781 -0.13672,0.322265 -0.13671,0.146485 -0.33203,0.146485 -0.17578,0 -0.32226,-0.136719 -0.14649,-0.136719 -0.14649,-0.341797 0,-0.166016 0.12696,-0.3125 0.12695,-0.146484 0.3125,-0.146484 0.3125,0 0.45898,0.292968 z m -4.48242,-6.689453 q 0.14648,0.126953 0.14648,0.322266 0,0.46875 -0.45898,0.46875 -0.19531,0 -0.33203,-0.126953 -0.13672,-0.136719 -0.13672,-0.322266 0,-0.195312 0.13672,-0.332031 0.13672,-0.146485 0.32226,-0.146485 0.18555,0 0.32227,0.136719 z m 5.68359,5.664063 q 0.13672,0.136718 0.13672,0.332031 0,0.185547 -0.13672,0.322266 -0.12695,0.136718 -0.33203,0.136718 -0.19531,0 -0.33203,-0.136718 -0.13672,-0.136719 -0.13672,-0.322266 0,-0.195313 0.12695,-0.322266 0.13672,-0.136718 0.32227,-0.136718 0.19531,0 0.35156,0.126953 z m -6.69922,-4.462891 q 0.30274,0.126953 0.30274,0.449219 0,0.185547 -0.15625,0.322265 -0.14649,0.126954 -0.32227,0.126954 -0.20508,0 -0.33203,-0.146485 -0.12695,-0.146484 -0.12695,-0.322265 0,-0.195313 0.13672,-0.332032 0.14648,-0.136718 0.32226,-0.136718 0.0586,0 0.17578,0.03906 z m 7.41211,3.066406 q 0.29297,0.126953 0.29297,0.429688 0,0.195312 -0.14648,0.332031 -0.13672,0.126953 -0.32227,0.126953 -0.21484,0 -0.3418,-0.136719 -0.12695,-0.146484 -0.12695,-0.322265 0,-0.22461 0.14649,-0.341797 0.15625,-0.117188 0.33203,-0.117188 0.0976,0 0.16601,0.0293 z m -7.89062,-1.5625 q 0.18554,0 0.33203,0.136719 0.14648,0.126953 0.14648,0.3125 0,0.195313 -0.14648,0.341797 -0.14649,0.136719 -0.32227,0.136719 h -0.0195 q -0.18554,0 -0.32226,-0.136719 -0.12696,-0.146484 -0.12696,-0.332031 0,-0.195313 0.12696,-0.322266 0.13672,-0.136719 0.33203,-0.136719 z m 8.01758,-0.0098 q 0.19531,0 0.33203,0.136718 0.13672,0.136719 0.13672,0.332032 0,0.185547 -0.13672,0.322265 -0.12696,0.136719 -0.32227,0.136719 h -0.0391 q -0.17578,0 -0.3125,-0.136719 -0.12695,-0.136718 -0.12695,-0.3125 0,-0.195312 0.14648,-0.332031 0.14648,-0.136719 0.32227,-0.146484 z m -7.89063,1.582031 q 0.0781,-0.03906 0.18555,-0.03906 0.19531,0 0.33203,0.126954 0.13672,0.126953 0.13672,0.322265 0,0.185547 -0.13672,0.332031 -0.13672,0.146485 -0.33203,0.146485 -0.18555,0 -0.33203,-0.136719 -0.13672,-0.146484 -0.13672,-0.341797 0,-0.302734 0.2832,-0.410156 z m 7.41211,-3.076172 q 0.11719,-0.03906 0.17578,-0.03906 0.17578,0 0.32227,0.136718 0.14648,0.136719 0.14648,0.332032 0,0.175781 -0.13672,0.322265 -0.13672,0.146485 -0.34179,0.146485 -0.17579,0 -0.3125,-0.136719 -0.13672,-0.136719 -0.13672,-0.322266 0,-0.3125 0.2832,-0.439453 z m -6.68945,4.482422 q 0.14648,-0.146484 0.3125,-0.146484 0.20508,0 0.34179,0.136718 0.13672,0.126953 0.13672,0.322266 0,0.185547 -0.13672,0.332031 -0.12695,0.136719 -0.32226,0.136719 -0.18555,0 -0.33203,-0.136719 -0.13672,-0.146484 -0.13672,-0.332031 0,-0.175781 0.13672,-0.3125 z M 454.5,18.363281 q 0.15625,-0.136719 0.33203,-0.136719 0.19531,0 0.32227,0.136719 0.13672,0.136719 0.13672,0.332031 0,0.185547 -0.13672,0.332032 -0.12696,0.136718 -0.32227,0.136718 -0.18555,0 -0.32226,-0.146484 -0.13672,-0.146484 -0.13672,-0.322266 0,-0.185546 0.12695,-0.332031 z m -4.46289,6.699219 q 0.0586,-0.136719 0.18555,-0.214844 0.13671,-0.07813 0.2539,-0.07813 0.19531,0 0.32227,0.146485 0.13672,0.146484 0.13672,0.322265 0,0.195313 -0.14649,0.332031 -0.14648,0.126954 -0.32226,0.126954 -0.18555,0 -0.33203,-0.146485 -0.13672,-0.146484 -0.13672,-0.3125 0,-0.05859 0.0391,-0.175781 z m 3.06641,-7.412109 q 0.12695,-0.292969 0.42968,-0.292969 0.19532,0 0.33203,0.146484 0.13672,0.146485 0.13672,0.332031 0,0.195313 -0.14648,0.332032 -0.14649,0.126953 -0.32227,0.126953 -0.19531,0 -0.33203,-0.146485 -0.12695,-0.15625 -0.12695,-0.332031 0,-0.07813 0.0293,-0.166015 z m -1.5625,7.890625 q 0,-0.195313 0.13671,-0.332032 0.13672,-0.136718 0.32227,-0.136718 0.19531,0 0.33203,0.136718 0.13672,0.136719 0.13672,0.332032 0,0.185546 -0.13672,0.322265 Q 452.19531,26 452,26 q -0.18555,0 -0.32227,-0.136719 -0.13671,-0.136719 -0.13671,-0.322265 z m 0,-8.017579 q 0,-0.195312 0.13671,-0.332031 0.13672,-0.136719 0.32227,-0.136719 0.19531,0 0.33203,0.136719 0.13672,0.136719 0.13672,0.332031 0,0.185547 -0.13672,0.322266 -0.13672,0.136719 -0.33203,0.136719 -0.18555,0 -0.32227,-0.136719 -0.13671,-0.136719 -0.13671,-0.322266 z"
     style="font-size:20px;line-height:0%;font-family:'Gentium Plus Compact';text-align:center;text-anchor:middle;display:inline;fill:#111111"
     id="path580" /><path
     d="m 451.19922,13.685547 q 0,0.546875 -0.32227,0.947266 -0.32226,0.390625 -0.81054,0.390625 -0.82032,0 -0.82032,-0.9375 0,-0.556641 0.33203,-0.9375 0.33204,-0.390625 0.79102,-0.390625 0.83008,0 0.83008,0.927734 z m 3.90625,0 q 0,0.546875 -0.32227,0.947266 -0.32226,0.390625 -0.81054,0.390625 -0.82032,0 -0.82032,-0.9375 0,-0.556641 0.33203,-0.9375 0.33204,-0.390625 0.79102,-0.390625 0.83008,0 0.83008,0.927734 z"
     style="font-size:20px;line-height:0%;font-family:'Gentium Plus Compact';text-align:center;text-anchor:middle;display:inline;fill:#111111"
     id="path582" /></g>

<g
   aria-label="◌̋"
   id="t3"
   style="font-size:20px;line-height:0%;font-family:'Gentium Plus Compact';text-align:center;text-anchor:middle;display:inline;fill:#111111"
   class="dead"><path
     d="m 468.88672,53.640625 q 0.0391,0.07813 0.0391,0.185547 0,0.185547 -0.12695,0.332031 -0.11719,0.136719 -0.3125,0.136719 -0.18555,0 -0.3418,-0.126953 -0.14648,-0.136719 -0.14648,-0.341797 0,-0.175781 0.13672,-0.322266 0.14648,-0.146484 0.34179,-0.146484 0.29297,0 0.41016,0.283203 z m 3.07617,7.412109 q 0.0391,0.117188 0.0391,0.175782 0,0.175781 -0.13672,0.322265 -0.13671,0.146485 -0.33203,0.146485 -0.17578,0 -0.32226,-0.136719 -0.14649,-0.136719 -0.14649,-0.341797 0,-0.166016 0.12696,-0.3125 0.12695,-0.146484 0.3125,-0.146484 0.3125,0 0.45898,0.292968 z m -4.48242,-6.689453 q 0.14648,0.126953 0.14648,0.322266 0,0.46875 -0.45898,0.46875 -0.19531,0 -0.33203,-0.126953 -0.13672,-0.136719 -0.13672,-0.322266 0,-0.195312 0.13672,-0.332031 0.13672,-0.146485 0.32226,-0.146485 0.18555,0 0.32227,0.136719 z m 5.68359,5.664063 q 0.13672,0.136718 0.13672,0.332031 0,0.185547 -0.13672,0.322266 -0.12695,0.136718 -0.33203,0.136718 -0.19531,0 -0.33203,-0.136718 -0.13672,-0.136719 -0.13672,-0.322266 0,-0.195313 0.12695,-0.322266 0.13672,-0.136718 0.32227,-0.136718 0.19531,0 0.35156,0.126953 z m -6.69922,-4.462891 q 0.30274,0.126953 0.30274,0.449219 0,0.185547 -0.15625,0.322265 -0.14649,0.126954 -0.32227,0.126954 -0.20508,0 -0.33203,-0.146485 -0.12695,-0.146484 -0.12695,-0.322265 0,-0.195313 0.13672,-0.332032 0.14648,-0.136718 0.32226,-0.136718 0.0586,0 0.17578,0.03906 z m 7.41211,3.066406 q 0.29297,0.126953 0.29297,0.429688 0,0.195312 -0.14648,0.332031 -0.13672,0.126953 -0.32227,0.126953 -0.21484,0 -0.3418,-0.136719 -0.12695,-0.146484 -0.12695,-0.322265 0,-0.22461 0.14649,-0.341797 0.15625,-0.117188 0.33203,-0.117188 0.0976,0 0.16601,0.0293 z m -7.89062,-1.5625 q 0.18554,0 0.33203,0.136719 0.14648,0.126953 0.14648,0.3125 0,0.195313 -0.14648,0.341797 -0.14649,0.136719 -0.32227,0.136719 h -0.0195 q -0.18554,0 -0.32226,-0.136719 -0.12696,-0.146484 -0.12696,-0.332031 0,-0.195313 0.12696,-0.322266 0.13672,-0.136719 0.33203,-0.136719 z m 8.01758,-0.0098 q 0.19531,0 0.33203,0.136718 0.13672,0.136719 0.13672,0.332032 0,0.185547 -0.13672,0.322265 -0.12696,0.136719 -0.32227,0.136719 h -0.0391 q -0.17578,0 -0.3125,-0.136719 -0.12695,-0.136718 -0.12695,-0.3125 0,-0.195312 0.14648,-0.332031 0.14648,-0.136719 0.32227,-0.146484 z m -7.89063,1.582031 q 0.0781,-0.03906 0.18555,-0.03906 0.19531,0 0.33203,0.126954 0.13672,0.126953 0.13672,0.322265 0,0.185547 -0.13672,0.332031 -0.13672,0.146485 -0.33203,0.146485 -0.18555,0 -0.33203,-0.136719 -0.13672,-0.146484 -0.13672,-0.341797 0,-0.302734 0.2832,-0.410156 z m 7.41211,-3.076172 q 0.11719,-0.03906 0.17578,-0.03906 0.17578,0 0.32227,0.136718 0.14648,0.136719 0.14648,0.332032 0,0.175781 -0.13672,0.322265 -0.13672,0.146485 -0.34179,0.146485 -0.17579,0 -0.3125,-0.136719 -0.13672,-0.136719 -0.13672,-0.322266 0,-0.3125 0.2832,-0.439453 z m -6.68945,4.482422 q 0.14648,-0.146484 0.3125,-0.146484 0.20508,0 0.34179,0.136718 0.13672,0.126953 0.13672,0.322266 0,0.185547 -0.13672,0.332031 -0.12695,0.136719 -0.32226,0.136719 -0.18555,0 -0.33203,-0.136719 -0.13672,-0.146484 -0.13672,-0.332031 0,-0.175781 0.13672,-0.3125 z M 472.5,54.363281 q 0.15625,-0.136719 0.33203,-0.136719 0.19531,0 0.32227,0.136719 0.13672,0.136719 0.13672,0.332031 0,0.185547 -0.13672,0.332032 -0.12696,0.136718 -0.32227,0.136718 -0.18555,0 -0.32226,-0.146484 -0.13672,-0.146484 -0.13672,-0.322266 0,-0.185546 0.12695,-0.332031 z m -4.46289,6.699219 q 0.0586,-0.136719 0.18555,-0.214844 0.13671,-0.07813 0.2539,-0.07813 0.19531,0 0.32227,0.146485 0.13672,0.146484 0.13672,0.322265 0,0.195313 -0.14649,0.332031 -0.14648,0.126954 -0.32226,0.126954 -0.18555,0 -0.33203,-0.146485 -0.13672,-0.146484 -0.13672,-0.3125 0,-0.05859 0.0391,-0.175781 z m 3.06641,-7.412109 q 0.12695,-0.292969 0.42968,-0.292969 0.19532,0 0.33203,0.146484 0.13672,0.146485 0.13672,0.332031 0,0.195313 -0.14648,0.332032 -0.14649,0.126953 -0.32227,0.126953 -0.19531,0 -0.33203,-0.146485 -0.12695,-0.15625 -0.12695,-0.332031 0,-0.07813 0.0293,-0.166015 z m -1.5625,7.890625 q 0,-0.195313 0.13671,-0.332032 0.13672,-0.136718 0.32227,-0.136718 0.19531,0 0.33203,0.136718 0.13672,0.136719 0.13672,0.332032 0,0.185546 -0.13672,0.322265 Q 470.19531,62 470,62 q -0.18555,0 -0.32227,-0.136719 -0.13671,-0.136719 -0.13671,-0.322265 z m 0,-8.017579 q 0,-0.195312 0.13671,-0.332031 0.13672,-0.136719 0.32227,-0.136719 0.19531,0 0.33203,0.136719 0.13672,0.136719 0.13672,0.332031 0,0.185547 -0.13672,0.322266 -0.13672,0.136719 -0.33203,0.136719 -0.18555,0 -0.32227,-0.136719 -0.13671,-0.136719 -0.13671,-0.322266 z"
     style="font-size:20px;line-height:0%;font-family:'Gentium Plus Compact';text-align:center;text-anchor:middle;display:inline;fill:#111111"
     id="path585" /><path
     d="m 471.57227,51.775391 q -0.18555,-0.03906 -0.28321,-0.08789 -0.0976,-0.05859 -0.27344,-0.175781 l 1.71875,-4.052735 q 0.24415,0.0293 0.59571,0.09766 0.35156,0.06836 0.5664,0.146484 l 0.21485,0.400391 z m -2.8418,0 q -0.15625,-0.03906 -0.25391,-0.08789 -0.10742,-0.05859 -0.30273,-0.175781 l 1.71875,-4.052735 q 0.24414,0.0293 0.60547,0.09766 0.36132,0.06836 0.55664,0.146484 l 0.21484,0.400391 z"
     style="font-size:20px;line-height:0%;font-family:'Gentium Plus Compact';text-align:center;text-anchor:middle;display:inline;fill:#111111"
     id="path587" /></g>

</svg>
