<?xml version="1.0" encoding="UTF-8" standalone="no"?>
<svg
   version="1.1"
   id="Ebene_1"
   height="183"
   width="690"
   viewBox="0 0 690 183"
   enable-background="new 0 0 690 183"
   xml:space="preserve"
   inkscape:version="0.48.5 r10040"
   sodipodi:docname="neo-3-numpad.svg"
   inkscape:export-xdpi="90"
   inkscape:export-ydpi="90"
   xmlns:inkscape="http://www.inkscape.org/namespaces/inkscape"
   xmlns:sodipodi="http://sodipodi.sourceforge.net/DTD/sodipodi-0.dtd"
   xmlns:xlink="http://www.w3.org/1999/xlink"
   xmlns="http://www.w3.org/2000/svg"
   xmlns:svg="http://www.w3.org/2000/svg"
   xmlns:rdf="http://www.w3.org/1999/02/22-rdf-syntax-ns#"
   xmlns:cc="http://creativecommons.org/ns#"
   xmlns:dc="http://purl.org/dc/elements/1.1/">

  <metadata
   id="metadata135">
    <rdf:RDF>
      <cc:Work
   rdf:about="">
        <dc:format>image/svg+xml</dc:format>
        <dc:type
   rdf:resource="http://purl.org/dc/dcmitype/StillImage" />
        <dc:title />
      </cc:Work>
    </rdf:RDF>
  </metadata>

<defs
   id="defs">
<style
   type="text/css"
   id="style46661">
text.mod, text.key, text.dead {
	fill:#111;
	fill-opacity:1;
    stroke:none;
    font-style:normal;
    font-variant:normal;
    font-weight:normal;
    font-stretch:normal;
    display:inline;
    font-family:DejaVu Sans;
    writing-mode:lr-tb;
}

text.key {
    font-family:Linux Libertine;
}

text.dead {
    font-family: Gentium Plus Compact; 
}

text.mod {
    text-align:start;
    text-anchor:start;
}

text.space, text.dead, text.center, text.key {
    text-align:center;
    text-anchor:middle;
}

text.key { font-size:20px; }
text.dead { font-size:20px; }
text.mod { font-size:10px; }
text.big { font-size:14px; }

.key {
stroke-width:1.25;
}

.grey { fill:#949494; stroke:#696969; }
.grey { fill:#9f9f9f; stroke:#747474; }

.numpad { fill:#afaa9f; stroke:#747474; }

/* bootstrap colors */
.l5, .r5 { fill:#93CCEA; }
.l4, .r4 { fill:#7abeb3; }
.l3, .r3 { fill:#63b280; }
.l2, .r2 { fill:#4aa44a; }

/* btn bg hover, unused */
.l2, .r2 { stroke:#3071a9; }
.l3, .r3 { stroke:#449d44; }
.l4, .r4 { stroke:#c9302c; }
.l5, .r5 { stroke:#ec971f; }

/* btn border hover */
.l2, .r2 { stroke:#204d74; }
.l3, .r3 { stroke:#204d74; }
.l4, .r4 { stroke:#204d74; }
.l5, .r5 { stroke:#204d74; }

text.nubkey { fill:#eee; }

.pressed {
	<!--opacity:0.5;-->
	fill:#777;
}
    </style>

    <g
   id="basekey">
        <rect
   width="32"
   height="32"
   rx="4"
   class="key"
   id="rect4" />
	<!--rect width="20" height="20" x="6" y="6" /-->
        <!--rect width="2" height="2" fill="#000" x="15" y="15" /-->
    </g>

    </defs>
<sodipodi:namedview
   pagecolor="#ffffff"
   bordercolor="#666666"
   borderopacity="1"
   objecttolerance="10"
   gridtolerance="10"
   guidetolerance="10"
   inkscape:pageopacity="0"
   inkscape:pageshadow="2"
   inkscape:window-width="1614"
   inkscape:window-height="969"
   id="base"
   showgrid="false"
   inkscape:zoom="0.70961538"
   inkscape:cx="685.32105"
   inkscape:cy="241.15395"
   inkscape:window-x="78"
   inkscape:window-y="71"
   inkscape:window-maximized="0"
   inkscape:current-layer="Ebene_1"
   inkscape:pagecheckerboard="0" />

<g
   transform="translate(3.5,3.5)"
   id="g148">
<use
   xlink:href="#basekey"
   y="0"
   x="0"
   class="l5"
   id="use9"
   width="100%"
   height="100%" />
<use
   xlink:href="#basekey"
   y="0"
   x="36"
   class="l5"
   id="use11"
   width="100%"
   height="100%" />
<use
   xlink:href="#basekey"
   y="0"
   x="72"
   class="l5"
   id="use13"
   width="100%"
   height="100%" />
<use
   xlink:href="#basekey"
   y="0"
   x="108"
   class="l4"
   id="use15"
   width="100%"
   height="100%" />
<use
   xlink:href="#basekey"
   y="0"
   x="144"
   class="l3"
   id="use17"
   width="100%"
   height="100%" />
<use
   xlink:href="#basekey"
   y="0"
   x="180"
   class="l2"
   id="use19"
   width="100%"
   height="100%" />
<use
   xlink:href="#basekey"
   y="0"
   x="216"
   class="l2"
   id="use21"
   width="100%"
   height="100%" />

<use
   xlink:href="#basekey"
   y="0"
   x="252"
   class="r2"
   id="use23"
   width="100%"
   height="100%" />
<use
   xlink:href="#basekey"
   y="0"
   x="288"
   class="r2"
   id="use25"
   width="100%"
   height="100%" />
<use
   xlink:href="#basekey"
   y="0"
   x="324"
   class="r3"
   id="use27"
   width="100%"
   height="100%" />
<use
   xlink:href="#basekey"
   y="0"
   x="360"
   class="r4"
   id="use29"
   width="100%"
   height="100%" />
<use
   xlink:href="#basekey"
   y="0"
   x="396"
   class="r5"
   id="use31"
   width="100%"
   height="100%" />
<use
   xlink:href="#basekey"
   y="0"
   x="432"
   class="r5"
   id="use33"
   width="100%"
   height="100%" />


<use
   xlink:href="#basekey"
   y="36"
   x="54"
   class="l5"
   id="use35"
   width="100%"
   height="100%" />
<use
   xlink:href="#basekey"
   y="36"
   x="90"
   class="l4"
   id="use37"
   width="100%"
   height="100%" />
<use
   xlink:href="#basekey"
   y="36"
   x="126"
   class="l3"
   id="use39"
   width="100%"
   height="100%" />
<use
   xlink:href="#basekey"
   y="36"
   x="162"
   class="l2"
   id="use41"
   width="100%"
   height="100%" />
<use
   xlink:href="#basekey"
   y="36"
   x="198"
   class="l2"
   id="use43"
   width="100%"
   height="100%" />

<use
   xlink:href="#basekey"
   y="36"
   x="234"
   class="r2"
   id="use45"
   width="100%"
   height="100%" />
<use
   xlink:href="#basekey"
   y="36"
   x="270"
   class="r2"
   id="use47"
   width="100%"
   height="100%" />
<use
   xlink:href="#basekey"
   y="36"
   x="306"
   class="r3"
   id="use49"
   width="100%"
   height="100%" />
<use
   xlink:href="#basekey"
   y="36"
   x="342"
   class="r4"
   id="use51"
   width="100%"
   height="100%" />
<use
   xlink:href="#basekey"
   y="36"
   x="378"
   class="r5"
   id="use53"
   width="100%"
   height="100%" />
<use
   xlink:href="#basekey"
   y="36"
   x="414"
   class="r5"
   id="use55"
   width="100%"
   height="100%" />
<use
   xlink:href="#basekey"
   y="36"
   x="450"
   class="r5"
   id="use57"
   width="100%"
   height="100%" />


<use
   xlink:href="#basekey"
   y="72"
   x="64"
   class="l5"
   id="use59"
   width="100%"
   height="100%" />
<use
   xlink:href="#basekey"
   y="72"
   x="100"
   class="l4"
   id="use61"
   width="100%"
   height="100%" />
<use
   xlink:href="#basekey"
   y="72"
   x="136"
   class="l3"
   id="use63"
   width="100%"
   height="100%" />
<use
   xlink:href="#basekey"
   y="72"
   x="172"
   class="l2"
   id="use65"
   width="100%"
   height="100%" />
<use
   xlink:href="#basekey"
   y="72"
   x="208"
   class="l2"
   id="use67"
   width="100%"
   height="100%" />

<use
   xlink:href="#basekey"
   y="72"
   x="244"
   class="r2"
   id="use69"
   width="100%"
   height="100%" />
<use
   xlink:href="#basekey"
   y="72"
   x="280"
   class="r2"
   id="use71"
   width="100%"
   height="100%" />
<use
   xlink:href="#basekey"
   y="72"
   x="316"
   class="r3"
   id="use73"
   width="100%"
   height="100%" />
<use
   xlink:href="#basekey"
   y="72"
   x="352"
   class="r4"
   id="use75"
   width="100%"
   height="100%" />
<use
   xlink:href="#basekey"
   y="72"
   x="388"
   class="r5"
   id="use77"
   width="100%"
   height="100%" />

    <use
   xlink:href="#basekey"
   y="72"
   x="424"
   class="r5"
   id="use79"
   width="100%"
   height="100%" />



<use
   xlink:href="#basekey"
   y="108"
   x="82"
   class="l5"
   id="use81"
   width="100%"
   height="100%" />
<use
   xlink:href="#basekey"
   y="108"
   x="118"
   class="l4"
   id="use83"
   width="100%"
   height="100%" />
<use
   xlink:href="#basekey"
   y="108"
   x="154"
   class="l3"
   id="use85"
   width="100%"
   height="100%" />
<use
   xlink:href="#basekey"
   y="108"
   x="190"
   class="l2"
   id="use87"
   width="100%"
   height="100%" />
<use
   xlink:href="#basekey"
   y="108"
   x="226"
   class="l2"
   id="use89"
   width="100%"
   height="100%" />

<use
   xlink:href="#basekey"
   y="108"
   x="262"
   class="r2"
   id="use91"
   width="100%"
   height="100%" />
<use
   xlink:href="#basekey"
   y="108"
   x="298"
   class="r2"
   id="use93"
   width="100%"
   height="100%" />
<use
   xlink:href="#basekey"
   y="108"
   x="334"
   class="r3"
   id="use95"
   width="100%"
   height="100%" />
<use
   xlink:href="#basekey"
   y="108"
   x="370"
   class="r4"
   id="use97"
   width="100%"
   height="100%" />
<use
   xlink:href="#basekey"
   y="108"
   x="406"
   class="r5"
   id="use99"
   width="100%"
   height="100%" />


<path
   id="backspace"
   class="key grey"
   style="fill:#9f9f9f;stroke:#747474;stroke-width:1.25"
   d="m 472,0 h 52 c 2.216,0 4,1.784 4,4 v 24 c 0,2.216 -1.784,4 -4,4 h -52 c -2.216,0 -4,-1.784 -4,-4 V 4 c 0,-2.216 1.784,-4 4,-4 z" />

<path
   id="tab"
   class="key grey"
   style="fill:#9f9f9f;stroke:#747474;stroke-width:1.25"
   d="m 4,36 h 42 c 2.216,0 4,1.784 4,4 v 24 c 0,2.216 -1.784,4 -4,4 H 4 C 1.784,68 0,66.216 0,64 V 40 c 0,-2.216 1.784,-4 4,-4 z" />

<path
   id="m3l"
   class="key grey pressed"
   style="fill:#777777;stroke:#747474;stroke-width:1.25"
   d="m 4,72 h 52 c 2.216,0 4,1.784 4,4 v 24 c 0,2.216 -1.784,4 -4,4 H 4 c -2.216,0 -4,-1.784 -4,-4 V 76 c 0,-2.216 1.784,-4 4,-4 z" />

<use
   id="m3r"
   xlink:href="#basekey"
   x="460"
   y="72"
   class="key grey pressed"
   width="100%"
   height="100%" />


<path
   id="shiftl"
   class="key grey"
   style="fill:#9f9f9f;stroke:#747474;stroke-width:1.25"
   d="m 4,108 h 32 c 2.216,0 4,1.784 4,4 v 24 c 0,2.216 -1.784,4 -4,4 H 4 c -2.216,0 -4,-1.784 -4,-4 v -24 c 0,-2.216 1.784,-4 4,-4 z" />
<path
   id="m4l"
   class="key grey"
   style="fill:#9f9f9f;stroke:#747474;stroke-width:1.25"
   d="m 48,108 h 26 c 2.216,0 4,1.784 4,4 v 24 c 0,2.216 -1.784,4 -4,4 H 48 c -2.216,0 -4,-1.784 -4,-4 v -24 c 0,-2.216 1.784,-4 4,-4 z" />
<path
   id="shiftr"
   class="key grey"
   style="fill:#9f9f9f;stroke:#747474;stroke-width:1.25"
   d="m 446,108 h 78 c 2.216,0 4,1.784 4,4 v 24 c 0,2.216 -1.784,4 -4,4 h -78 c -2.216,0 -4,-1.784 -4,-4 v -24 c 0,-2.216 1.784,-4 4,-4 z" />

<path
   id="ctrll"
   class="key grey"
   style="fill:#9f9f9f;stroke:#747474;stroke-width:1.25"
   d="m 4,144 h 42 c 2.216,0 4,1.784 4,4 v 24 c 0,2.216 -1.784,4 -4,4 H 4 c -2.216,0 -4,-1.784 -4,-4 v -24 c 0,-2.216 1.784,-4 4,-4 z" />
<path
   id="altl"
   class="key grey"
   style="fill:#9f9f9f;stroke:#747474;stroke-width:1.25"
   d="m 128,144 h 40 c 2.216,0 4,1.784 4,4 v 24 c 0,2.216 -1.784,4 -4,4 h -40 c -2.216,0 -4,-1.784 -4,-4 v -24 c 0,-2.216 1.784,-4 4,-4 z" />
<path
   id="space"
   class="key grey"
   style="fill:#9f9f9f;stroke:#747474;stroke-width:1.25"
   d="m 180,144 h 160 c 2.216,0 4,1.784 4,4 v 24 c 0,2.216 -1.784,4 -4,4 H 180 c -2.216,0 -4,-1.784 -4,-4 v -24 c 0,-2.216 1.784,-4 4,-4 z" />
<path
   id="m4r"
   class="key grey"
   style="fill:#9f9f9f;stroke:#747474;stroke-width:1.25"
   d="m 352,144 h 40 c 2.216,0 4,1.784 4,4 v 24 c 0,2.216 -1.784,4 -4,4 h -40 c -2.216,0 -4,-1.784 -4,-4 v -24 c 0,-2.216 1.784,-4 4,-4 z" />
<path
   id="ctrlr"
   class="key grey"
   style="fill:#9f9f9f;stroke:#747474;stroke-width:1.25"
   d="m 482,144 h 42 c 2.216,0 4,1.784 4,4 v 24 c 0,2.216 -1.784,4 -4,4 h -42 c -2.216,0 -4,-1.784 -4,-4 v -24 c 0,-2.216 1.784,-4 4,-4 z" />

<use
   xlink:href="#basekey"
   y="0"
   x="542"
   class="key numpad"
   id="use113"
   width="100%"
   height="100%" />
<use
   xlink:href="#basekey"
   y="0"
   x="578"
   class="key numpad"
   id="use115"
   width="100%"
   height="100%" />
<use
   xlink:href="#basekey"
   y="0"
   x="614"
   class="key numpad"
   id="use117"
   width="100%"
   height="100%" />
<use
   xlink:href="#basekey"
   y="0"
   x="650"
   class="key numpad"
   id="use119"
   width="100%"
   height="100%" />

<use
   xlink:href="#basekey"
   y="36"
   x="542"
   class="key numpad"
   id="use121"
   width="100%"
   height="100%" />
<use
   xlink:href="#basekey"
   y="36"
   x="578"
   class="key numpad"
   id="use123"
   width="100%"
   height="100%" />
<use
   xlink:href="#basekey"
   y="36"
   x="614"
   class="key numpad"
   id="use125"
   width="100%"
   height="100%" />
<path
   id="kpplus"
   class="key numpad"
   style="fill:#afaa9f;stroke:#747474;stroke-width:1.25"
   d="m 654,36 h 24 c 2.216,0 4,1.784 4,4 v 60 c 0,2.216 -1.784,4 -4,4 h -24 c -2.216,0 -4,-1.784 -4,-4 V 40 c 0,-2.216 1.784,-4 4,-4 z" />

<use
   xlink:href="#basekey"
   y="72"
   x="542"
   class="key numpad"
   id="use128"
   width="100%"
   height="100%" />
<use
   xlink:href="#basekey"
   y="72"
   x="578"
   class="key numpad"
   id="use130"
   width="100%"
   height="100%" />
<use
   xlink:href="#basekey"
   y="72"
   x="614"
   class="key numpad"
   id="use132"
   width="100%"
   height="100%" />

<use
   xlink:href="#basekey"
   y="108"
   x="542"
   class="key numpad"
   id="use134"
   width="100%"
   height="100%" />
<use
   xlink:href="#basekey"
   y="108"
   x="578"
   class="key numpad"
   id="use136"
   width="100%"
   height="100%" />
<use
   xlink:href="#basekey"
   y="108"
   x="614"
   class="key numpad"
   id="use138"
   width="100%"
   height="100%" />
<path
   id="kppenter"
   class="key numpad"
   style="fill:#afaa9f;stroke:#747474;stroke-width:1.25"
   d="m 654,108 h 24 c 2.216,0 4,1.784 4,4 v 60 c 0,2.216 -1.784,4 -4,4 h -24 c -2.216,0 -4,-1.784 -4,-4 v -60 c 0,-2.216 1.784,-4 4,-4 z" />

<path
   id="kp0"
   class="key numpad"
   style="fill:#afaa9f;stroke:#747474;stroke-width:1.25"
   d="m 546,144 h 60 c 2.216,0 4,1.784 4,4 v 24 c 0,2.216 -1.784,4 -4,4 h -60 c -2.216,0 -4,-1.784 -4,-4 v -24 c 0,-2.216 1.784,-4 4,-4 z" />
<use
   xlink:href="#basekey"
   y="144"
   x="614"
   class="key numpad"
   id="use142"
   width="100%"
   height="100%" />

<path
   fill-rule="evenodd"
   clip-rule="evenodd"
   d="M 10,32 H 4 A 4,4 0 0 1 0,28 V 4 A 4,4 0 0 1 4,0 h 34 a 4,4 0 0 1 4,4 v 60 a 4,4 0 0 1 -4,4 H 14 a 4,4 0 0 1 -4,-4 z"
   transform="translate(486,36)"
   id="return"
   class="key grey" />

<path
   id="nub"
   style="fill:#eeeeee"
   d="m 182,101 h 12 c 0.554,0 1,0.223 1,0.5 0,0.277 -0.446,0.5 -1,0.5 h -12 c -0.554,0 -1,-0.223 -1,-0.5 0,-0.277 0.446,-0.5 1,-0.5 z" />
<use
   y="0"
   x="108"
   xlink:href="#nub"
   id="use146"
   width="100%"
   height="100%" />
</g>

<g
   transform="translate(-0.5,-0.5)"
   id="g163">
<g
   aria-label="Mod3"
   id="m3ltxt"
   style="font-size:10px;line-height:0%;font-family:'DejaVu Sans';display:inline;fill:#111111"
   class="mod"><path
     d="m 10.981445,88.709961 h 1.469727 l 1.860351,4.960937 1.870118,-4.960937 h 1.469726 V 96 h -0.961914 v -6.401367 l -1.879883,5 h -0.991211 l -1.879882,-5 V 96 h -0.957032 z"
     style="font-size:10px;line-height:0%;font-family:'DejaVu Sans';display:inline;fill:#111111"
     id="path328" /><path
     d="m 21.689453,91.161133 q -0.722656,0 -1.142578,0.566406 -0.419922,0.561523 -0.419922,1.542969 0,0.981445 0.415039,1.547851 0.419922,0.561524 1.147461,0.561524 0.717774,0 1.137695,-0.566406 0.419922,-0.566407 0.419922,-1.542969 0,-0.97168 -0.419922,-1.538086 -0.419921,-0.571289 -1.137695,-0.571289 z m 0,-0.761719 q 1.171875,0 1.84082,0.761719 0.668946,0.761719 0.668946,2.109375 0,1.342773 -0.668946,2.109375 -0.668945,0.761719 -1.84082,0.761719 -1.176758,0 -1.845703,-0.761719 -0.664063,-0.766602 -0.664063,-2.109375 0,-1.347656 0.664063,-2.109375 0.668945,-0.761719 1.845703,-0.761719 z"
     style="font-size:10px;line-height:0%;font-family:'DejaVu Sans';display:inline;fill:#111111"
     id="path330" /><path
     d="m 29.287109,91.361328 v -2.958984 h 0.898438 V 96 h -0.898438 v -0.820313 q -0.283203,0.488282 -0.717773,0.72754 -0.429688,0.234375 -1.035156,0.234375 -0.991211,0 -1.616211,-0.791016 -0.620117,-0.791016 -0.620117,-2.080078 0,-1.289063 0.620117,-2.080078 0.625,-0.791016 1.616211,-0.791016 0.605468,0 1.035156,0.239258 0.43457,0.234375 0.717773,0.722656 z m -3.061523,1.90918 q 0,0.991211 0.405273,1.557617 0.410157,0.561523 1.123047,0.561523 0.712891,0 1.123047,-0.561523 0.410156,-0.566406 0.410156,-1.557617 0,-0.991211 -0.410156,-1.552735 -0.410156,-0.566406 -1.123047,-0.566406 -0.71289,0 -1.123047,0.566406 -0.405273,0.561524 -0.405273,1.552735 z"
     style="font-size:10px;line-height:0%;font-family:'DejaVu Sans';display:inline;fill:#111111"
     id="path332" /><path
     d="m 35.151367,92.069336 q 0.708008,0.151367 1.103516,0.629883 0.40039,0.478515 0.40039,1.18164 0,1.079102 -0.742187,1.669922 -0.742188,0.590821 -2.109375,0.590821 -0.458984,0 -0.947266,-0.09277 -0.483398,-0.08789 -1.000976,-0.268555 v -0.952148 q 0.410156,0.239258 0.898437,0.361328 0.488281,0.12207 1.020508,0.12207 0.927734,0 1.411133,-0.366211 0.488281,-0.36621 0.488281,-1.064453 0,-0.644531 -0.454101,-1.005859 -0.449219,-0.366211 -1.254883,-0.366211 h -0.84961 v -0.810547 h 0.888672 q 0.727539,0 1.113281,-0.288086 0.385743,-0.292969 0.385743,-0.839844 0,-0.561523 -0.400391,-0.859375 -0.395508,-0.302734 -1.137695,-0.302734 -0.405274,0 -0.869141,0.08789 -0.463867,0.08789 -1.020508,0.273437 v -0.878906 q 0.561524,-0.15625 1.049805,-0.234375 0.493164,-0.07813 0.927734,-0.07813 1.123047,0 1.777344,0.512695 0.654297,0.507813 0.654297,1.376953 0,0.605469 -0.34668,1.025391 -0.346679,0.415039 -0.986328,0.576172 z"
     style="font-size:10px;line-height:0%;font-family:'DejaVu Sans';display:inline;fill:#111111"
     id="path334" /></g>
<g
   aria-label="⇧"
   id="shiftltxt"
   style="font-size:14px;line-height:0%;font-family:'DejaVu Sans';display:inline;fill:#111111"
   class="mod big"><path
     d="m 17.683594,125.23438 -1.81836,-1.81836 -1.818359,1.81836 h 0.895508 v 7.08203 h 1.845703 v -7.08203 z m -5.291016,0.68359 3.472656,-3.47266 3.472657,3.47266 H 17.47168 V 133 h -3.212891 v -7.08203 z"
     style="font-size:14px;line-height:0%;font-family:'DejaVu Sans';display:inline;fill:#111111"
     id="path337" /></g>
<g
   aria-label="Strg"
   id="ctrlltxt"
   style="font-size:10px;line-height:0%;font-family:'DejaVu Sans';display:inline;fill:#111111"
   class="mod"><path
     d="m 15.351563,160.94922 v 0.96191 q -0.561524,-0.26855 -1.059571,-0.40039 -0.498047,-0.13183 -0.961914,-0.13183 -0.805664,0 -1.245117,0.3125 -0.43457,0.3125 -0.43457,0.88867 0,0.4834 0.288086,0.73242 0.292968,0.24414 1.103515,0.39551 l 0.595703,0.12207 q 1.103516,0.20996 1.625977,0.74219 0.527344,0.52734 0.527344,1.41601 0,1.05957 -0.712891,1.60645 -0.708008,0.54687 -2.080078,0.54687 -0.517578,0 -1.103516,-0.11719 -0.581054,-0.11718 -1.206054,-0.34668 v -1.01562 q 0.600586,0.33691 1.176757,0.50781 0.576172,0.1709 1.132813,0.1709 0.844726,0 1.303711,-0.33203 0.458984,-0.33203 0.458984,-0.94727 0,-0.53711 -0.332031,-0.83984 -0.327148,-0.30273 -1.079102,-0.4541 l -0.600586,-0.11719 q -1.103515,-0.21973 -1.596679,-0.68848 -0.493164,-0.46875 -0.493164,-1.30371 0,-0.96679 0.678711,-1.52343 0.683593,-0.55665 1.879882,-0.55665 0.512696,0 1.044922,0.0928 0.532227,0.0928 1.088868,0.27832 z"
     style="font-size:10px;line-height:0%;font-family:'DejaVu Sans';display:inline;fill:#111111"
     id="path340" /><path
     d="m 18.178711,160.97852 v 1.55273 h 1.850586 v 0.69824 h -1.850586 v 2.96875 q 0,0.66895 0.180664,0.85938 0.185547,0.19043 0.74707,0.19043 h 0.922852 V 168 h -0.922852 q -1.040039,0 -1.435547,-0.38574 -0.395507,-0.39063 -0.395507,-1.41602 v -2.96875 h -0.65918 v -0.69824 h 0.65918 v -1.55273 z"
     style="font-size:10px;line-height:0%;font-family:'DejaVu Sans';display:inline;fill:#111111"
     id="path342" /><path
     d="m 24.379883,163.37109 q -0.151367,-0.0879 -0.332031,-0.12695 -0.175782,-0.0439 -0.390625,-0.0439 -0.761719,0 -1.171875,0.49804 -0.405274,0.49317 -0.405274,1.4209 V 168 h -0.90332 v -5.46875 h 0.90332 v 0.84961 q 0.283203,-0.49805 0.737305,-0.73731 0.454101,-0.24414 1.103515,-0.24414 0.09277,0 0.205079,0.0147 0.112304,0.01 0.249023,0.0342 z"
     style="font-size:10px;line-height:0%;font-family:'DejaVu Sans';display:inline;fill:#111111"
     id="path344" /><path
     d="m 28.745117,165.20215 q 0,-0.97656 -0.405273,-1.51367 -0.400391,-0.53711 -1.12793,-0.53711 -0.722656,0 -1.12793,0.53711 -0.40039,0.53711 -0.40039,1.51367 0,0.97168 0.40039,1.50879 0.405274,0.53711 1.12793,0.53711 0.727539,0 1.12793,-0.53711 0.405273,-0.53711 0.405273,-1.50879 z m 0.898438,2.11914 q 0,1.39648 -0.620118,2.07519 -0.620117,0.6836 -1.899414,0.6836 -0.473632,0 -0.893554,-0.0732 -0.419922,-0.0684 -0.81543,-0.21485 v -0.87402 q 0.395508,0.21484 0.78125,0.31738 0.385742,0.10254 0.786133,0.10254 0.883789,0 1.323242,-0.46387 0.439453,-0.45898 0.439453,-1.3916 v -0.44433 q -0.27832,0.48339 -0.71289,0.72265 Q 27.597656,168 26.992187,168 q -1.005859,0 -1.621093,-0.7666 -0.615235,-0.7666 -0.615235,-2.03125 0,-1.26953 0.615235,-2.03613 0.615234,-0.76661 1.621093,-0.76661 0.605469,0 1.04004,0.23926 0.43457,0.23926 0.71289,0.72266 v -0.83008 h 0.898438 z"
     style="font-size:10px;line-height:0%;font-family:'DejaVu Sans';display:inline;fill:#111111"
     id="path346" /></g>

<g
   aria-label="M4"
   id="m4ltxt"
   style="font-size:10px;line-height:0%;font-family:'DejaVu Sans';display:inline;fill:#111111"
   class="mod"><path
     d="m 56.981445,124.70996 h 1.469727 l 1.860351,4.96094 1.870118,-4.96094 h 1.469726 V 132 h -0.961914 v -6.40137 l -1.879883,5 h -0.991211 l -1.879882,-5 V 132 h -0.957032 z"
     style="font-size:10px;line-height:0%;font-family:'DejaVu Sans';display:inline;fill:#111111"
     id="path349" /><path
     d="m 68.407227,125.56934 -2.490235,3.8916 h 2.490235 z m -0.25879,-0.85938 h 1.240235 v 4.75098 h 1.040039 v 0.82031 H 69.388672 V 132 h -0.981445 v -1.71875 h -3.291016 v -0.95215 z"
     style="font-size:10px;line-height:0%;font-family:'DejaVu Sans';display:inline;fill:#111111"
     id="path351" /></g>
<g
   aria-label="Alt"
   id="altltxt"
   style="font-size:10px;line-height:0%;font-family:'DejaVu Sans';display:inline;fill:#111111"
   class="mod"><path
     d="m 138.41797,161.68164 -1.33789,3.62793 h 2.68066 z m -0.55664,-0.97168 h 1.11816 L 141.75781,168 h -1.02539 l -0.66406,-1.87012 h -3.28613 L 136.11816,168 h -1.04004 z"
     style="font-size:10px;line-height:0%;font-family:'DejaVu Sans';display:inline;fill:#111111"
     id="path354" /><path
     d="m 142.7832,160.40234 h 0.89844 V 168 h -0.89844 z"
     style="font-size:10px;line-height:0%;font-family:'DejaVu Sans';display:inline;fill:#111111"
     id="path356" /><path
     d="m 146.4502,160.97852 v 1.55273 h 1.85058 v 0.69824 h -1.85058 v 2.96875 q 0,0.66895 0.18066,0.85938 0.18555,0.19043 0.74707,0.19043 h 0.92285 V 168 h -0.92285 q -1.04004,0 -1.43555,-0.38574 -0.39551,-0.39063 -0.39551,-1.41602 v -2.96875 h -0.65917 v -0.69824 h 0.65917 v -1.55273 z"
     style="font-size:10px;line-height:0%;font-family:'DejaVu Sans';display:inline;fill:#111111"
     id="path358" /></g>


<g
   aria-label="M3"
   id="m3rtxt"
   style="font-size:10px;line-height:0%;font-family:'DejaVu Sans';display:inline;fill:#111111"
   class="mod"><path
     d="m 472.98145,88.709961 h 1.46972 l 1.86035,4.960937 1.87012,-4.960937 h 1.46973 V 96 h -0.96192 v -6.401367 l -1.87988,5 h -0.99121 l -1.87988,-5 V 96 h -0.95703 z"
     style="font-size:10px;line-height:0%;font-family:'DejaVu Sans';display:inline;fill:#111111"
     id="path361" /><path
     d="m 484.68555,92.069336 q 0.708,0.151367 1.10351,0.629883 0.40039,0.478515 0.40039,1.18164 0,1.079102 -0.74218,1.669922 -0.74219,0.590821 -2.10938,0.590821 -0.45898,0 -0.94727,-0.09277 -0.48339,-0.08789 -1.00097,-0.268555 v -0.952148 q 0.41015,0.239258 0.89844,0.361328 0.48828,0.12207 1.0205,0.12207 0.92774,0 1.41114,-0.366211 0.48828,-0.36621 0.48828,-1.064453 0,-0.644531 -0.4541,-1.005859 -0.44922,-0.366211 -1.25489,-0.366211 h -0.84961 v -0.810547 h 0.88868 q 0.72753,0 1.11328,-0.288086 0.38574,-0.292969 0.38574,-0.839844 0,-0.561523 -0.40039,-0.859375 -0.39551,-0.302734 -1.1377,-0.302734 -0.40527,0 -0.86914,0.08789 -0.46386,0.08789 -1.02051,0.273437 v -0.878906 q 0.56153,-0.15625 1.04981,-0.234375 0.49316,-0.07813 0.92773,-0.07813 1.12305,0 1.77735,0.512695 0.65429,0.507813 0.65429,1.376953 0,0.605469 -0.34668,1.025391 -0.34667,0.415039 -0.98632,0.576172 z"
     style="font-size:10px;line-height:0%;font-family:'DejaVu Sans';display:inline;fill:#111111"
     id="path363" /></g>


<g
   aria-label="⇧"
   id="shiftrtxt"
   style="font-size:14px;line-height:0%;font-family:'DejaVu Sans';display:inline;fill:#111111"
   class="mod big"><path
     d="m 457.68359,125.23438 -1.81836,-1.81836 -1.81836,1.81836 h 0.89551 v 7.08203 h 1.84571 v -7.08203 z m -5.29101,0.68359 3.47265,-3.47266 3.47266,3.47266 h -1.86621 V 133 h -3.21289 v -7.08203 z"
     style="font-size:14px;line-height:0%;font-family:'DejaVu Sans';display:inline;fill:#111111"
     id="path366" /></g>
<g
   aria-label="Strg"
   id="ctrlrtxt"
   style="font-size:10px;line-height:0%;font-family:'DejaVu Sans';display:inline;fill:#111111"
   class="mod"><path
     d="m 495.35156,160.94922 v 0.96191 q -0.56152,-0.26855 -1.05957,-0.40039 -0.49804,-0.13183 -0.96191,-0.13183 -0.80567,0 -1.24512,0.3125 -0.43457,0.3125 -0.43457,0.88867 0,0.4834 0.28809,0.73242 0.29297,0.24414 1.10351,0.39551 l 0.59571,0.12207 q 1.10351,0.20996 1.62597,0.74219 0.52735,0.52734 0.52735,1.41601 0,1.05957 -0.7129,1.60645 -0.708,0.54687 -2.08007,0.54687 -0.51758,0 -1.10352,-0.11719 -0.58105,-0.11718 -1.20605,-0.34668 v -1.01562 q 0.60058,0.33691 1.17675,0.50781 0.57618,0.1709 1.13282,0.1709 0.84472,0 1.30371,-0.33203 0.45898,-0.33203 0.45898,-0.94727 0,-0.53711 -0.33203,-0.83984 -0.32715,-0.30273 -1.0791,-0.4541 l -0.60059,-0.11719 q -1.10351,-0.21973 -1.59668,-0.68848 -0.49316,-0.46875 -0.49316,-1.30371 0,-0.96679 0.67871,-1.52343 0.68359,-0.55665 1.87988,-0.55665 0.5127,0 1.04493,0.0928 0.53222,0.0928 1.08886,0.27832 z"
     style="font-size:10px;line-height:0%;font-family:'DejaVu Sans';display:inline;fill:#111111"
     id="path369" /><path
     d="m 498.17871,160.97852 v 1.55273 h 1.85059 v 0.69824 h -1.85059 v 2.96875 q 0,0.66895 0.18066,0.85938 0.18555,0.19043 0.74708,0.19043 h 0.92285 V 168 h -0.92285 q -1.04004,0 -1.43555,-0.38574 -0.39551,-0.39063 -0.39551,-1.41602 v -2.96875 h -0.65918 v -0.69824 h 0.65918 v -1.55273 z"
     style="font-size:10px;line-height:0%;font-family:'DejaVu Sans';display:inline;fill:#111111"
     id="path371" /><path
     d="m 504.37988,163.37109 q -0.15136,-0.0879 -0.33203,-0.12695 -0.17578,-0.0439 -0.39062,-0.0439 -0.76172,0 -1.17188,0.49804 -0.40527,0.49317 -0.40527,1.4209 V 168 h -0.90332 v -5.46875 h 0.90332 v 0.84961 q 0.2832,-0.49805 0.7373,-0.73731 0.4541,-0.24414 1.10352,-0.24414 0.0928,0 0.20508,0.0147 0.1123,0.01 0.24902,0.0342 z"
     style="font-size:10px;line-height:0%;font-family:'DejaVu Sans';display:inline;fill:#111111"
     id="path373" /><path
     d="m 508.74512,165.20215 q 0,-0.97656 -0.40528,-1.51367 -0.40039,-0.53711 -1.12793,-0.53711 -0.72265,0 -1.12793,0.53711 -0.40039,0.53711 -0.40039,1.51367 0,0.97168 0.40039,1.50879 0.40528,0.53711 1.12793,0.53711 0.72754,0 1.12793,-0.53711 0.40528,-0.53711 0.40528,-1.50879 z m 0.89843,2.11914 q 0,1.39648 -0.62011,2.07519 -0.62012,0.6836 -1.89942,0.6836 -0.47363,0 -0.89355,-0.0732 -0.41992,-0.0684 -0.81543,-0.21485 v -0.87402 q 0.39551,0.21484 0.78125,0.31738 0.38574,0.10254 0.78613,0.10254 0.88379,0 1.32324,-0.46387 0.43946,-0.45898 0.43946,-1.3916 v -0.44433 q -0.27832,0.48339 -0.71289,0.72265 Q 507.59766,168 506.99219,168 q -1.00586,0 -1.6211,-0.7666 -0.61523,-0.7666 -0.61523,-2.03125 0,-1.26953 0.61523,-2.03613 0.61524,-0.76661 1.6211,-0.76661 0.60547,0 1.04004,0.23926 0.43457,0.23926 0.71289,0.72266 v -0.83008 h 0.89843 z"
     style="font-size:10px;line-height:0%;font-family:'DejaVu Sans';display:inline;fill:#111111"
     id="path375" /></g>
<g
   aria-label="Mod4"
   id="m4rtxt"
   style="font-size:10px;line-height:0%;font-family:'DejaVu Sans';display:inline;fill:#111111"
   class="mod"><path
     d="m 357.98145,160.70996 h 1.46972 l 1.86035,4.96094 1.87012,-4.96094 h 1.46973 V 168 h -0.96192 v -6.40137 l -1.87988,5 h -0.99121 l -1.87988,-5 V 168 h -0.95703 z"
     style="font-size:10px;line-height:0%;font-family:'DejaVu Sans';display:inline;fill:#111111"
     id="path378" /><path
     d="m 368.68945,163.16113 q -0.72265,0 -1.14258,0.56641 -0.41992,0.56152 -0.41992,1.54297 0,0.98144 0.41504,1.54785 0.41992,0.56152 1.14746,0.56152 0.71778,0 1.1377,-0.5664 0.41992,-0.56641 0.41992,-1.54297 0,-0.97168 -0.41992,-1.53809 -0.41992,-0.57129 -1.1377,-0.57129 z m 0,-0.76172 q 1.17188,0 1.84082,0.76172 0.66895,0.76172 0.66895,2.10938 0,1.34277 -0.66895,2.10937 -0.66894,0.76172 -1.84082,0.76172 -1.17675,0 -1.8457,-0.76172 -0.66406,-0.7666 -0.66406,-2.10937 0,-1.34766 0.66406,-2.10938 0.66895,-0.76172 1.8457,-0.76172 z"
     style="font-size:10px;line-height:0%;font-family:'DejaVu Sans';display:inline;fill:#111111"
     id="path380" /><path
     d="m 376.28711,163.36133 v -2.95899 h 0.89844 V 168 h -0.89844 v -0.82031 q -0.2832,0.48828 -0.71777,0.72754 -0.42969,0.23437 -1.03516,0.23437 -0.99121,0 -1.61621,-0.79101 -0.62012,-0.79102 -0.62012,-2.08008 0,-1.28906 0.62012,-2.08008 0.625,-0.79102 1.61621,-0.79102 0.60547,0 1.03516,0.23926 0.43457,0.23438 0.71777,0.72266 z m -3.06152,1.90918 q 0,0.99121 0.40527,1.55761 0.41016,0.56153 1.12305,0.56153 0.71289,0 1.12304,-0.56153 0.41016,-0.5664 0.41016,-1.55761 0,-0.99121 -0.41016,-1.55274 -0.41015,-0.5664 -1.12304,-0.5664 -0.71289,0 -1.12305,0.5664 -0.40527,0.56153 -0.40527,1.55274 z"
     style="font-size:10px;line-height:0%;font-family:'DejaVu Sans';display:inline;fill:#111111"
     id="path382" /><path
     d="m 381.87305,161.56934 -2.49024,3.8916 h 2.49024 z m -0.25879,-0.85938 h 1.24023 v 4.75098 h 1.04004 v 0.82031 h -1.04004 V 168 h -0.98144 v -1.71875 h -3.29102 v -0.95215 z"
     style="font-size:10px;line-height:0%;font-family:'DejaVu Sans';display:inline;fill:#111111"
     id="path384" /></g>
<g
   aria-label="Leerzeichen"
   id="text159"
   style="font-size:10px;line-height:0%;font-family:'DejaVu Sans';text-align:center;text-anchor:middle;display:inline;fill:#111111"
   class="mod space"><path
     d="m 233.82275,160.70996 h 0.98633 v 6.45996 h 3.54981 V 168 h -4.53614 z"
     style="font-size:10px;line-height:0%;font-family:'DejaVu Sans';text-align:center;text-anchor:middle;display:inline;fill:#111111"
     id="path387" /><path
     d="m 243.85693,165.04102 v 0.43945 h -4.13086 q 0.0586,0.92773 0.55664,1.41601 0.50293,0.4834 1.39649,0.4834 0.51758,0 1.00098,-0.12695 0.48828,-0.12695 0.96679,-0.38086 v 0.84961 q -0.4834,0.20508 -0.99121,0.3125 -0.50781,0.10742 -1.03027,0.10742 -1.3086,0 -2.0752,-0.76172 -0.76172,-0.76172 -0.76172,-2.06054 0,-1.34278 0.72266,-2.12891 0.72754,-0.79102 1.95801,-0.79102 1.10351,0 1.74316,0.71289 0.64453,0.70801 0.64453,1.92872 z m -0.89843,-0.26368 q -0.01,-0.7373 -0.41504,-1.17675 -0.40039,-0.43946 -1.06446,-0.43946 -0.75195,0 -1.20605,0.42481 -0.44922,0.4248 -0.51758,1.19629 z"
     style="font-size:10px;line-height:0%;font-family:'DejaVu Sans';text-align:center;text-anchor:middle;display:inline;fill:#111111"
     id="path389" /><path
     d="m 250.00928,165.04102 v 0.43945 h -4.13086 q 0.0586,0.92773 0.55664,1.41601 0.50293,0.4834 1.39648,0.4834 0.51758,0 1.00098,-0.12695 0.48828,-0.12695 0.9668,-0.38086 v 0.84961 q -0.4834,0.20508 -0.99121,0.3125 -0.50782,0.10742 -1.03028,0.10742 -1.30859,0 -2.07519,-0.76172 -0.76172,-0.76172 -0.76172,-2.06054 0,-1.34278 0.72265,-2.12891 0.72754,-0.79102 1.95801,-0.79102 1.10352,0 1.74317,0.71289 0.64453,0.70801 0.64453,1.92872 z m -0.89844,-0.26368 q -0.01,-0.7373 -0.41504,-1.17675 -0.40039,-0.43946 -1.06445,-0.43946 -0.75196,0 -1.20606,0.42481 -0.44922,0.4248 -0.51758,1.19629 z"
     style="font-size:10px;line-height:0%;font-family:'DejaVu Sans';text-align:center;text-anchor:middle;display:inline;fill:#111111"
     id="path391" /><path
     d="m 254.65283,163.37109 q -0.15137,-0.0879 -0.33203,-0.12695 -0.17578,-0.0439 -0.39062,-0.0439 -0.76172,0 -1.17188,0.49804 -0.40527,0.49317 -0.40527,1.4209 V 168 h -0.90332 v -5.46875 h 0.90332 v 0.84961 q 0.2832,-0.49805 0.7373,-0.73731 0.4541,-0.24414 1.10352,-0.24414 0.0928,0 0.20508,0.0147 0.1123,0.01 0.24902,0.0342 z"
     style="font-size:10px;line-height:0%;font-family:'DejaVu Sans';text-align:center;text-anchor:middle;display:inline;fill:#111111"
     id="path393" /><path
     d="m 255.20459,162.53125 h 4.26758 v 0.82031 l -3.37891,3.93067 h 3.37891 V 168 h -4.38965 v -0.82031 l 3.37891,-3.93067 h -3.25684 z"
     style="font-size:10px;line-height:0%;font-family:'DejaVu Sans';text-align:center;text-anchor:middle;display:inline;fill:#111111"
     id="path395" /><path
     d="m 265.52197,165.04102 v 0.43945 h -4.13086 q 0.0586,0.92773 0.55664,1.41601 0.50293,0.4834 1.39649,0.4834 0.51758,0 1.00097,-0.12695 0.48829,-0.12695 0.9668,-0.38086 v 0.84961 q -0.4834,0.20508 -0.99121,0.3125 -0.50781,0.10742 -1.03027,0.10742 -1.3086,0 -2.0752,-0.76172 -0.76172,-0.76172 -0.76172,-2.06054 0,-1.34278 0.72266,-2.12891 0.72754,-0.79102 1.95801,-0.79102 1.10351,0 1.74316,0.71289 0.64453,0.70801 0.64453,1.92872 z m -0.89843,-0.26368 q -0.01,-0.7373 -0.41504,-1.17675 -0.40039,-0.43946 -1.06446,-0.43946 -0.75195,0 -1.20605,0.42481 -0.44922,0.4248 -0.51758,1.19629 z"
     style="font-size:10px;line-height:0%;font-family:'DejaVu Sans';text-align:center;text-anchor:middle;display:inline;fill:#111111"
     id="path397" /><path
     d="m 266.99658,162.53125 h 0.89844 V 168 h -0.89844 z m 0,-2.12891 h 0.89844 v 1.1377 h -0.89844 z"
     style="font-size:10px;line-height:0%;font-family:'DejaVu Sans';text-align:center;text-anchor:middle;display:inline;fill:#111111"
     id="path399" /><path
     d="m 273.71045,162.74121 v 0.83984 q -0.38086,-0.20996 -0.7666,-0.3125 -0.38086,-0.10742 -0.77149,-0.10742 -0.87402,0 -1.35742,0.55664 -0.4834,0.55176 -0.4834,1.55274 0,1.00097 0.4834,1.55761 0.4834,0.55176 1.35742,0.55176 0.39063,0 0.77149,-0.10254 0.38574,-0.10742 0.7666,-0.31738 v 0.83008 q -0.37598,0.17578 -0.78125,0.26367 -0.40039,0.0879 -0.85449,0.0879 -1.23535,0 -1.96289,-0.77637 -0.72754,-0.77636 -0.72754,-2.09472 0,-1.33789 0.73242,-2.10449 0.7373,-0.76661 2.0166,-0.76661 0.41504,0 0.81055,0.0879 0.39551,0.083 0.7666,0.25391 z"
     style="font-size:10px;line-height:0%;font-family:'DejaVu Sans';text-align:center;text-anchor:middle;display:inline;fill:#111111"
     id="path401" /><path
     d="M 279.81885,164.69922 V 168 h -0.89844 v -3.27148 q 0,-0.77637 -0.30273,-1.16211 -0.30274,-0.38575 -0.90821,-0.38575 -0.72754,0 -1.14746,0.46387 -0.41992,0.46387 -0.41992,1.26465 V 168 h -0.90332 v -7.59766 h 0.90332 v 2.97852 q 0.32227,-0.49316 0.75684,-0.73731 0.43945,-0.24414 1.01074,-0.24414 0.94238,0 1.42578,0.58594 0.4834,0.58106 0.4834,1.71387 z"
     style="font-size:10px;line-height:0%;font-family:'DejaVu Sans';text-align:center;text-anchor:middle;display:inline;fill:#111111"
     id="path403" /><path
     d="m 286.28857,165.04102 v 0.43945 h -4.13086 q 0.0586,0.92773 0.55665,1.41601 0.50293,0.4834 1.39648,0.4834 0.51758,0 1.00098,-0.12695 0.48828,-0.12695 0.96679,-0.38086 v 0.84961 q -0.4834,0.20508 -0.99121,0.3125 -0.50781,0.10742 -1.03027,0.10742 -1.30859,0 -2.0752,-0.76172 -0.76172,-0.76172 -0.76172,-2.06054 0,-1.34278 0.72266,-2.12891 0.72754,-0.79102 1.95801,-0.79102 1.10351,0 1.74316,0.71289 0.64453,0.70801 0.64453,1.92872 z m -0.89843,-0.26368 q -0.01,-0.7373 -0.41504,-1.17675 -0.40039,-0.43946 -1.06446,-0.43946 -0.75195,0 -1.20605,0.42481 -0.44922,0.4248 -0.51758,1.19629 z"
     style="font-size:10px;line-height:0%;font-family:'DejaVu Sans';text-align:center;text-anchor:middle;display:inline;fill:#111111"
     id="path405" /><path
     d="M 292.30908,164.69922 V 168 h -0.89844 v -3.27148 q 0,-0.77637 -0.30273,-1.16211 -0.30273,-0.38575 -0.9082,-0.38575 -0.72754,0 -1.14746,0.46387 -0.41993,0.46387 -0.41993,1.26465 V 168 H 287.729 v -5.46875 h 0.90332 v 0.84961 q 0.32227,-0.49316 0.75684,-0.73731 0.43945,-0.24414 1.01074,-0.24414 0.94239,0 1.42578,0.58594 0.4834,0.58106 0.4834,1.71387 z"
     style="font-size:10px;line-height:0%;font-family:'DejaVu Sans';text-align:center;text-anchor:middle;display:inline;fill:#111111"
     id="path407" /></g>

<g
   aria-label="⏎"
   id="returntxt"
   style="font-size:14px;line-height:0%;font-family:'DejaVu Sans';display:inline;fill:#111111"
   class="mod big"><path
     d="m 498.84863,61.083984 -3.47265,-3.472656 3.47265,-3.472656 v 1.866211 h 3.87598 v -4.210938 h 3.21289 l -0.007,7.423828 h -7.08203 z m -0.68359,-4.395507 v -0.895508 l -1.81836,1.818359 1.81836,1.818359 V 58.53418 h 7.08203 l 0.007,-6.056641 h -1.84571 l -0.007,4.210938 z"
     style="font-size:14px;line-height:0%;font-family:'DejaVu Sans';display:inline;fill:#111111"
     id="path410" /></g>
<g
   aria-label="⌫"
   id="backspacetxt"
   style="font-size:10px;line-height:0%;font-family:'DejaVu Sans';display:inline;fill:#111111"
   class="mod"><path
     d="m 493.37891,23 h -9.5752 l -3.79883,-3.798828 3.79883,-3.798828 h 9.5752 z m -0.72266,-6.875 h -0.68848 l -3.07617,3.076172 3.07617,3.076172 h 0.68848 z m -6.8457,0 2.56347,2.563477 2.56348,-2.563477 z m 5.12695,6.152344 -2.56348,-2.563477 -2.56347,2.563477 z M 484.79492,16.125 h -0.69336 l -3.07617,3.085937 3.07617,3.066407 h 0.69336 l 3.07617,-3.076172 z"
     style="font-size:10px;line-height:0%;font-family:'DejaVu Sans';display:inline;fill:#111111"
     id="path413" /></g>
</g>

<g
   transform="translate(55,26)"
   id="g187">
	<g
   aria-label="¹"
   id="text165"
   style="font-size:20px;line-height:0%;font-family:'Linux Libertine';text-align:center;text-anchor:middle;display:inline;fill:#111111;stroke-width:1.25"
   class="key"><path
     d="m -0.36999207,-12.4 c 0.24,0 0.28,0.18 0.28,0.82 v 2.6 c 0,1.02 -0.62,1.08 -1.42000003,1.12 -0.1,0.16 -0.08,0.46 0,0.58 0.60000003,-0.02 1.22000003,-0.02 1.92000003,-0.02 0.65999997,0 1.07999997,0 1.67999997,0.02 0.08,-0.14 0.08,-0.42 0,-0.58 -0.68,-0.04 -1.09999997,-0.1 -1.09999997,-1.12 v -4.78 c -0.1,-0.1 -0.26,-0.06 -0.36,0 -0.88,0.54 -1.4,0.78 -2.34000003,1.12 0,0.24 0.04,0.42 0.2,0.54 0.5,-0.18 0.88000003,-0.3 1.14000003,-0.3 z"
     style="font-size:20px;line-height:0%;font-family:'Linux Libertine';text-align:center;text-anchor:middle;display:inline;fill:#111111;stroke-width:1.25"
     id="path416" /></g>
	<g
   aria-label="²"
   id="text167"
   style="font-size:20px;line-height:0%;font-family:'Linux Libertine';text-align:center;text-anchor:middle;display:inline;fill:#111111;stroke-width:1.25"
   class="key"><path
     d="m 34.390008,-11.74 c 0.2,0 0.48,-0.06 0.54,-0.42 0.02,-0.06 0,-0.14 0,-0.22 0,-0.12 0,-0.26 0.04,-0.36 0.1,-0.24 0.34,-0.42 0.96,-0.42 0.36,0 1,0.14 1,1.08 0,1.08 -0.48,1.54 -1.38,2.26 -0.96,0.74 -1.72,1.58 -1.72,2.54 h 4.12 c 0.18,-0.54 0.3,-1.16 0.38,-1.88 -0.1,-0.08 -0.26,-0.1 -0.48,-0.1 -0.22,0.56 -0.5,1.34 -1.12,1.34 h -1.66 c 0.18,-0.66 0.48,-1.2 1.32,-1.8 1.12,-0.8 1.78,-1.46 1.78,-2.38 0,-1.28 -1.16,-1.66 -2.16,-1.66 -1.58,0 -2.14,1.02 -2.14,1.54 0,0.26 0.28,0.48 0.52,0.48 z"
     style="font-size:20px;line-height:0%;font-family:'Linux Libertine';text-align:center;text-anchor:middle;display:inline;fill:#111111;stroke-width:1.25"
     id="path419" /></g>
	<g
   aria-label="³"
   id="text169"
   style="font-size:20px;line-height:0%;font-family:'Linux Libertine';text-align:center;text-anchor:middle;display:inline;fill:#111111;stroke-width:1.25"
   class="key"><path
     d="m 72.650008,-12.48 c 0,0.82 -0.54,1.34 -1.42,1.46 -0.06,0.18 -0.06,0.4 0.04,0.54 0.16,-0.02 0.26,-0.04 0.4,-0.04 0.48,0 1.5,0.08 1.5,1.22 0,1.28 -0.88,1.54 -1.46,1.54 -0.64,0 -0.8,-0.14 -0.92,-0.36 -0.12,-0.24 -0.32,-0.34 -0.6,-0.34 -0.24,0 -0.5,0.18 -0.5,0.44 0,0.64 1.42,0.86 1.94,0.86 1.6,0 2.78,-0.92 2.78,-2.3 0,-1.16 -0.94,-1.7 -1.6,-1.76 0.58,-0.32 1.02,-0.78 1.02,-1.36 0,-0.74 -0.66,-1.18 -1.7,-1.18 -1.74,0 -2.28,0.96 -2.28,1.3 0,0.06 0.08,0.36 0.46,0.36 0.46,0 0.44,-0.36 0.54,-0.58 0.14,-0.32 0.7,-0.48 1.04,-0.48 0.32,0 0.76,0.16 0.76,0.68 z"
     style="font-size:20px;line-height:0%;font-family:'Linux Libertine';text-align:center;text-anchor:middle;display:inline;fill:#111111;stroke-width:1.25"
     id="path422" /></g>
	<g
   aria-label="›"
   id="text171"
   style="font-size:20px;line-height:0%;font-family:'Linux Libertine';text-align:center;text-anchor:middle;display:inline;fill:#111111;stroke-width:1.25"
   class="key"><path
     d="m 108.51001,-4.3 c -0.76,0.86 -1.5,1.82 -2.54,3.4 0.06,0.2 0.26,0.36 0.48,0.38 1.58,-1.72 2.58,-2.68 3.7,-3.66 v -0.24 c -1.12,-0.98 -2.12,-1.94 -3.7,-3.66 -0.22,0.02 -0.42,0.18 -0.48,0.38 1.04,1.58 1.78,2.54 2.54,3.4 z"
     style="font-size:20px;line-height:0%;font-family:'Linux Libertine';text-align:center;text-anchor:middle;display:inline;fill:#111111;stroke-width:1.25"
     id="path425" /></g>
	<g
   aria-label="‹"
   id="text173"
   style="font-size:20px;line-height:0%;font-family:'Linux Libertine';text-align:center;text-anchor:middle;display:inline;fill:#111111;stroke-width:1.25"
   class="key"><path
     d="m 143.49001,-4.3 c 0.76,-0.86 1.5,-1.82 2.54,-3.4 -0.06,-0.2 -0.26,-0.36 -0.48,-0.38 -1.58,1.72 -2.58,2.68 -3.7,3.66 v 0.24 c 1.12,0.98 2.12,1.94 3.7,3.66 0.22,-0.02 0.42,-0.18 0.48,-0.38 -1.04,-1.58 -1.78,-2.54 -2.54,-3.4 z"
     style="font-size:20px;line-height:0%;font-family:'Linux Libertine';text-align:center;text-anchor:middle;display:inline;fill:#111111;stroke-width:1.25"
     id="path428" /></g>

	<g
   aria-label="¢"
   id="text175"
   style="font-size:20px;line-height:0%;font-family:'Linux Libertine';text-align:center;text-anchor:middle;display:inline;fill:#111111;stroke-width:1.25"
   class="key"><path
     d="m 179.99002,-12.22 v 2 c -1.68,0.32 -3.26,1.92 -3.26,4.32 0,2.28 1.18,3.9 3.26,4.12 v 2.04 h 0.72 v -2.02 c 1.06,-0.04 2,-0.44 2.88,-1.92 -0.06,-0.16 -0.22,-0.24 -0.4,-0.26 -0.64,0.84 -1.46,1.26 -2.28,1.26 -0.06,0 -0.14,0 -0.2,-0.02 v -6.96 c 0.96,0.08 1.1,0.7 1.18,1.32 0.06,0.52 0.32,0.7 0.72,0.7 0.4,0 0.94,-0.26 0.94,-0.84 0,-1.04 -1.06,-1.78 -2.84,-1.8 v -1.94 z m 0,9.32 c -0.94,-0.48 -1.62,-1.72 -1.62,-3.42 0,-1.76 0.66,-2.94 1.62,-3.26 z"
     style="font-size:20px;line-height:0%;font-family:'Linux Libertine';text-align:center;text-anchor:middle;display:inline;fill:#111111;stroke-width:1.25"
     id="path431" /></g>
	<g
   aria-label="¥"
   id="text177"
   style="font-size:20px;line-height:0%;font-family:'Linux Libertine';text-align:center;text-anchor:middle;display:inline;fill:#111111;stroke-width:1.25"
   class="key"><path
     d="m 215.17002,-2.54 c 0,1.76 -0.34,1.86 -2.04,1.92 -0.12,0.12 -0.12,0.54 0,0.66 1.04,-0.02 1.78,-0.04 2.92,-0.04 1.12,0 1.8,0.02 2.86,0.04 0.12,-0.12 0.12,-0.54 0,-0.66 -1.7,-0.06 -2.04,-0.16 -2.04,-1.92 v -0.14 h 2.44 c 0.22,0 0.5,-0.08 0.5,-0.28 v -0.38 c 0,-0.08 -0.08,-0.12 -0.16,-0.12 h -2.78 V -4.9 h 2.44 c 0.22,0 0.5,-0.08 0.5,-0.28 v -0.38 c 0,-0.08 -0.08,-0.12 -0.16,-0.12 h -2.58 l 1.84,-4.06 c 0.66,-1.46 0.66,-1.54 1.72,-1.64 0.12,-0.12 0.16,-0.54 0.04,-0.66 -0.64,0.02 -1,0.04 -1.34,0.04 -0.34,0 -0.94,-0.02 -1.58,-0.04 -0.12,0.12 -0.12,0.54 0,0.66 0.98,0.08 0.94,0.18 0.32,1.58 0,0.02 -0.02,0.04 -0.02,0.06 l -1.54,3.52 h -0.04 l -2.14,-4.4 c -0.34,-0.7 -0.12,-0.76 0.6,-0.76 0.12,-0.12 0.12,-0.54 0,-0.66 -0.64,0.02 -1.66,0.04 -1.78,0.04 -0.28,0 -1.16,-0.02 -1.8,-0.04 -0.12,0.12 -0.12,0.54 0,0.66 0.82,0.08 1.24,0.56 1.6,1.32 l 2.14,4.38 h -2.38 c -0.36,0 -0.48,0.26 -0.48,0.42 v 0.24 c 0,0.1 0.02,0.12 0.12,0.12 h 2.82 v 1.44 h -2.46 c -0.36,0 -0.48,0.22 -0.48,0.38 v 0.26 c 0,0.1 0.02,0.14 0.12,0.14 h 2.82 z"
     style="font-size:20px;line-height:0%;font-family:'Linux Libertine';text-align:center;text-anchor:middle;display:inline;fill:#111111;stroke-width:1.25"
     id="path434" /></g>
	<g
   aria-label="‚"
   id="text179"
   style="font-size:20px;line-height:0%;font-family:'Linux Libertine';text-align:center;text-anchor:middle;display:inline;fill:#111111;stroke-width:1.25"
   class="key"><path
     d="m 251.9,-1.9 c -0.62,0 -1.06,0.42 -1.06,0.98 0,0.62 0.52,0.82 0.88,0.88 0.38,0.04 0.72,0.16 0.72,0.62 0,0.42 -0.72,1.34 -1.76,1.6 0,0.2 0.04,0.34 0.18,0.48 1.2,-0.22 2.36,-1.18 2.36,-2.58 0,-1.2 -0.52,-1.98 -1.32,-1.98 z"
     style="font-size:20px;line-height:0%;font-family:'Linux Libertine';text-align:center;text-anchor:middle;display:inline;fill:#111111;stroke-width:1.25"
     id="path437" /></g>
	<g
   aria-label="‘"
   id="text181"
   style="font-size:20px;line-height:0%;font-family:'Linux Libertine';text-align:center;text-anchor:middle;display:inline;fill:#111111;stroke-width:1.25"
   class="key"><path
     d="m 288.1,-10.14 c 0.62,0 1.06,-0.42 1.06,-0.98 0,-0.64 -0.52,-0.82 -0.88,-0.88 -0.38,-0.04 -0.72,-0.16 -0.72,-0.62 0,-0.42 0.72,-1.34 1.76,-1.6 0,-0.2 -0.04,-0.34 -0.18,-0.48 -1.2,0.22 -2.36,1.18 -2.36,2.58 0,1.2 0.52,1.98 1.32,1.98 z"
     style="font-size:20px;line-height:0%;font-family:'Linux Libertine';text-align:center;text-anchor:middle;display:inline;fill:#111111;stroke-width:1.25"
     id="path440" /></g>
	<g
   aria-label="’"
   id="text183"
   style="font-size:20px;line-height:0%;font-family:'Linux Libertine';text-align:center;text-anchor:middle;display:inline;fill:#111111;stroke-width:1.25"
   class="key"><path
     d="m 323.9,-13.96 c -0.62,0 -1.06,0.42 -1.06,0.98 0,0.62 0.52,0.82 0.88,0.88 0.38,0.04 0.72,0.16 0.72,0.62 0,0.42 -0.72,1.34 -1.76,1.6 0,0.2 0.04,0.34 0.18,0.48 1.2,-0.22 2.36,-1.18 2.36,-2.58 0,-1.2 -0.52,-1.98 -1.32,-1.98 z"
     style="font-size:20px;line-height:0%;font-family:'Linux Libertine';text-align:center;text-anchor:middle;display:inline;fill:#111111;stroke-width:1.25"
     id="path443" /></g>
	<g
   id="text185"
   class="key"
   style="font-size:20px;font-family:'Linux Libertine';text-align:center;text-anchor:middle;display:inline;fill:#111111;stroke-width:1.25" />
</g>


<g
   aria-label="⇥"
   id="text189"
   style="font-size:14px;line-height:0%;font-family:'DejaVu Sans';display:inline;fill:#111111"
   class="mod big"><path
     d="m 10.799805,55.030273 h 7.123047 l -1.59961,-1.599609 0.820313,-0.820312 2.693359,2.693359 v -2.625 h 1.162109 v 5.878906 h -1.162109 v -2.638672 l -2.693359,2.69336 -0.820313,-0.820313 1.59961,-1.599609 h -7.123047 z"
     style="font-size:14px;line-height:0%;font-family:'DejaVu Sans';display:inline;fill:#111111"
     id="path447" /></g>

<g
   transform="translate(73,62)"
   id="g213">
	<g
   aria-label="…"
   id="text191"
   style="font-size:20px;line-height:0%;font-family:'Linux Libertine';text-align:center;text-anchor:middle;display:inline;fill:#111111;stroke-width:1.25"
   class="key"><path
     d="m -6.3499864,-0.86 c 0,0.58 0.48,1.06 1.06,1.06 0.58,0 1.06,-0.48 1.06,-1.06 0,-0.58 -0.48,-1.06 -1.06,-1.06 -0.58,0 -1.06,0.48 -1.06,1.06 z m 5.3,0 c 0,0.58 0.47999998,1.06 1.05999998,1.06 0.58,0 1.06000002,-0.48 1.06000002,-1.06 0,-0.58 -0.48000002,-1.06 -1.06000002,-1.06 -0.58,0 -1.05999998,0.48 -1.05999998,1.06 z m 5.28,0 c 0,0.58 0.48,1.06 1.06,1.06 0.58,0 1.06,-0.48 1.06,-1.06 0,-0.58 -0.48,-1.06 -1.06,-1.06 -0.58,0 -1.06,0.48 -1.06,1.06 z"
     style="font-size:20px;line-height:0%;font-family:'Linux Libertine';text-align:center;text-anchor:middle;display:inline;fill:#111111;stroke-width:1.25"
     id="path450" /></g>
	<g
   aria-label="_"
   id="text193"
   style="font-size:20px;line-height:0%;font-family:'Linux Libertine';text-align:center;text-anchor:middle;display:inline;fill:#111111;stroke-width:1.25"
   class="key"><path
     d="m 40.660018,2.2 h -9.32 c -0.16,0.16 -0.16,0.72 0,0.88 h 9.32 c 0.16,-0.16 0.16,-0.72 0,-0.88 z"
     style="font-size:20px;line-height:0%;font-family:'Linux Libertine';text-align:center;text-anchor:middle;display:inline;fill:#111111;stroke-width:1.25"
     id="path453" /></g>
	<g
   aria-label="["
   id="text195"
   style="font-size:20px;line-height:0%;font-family:'Linux Libertine';text-align:center;text-anchor:middle;display:inline;fill:#111111;stroke-width:1.25"
   class="key"><path
     d="m 70.60001,3.86 h 4.24 c 0.12,-0.12 0.12,-0.48 0,-0.6 -2.76,-0.22 -2.9,-0.52 -2.9,-2.26 v -12.22 c 0,-1.74 0.16,-2.04 2.9,-2.24 0.12,-0.12 0.12,-0.48 0,-0.6 h -4.24 z"
     style="font-size:20px;line-height:0%;font-family:'Linux Libertine';text-align:center;text-anchor:middle;display:inline;fill:#111111;stroke-width:1.25"
     id="path456" /></g>
	<g
   aria-label="]"
   id="text197"
   style="font-size:20px;line-height:0%;font-family:'Linux Libertine';text-align:center;text-anchor:middle;display:inline;fill:#111111;stroke-width:1.25"
   class="key"><path
     d="m 109.40001,-14.08 h -4.24 c -0.12,0.12 -0.12,0.48 0,0.6 2.76,0.22 2.9,0.52 2.9,2.26 V 1 c 0,1.74 -0.16,2.04 -2.9,2.24 -0.12,0.12 -0.12,0.48 0,0.6 h 4.24 z"
     style="font-size:20px;line-height:0%;font-family:'Linux Libertine';text-align:center;text-anchor:middle;display:inline;fill:#111111;stroke-width:1.25"
     id="path459" /></g>
	<g
   aria-label="^"
   id="text199"
   style="font-size:20px;line-height:0%;font-family:'Linux Libertine';text-align:center;text-anchor:middle;display:inline;fill:#111111;stroke-width:1.25"
   class="key"><path
     d="m 144,-11.86 2.06,4.94 h 0.9 L 144.44,-13 h -0.84 l -2.54,6.08 h 0.9 z"
     style="font-size:20px;line-height:0%;font-family:'Linux Libertine';text-align:center;text-anchor:middle;display:inline;fill:#111111;stroke-width:1.25"
     id="path462" /></g>

	<g
   aria-label="!"
   id="text201"
   style="font-size:20px;line-height:0%;font-family:'Linux Libertine';text-align:center;text-anchor:middle;display:inline;fill:#111111;stroke-width:1.25"
   class="key"><path
     d="m 180.00002,-13.16 c -0.48,0 -1.06,0.38 -1.06,1.46 0,1.4 0.28,2.1 0.46,3.86 0.16,1.56 0.28,3.36 0.32,3.78 0.02,0.12 0.08,0.26 0.28,0.26 0.2,0 0.26,-0.18 0.28,-0.4 0.04,-0.28 0.04,-1.48 0.3,-3.64 0.2,-1.72 0.48,-2.56 0.48,-3.86 0,-1.08 -0.58,-1.46 -1.06,-1.46 z m -1.06,12.3 c 0,0.58 0.48,1.06 1.06,1.06 0.58,0 1.06,-0.48 1.06,-1.06 0,-0.58 -0.48,-1.06 -1.06,-1.06 -0.58,0 -1.06,0.48 -1.06,1.06 z"
     style="font-size:20px;line-height:0%;font-family:'Linux Libertine';text-align:center;text-anchor:middle;display:inline;fill:#111111;stroke-width:1.25"
     id="path465" /></g>
	<g
   aria-label="&lt;"
   id="text203"
   style="font-size:20px;line-height:0%;font-family:'Linux Libertine';text-align:center;text-anchor:middle;display:inline;fill:#111111;stroke-width:1.25"
   class="key"><path
     d="m 213.26001,-4.78 6.34,-2.3 c 0.26,-0.28 0.28,-0.88 0,-1 l -7.8,2.82 c -0.18,0.34 -0.18,0.66 0,0.96 l 7.8,2.84 c 0.28,-0.12 0.26,-0.72 0,-1 z"
     style="font-size:20px;line-height:0%;font-family:'Linux Libertine';text-align:center;text-anchor:middle;display:inline;fill:#111111;stroke-width:1.25"
     id="path468" /></g>
	<g
   aria-label="&gt;"
   id="text205"
   style="font-size:20px;line-height:0%;font-family:'Linux Libertine';text-align:center;text-anchor:middle;display:inline;fill:#111111;stroke-width:1.25"
   class="key"><path
     d="m 254.74001,-4.72 -6.34,2.3 c -0.26,0.28 -0.28,0.88 0,1 l 7.8,-2.82 c 0.18,-0.34 0.18,-0.66 0,-0.96 l -7.8,-2.84 c -0.28,0.12 -0.26,0.72 0,1 z"
     style="font-size:20px;line-height:0%;font-family:'Linux Libertine';text-align:center;text-anchor:middle;display:inline;fill:#111111;stroke-width:1.25"
     id="path471" /></g>
	<g
   aria-label="="
   id="text207"
   style="font-size:20px;line-height:0%;font-family:'Linux Libertine';text-align:center;text-anchor:middle;display:inline;fill:#111111;stroke-width:1.25"
   class="key"><path
     d="m 291.78001,-6.18 c 0.26,0 0.54,-0.46 0.54,-0.66 0,-0.16 -0.08,-0.34 -0.28,-0.34 h -7.84 c -0.24,0 -0.5,0.38 -0.5,0.68 0,0.16 0.12,0.32 0.3,0.32 z m 0,3.32 c 0.26,0 0.54,-0.46 0.54,-0.66 0,-0.16 -0.08,-0.34 -0.28,-0.34 h -7.84 c -0.24,0 -0.5,0.38 -0.5,0.68 0,0.16 0.12,0.32 0.3,0.32 z"
     style="font-size:20px;line-height:0%;font-family:'Linux Libertine';text-align:center;text-anchor:middle;display:inline;fill:#111111;stroke-width:1.25"
     id="path474" /></g>
	<g
   aria-label="&amp;"
   id="text209"
   style="font-size:20px;line-height:0%;font-family:'Linux Libertine';text-align:center;text-anchor:middle;display:inline;fill:#111111;stroke-width:1.25"
   class="key"><path
     d="m 325.37,-1.88 0.58,0.74 c 0.94,1.3 1.68,1.34 2.3,1.34 0.7,0 1.6,-0.56 2.06,-1.96 -0.1,-0.1 -0.2,-0.2 -0.42,-0.2 -0.4,0.78 -0.86,1.08 -1.52,1.08 -0.32,0 -0.92,-0.4 -1.54,-1.26 l -0.72,-1 c 0.8,-1.14 1.24,-1.94 1.78,-2.9 0.92,-1.64 1.06,-1.74 2.28,-1.82 0.12,-0.12 0.12,-0.54 0,-0.66 -0.4,0.02 -1,0.04 -1.68,0.04 -0.68,0 -1.5,-0.02 -1.9,-0.04 -0.12,0.12 -0.12,0.54 0,0.66 1.08,0.06 1.38,0.16 0.62,1.56 -0.34,0.64 -0.82,1.5 -1.54,2.56 -0.92,-1.24 -2.08,-2.9 -2.44,-3.52 l -0.08,-0.16 c 1.66,-0.96 2.98,-2.26 2.98,-3.36 0,-1.26 -1.16,-2.16 -2.56,-2.16 -2,0 -3.08,1.42 -3.08,2.6 0,0.76 0.28,1.54 1.02,2.82 -2.64,1.48 -3.7,2.82 -3.7,4.4 0,2.44 1.7,3.32 3.84,3.32 1.7,0 2.8,-0.82 3.72,-2.08 z m -3.42,-4.88 c 0.22,0.42 1.82,2.74 2.96,4.24 -0.98,1.34 -1.7,2.06 -3.12,2.06 -1.26,0 -2.34,-0.7 -2.34,-2.66 0,-1.42 0.44,-2.5 2.5,-3.64 z m 0.78,-1.42 c -0.52,-0.98 -0.76,-1.74 -0.76,-2.2 0,-1.32 0.98,-1.9 1.5,-1.9 0.82,0 1.28,0.6 1.28,1.5 0,0.72 -0.74,1.76 -2.02,2.6 z"
     style="font-size:20px;line-height:0%;font-family:'Linux Libertine';text-align:center;text-anchor:middle;display:inline;fill:#111111;stroke-width:1.25"
     id="path477" /></g>
	<g
   aria-label="ſ"
   id="text211"
   style="font-size:20px;line-height:0%;font-family:'Linux Libertine';text-align:center;text-anchor:middle;display:inline;fill:#111111;stroke-width:1.25"
   class="key"><path
     d="m 360.53002,-2.44 v -7.04 c 0,-2.4 0.32,-3.8 1.38,-3.8 0.48,0 0.62,0.38 0.7,0.78 0.1,0.54 0.38,0.82 0.92,0.82 0.52,0 0.7,-0.42 0.7,-0.76 0,-0.34 -0.22,-0.66 -0.52,-0.92 -0.4,-0.36 -0.84,-0.6 -1.66,-0.6 -1.34,0 -3.1,1.26 -3.1,4.42 0,0.54 -0.2,0.96 -0.82,0.96 -0.36,0 -0.46,0.24 -0.46,0.4 V -8 c 0,0.08 0.02,0.1 0.1,0.1 h 0.88 c 0.28,0 0.3,0.08 0.3,0.32 v 5.14 c 0,1.66 -0.22,1.76 -1.3,1.82 -0.12,0.12 -0.12,0.54 0,0.66 0.84,-0.02 1.28,-0.04 2.1,-0.04 0.92,0 1.5,0.02 2.36,0.04 0.12,-0.12 0.12,-0.54 0,-0.66 -1.36,-0.06 -1.58,-0.16 -1.58,-1.82 z"
     style="font-size:20px;line-height:0%;font-family:'Linux Libertine';text-align:center;text-anchor:middle;display:inline;fill:#111111;stroke-width:1.25"
     id="path480" /></g>
</g>


<g
   transform="translate(84,98)"
   id="g237">
	<g
   aria-label="\"
   id="text215"
   style="font-size:20px;line-height:0%;font-family:'Linux Libertine';text-align:center;text-anchor:middle;display:inline;fill:#111111;stroke-width:1.25"
   class="key"><path
     d="m -1.7699875,-13.96 h -0.88 l 4.6,14.92 h 0.88 z"
     style="font-size:20px;line-height:0%;font-family:'Linux Libertine';text-align:center;text-anchor:middle;display:inline;fill:#111111;stroke-width:1.25"
     id="path483" /></g>
	<g
   aria-label="/"
   id="text217"
   style="font-size:20px;line-height:0%;font-family:'Linux Libertine';text-align:center;text-anchor:middle;display:inline;fill:#111111;stroke-width:1.25"
   class="key"><path
     d="m 38.63,-12.92 h -0.82 l -4.74,14.1 h 0.82 z"
     style="font-size:20px;line-height:0%;font-family:'Linux Libertine';text-align:center;text-anchor:middle;display:inline;fill:#111111;stroke-width:1.25"
     id="path486" /></g>
	<g
   aria-label="{"
   id="text219"
   style="font-size:20px;line-height:0%;font-family:'Linux Libertine';text-align:center;text-anchor:middle;display:inline;fill:#111111;stroke-width:1.25"
   class="key"><path
     d="m 72.790015,-11.04 c -0.1,-2.06 0.84,-2.4 1.6,-2.62 0.12,-0.12 0.12,-0.36 0,-0.48 -1.8,0 -3.12,0.8 -3.04,3.06 l 0.12,3.68 c 0,1 -0.48,2.08 -1.96,2.22 -0.18,0.18 -0.16,0.32 0,0.48 1.48,0.18 2,1.06 1.96,2.28 l -0.12,3.4 c -0.1,2.6 1.02,3.26 3.04,3.26 0.12,-0.12 0.12,-0.36 0,-0.48 -0.88,0 -1.68,-1 -1.6,-2.68 l 0.16,-2.98 c 0.08,-1.64 -0.74,-2.44 -2.1,-3 v -0.08 c 1.34,-0.38 2.18,-0.96 2.1,-2.74 z"
     style="font-size:20px;line-height:0%;font-family:'Linux Libertine';text-align:center;text-anchor:middle;display:inline;fill:#111111;stroke-width:1.25"
     id="path489" /></g>
	<g
   aria-label="}"
   id="text221"
   style="font-size:20px;line-height:0%;font-family:'Linux Libertine';text-align:center;text-anchor:middle;display:inline;fill:#eeeeee;stroke-width:1.25"
   class="key nubkey"><path
     d="m 107.13001,1.16 c 0.1,2.06 -0.84,2.4 -1.6,2.62 -0.12,0.12 -0.12,0.36 0,0.48 1.8,0 3.12,-0.8 3.04,-3.06 l -0.12,-3.68 c 0,-1 0.48,-2.08 1.96,-2.22 0.18,-0.18 0.16,-0.32 0,-0.48 -1.46,-0.18 -2,-1.06 -1.96,-2.28 l 0.12,-3.4 c 0.1,-2.6 -1.02,-3.26 -3.04,-3.26 -0.12,0.12 -0.12,0.36 0,0.48 0.88,0 1.7,1 1.6,2.68 l -0.16,2.98 c -0.08,1.64 0.74,2.44 2.1,3 v 0.08 c -1.34,0.38 -2.18,0.96 -2.1,2.74 z"
     style="font-size:20px;line-height:0%;font-family:'Linux Libertine';text-align:center;text-anchor:middle;display:inline;fill:#eeeeee;stroke-width:1.25"
     id="path492" /></g>
	<g
   aria-label="*"
   id="text223"
   style="font-size:20px;line-height:0%;font-family:'Linux Libertine';text-align:center;text-anchor:middle;display:inline;fill:#111111;stroke-width:1.25"
   class="key"><path
     d="m 143.67001,-10.94 c -0.66,0.74 -1.68,0.9 -1.68,1.76 0,0.3 0.24,0.56 0.58,0.56 0.76,0 0.9,-1.18 1.4,-2.08 0.5,0.78 0.64,2.08 1.42,2.08 0.28,0 0.58,-0.22 0.58,-0.58 0,-0.8 -0.98,-1 -1.66,-1.74 0.36,-0.06 0.72,-0.08 1.1,-0.08 0.68,0 1.38,-0.14 1.38,-0.74 0,-0.2 -0.14,-0.6 -0.68,-0.6 -0.66,0 -0.98,0.64 -1.9,1.04 0.04,-0.6 0.38,-1.4 0.38,-1.94 0,-0.48 -0.3,-0.7 -0.66,-0.7 -0.36,0 -0.6,0.36 -0.6,0.78 0,0.52 0.38,1.06 0.46,1.84 -0.88,-0.36 -1.24,-1.02 -1.92,-1.02 -0.48,0 -0.66,0.32 -0.66,0.6 0,0.6 0.64,0.74 1.62,0.74 0.3,0 0.58,0.02 0.84,0.08 z"
     style="font-size:20px;line-height:0%;font-family:'Linux Libertine';text-align:center;text-anchor:middle;display:inline;fill:#111111;stroke-width:1.25"
     id="path495" /></g>

	<g
   aria-label="?"
   id="text225"
   style="font-size:20px;line-height:0%;font-family:'Linux Libertine';text-align:center;text-anchor:middle;display:inline;fill:#111111;stroke-width:1.25"
   class="key"><path
     d="m 177.93001,-11.44 c 0,-0.6 0.8,-1.08 1.94,-1.08 1.14,0 1.9,1.14 1.9,2.44 0,0.94 -0.3,1.52 -1.1,2.26 -1.3,1.18 -1.4,2.36 -1.4,3.22 v 0.92 c 0,0.14 0.16,0.2 0.32,0.2 0.16,0 0.34,-0.06 0.34,-0.2 v -0.88 c 0,-0.48 0.02,-0.96 0.28,-1.46 0.18,-0.34 0.58,-0.66 1.04,-1 0.94,-0.68 2.18,-1.56 2.18,-3.14 0,-1.82 -1.32,-3.02 -3.36,-3.02 -1.06,0 -1.9,0.28 -2.48,0.78 -0.6,0.48 -1.02,1.04 -1.02,1.8 0,0.7 0.5,0.86 0.82,0.86 0.38,0 0.78,-0.24 0.78,-0.7 0,-0.26 -0.04,-0.38 -0.12,-0.48 -0.08,-0.1 -0.12,-0.22 -0.12,-0.52 z m 0.6,10.58 c 0,0.58 0.48,1.06 1.06,1.06 0.58,0 1.06,-0.48 1.06,-1.06 0,-0.58 -0.48,-1.06 -1.06,-1.06 -0.58,0 -1.06,0.48 -1.06,1.06 z"
     style="font-size:20px;line-height:0%;font-family:'Linux Libertine';text-align:center;text-anchor:middle;display:inline;fill:#111111;stroke-width:1.25"
     id="path498" /></g>
	<g
   aria-label="("
   id="text227"
   style="font-size:20px;line-height:0%;font-family:'Linux Libertine';text-align:center;text-anchor:middle;display:inline;fill:#eeeeee;stroke-width:1.25"
   class="key nubkey"><path
     d="m 213.90002,-5.04 c 0,0.9 0.08,5.52 4.24,9.12 0.2,-0.04 0.36,-0.18 0.42,-0.34 -0.66,-0.76 -3,-3.52 -3,-8.78 0,-5.26 2.36,-8.02 3,-8.74 -0.06,-0.2 -0.2,-0.34 -0.42,-0.36 -2.38,2.04 -4.24,5.38 -4.24,9.1 z"
     style="font-size:20px;line-height:0%;font-family:'Linux Libertine';text-align:center;text-anchor:middle;display:inline;fill:#eeeeee;stroke-width:1.25"
     id="path501" /></g>
	<g
   aria-label=")"
   id="text229"
   style="font-size:20px;line-height:0%;font-family:'Linux Libertine';text-align:center;text-anchor:middle;display:inline;fill:#111111;stroke-width:1.25"
   class="key"><path
     d="m 254.10002,-5.04 c 0,-0.9 -0.08,-5.52 -4.24,-9.12 -0.2,0.04 -0.36,0.18 -0.42,0.34 0.66,0.76 3,3.52 3,8.78 0,5.26 -2.36,8.02 -3,8.74 0.06,0.2 0.2,0.34 0.42,0.36 2.38,-2.04 4.24,-5.38 4.24,-9.1 z"
     style="font-size:20px;line-height:0%;font-family:'Linux Libertine';text-align:center;text-anchor:middle;display:inline;fill:#111111;stroke-width:1.25"
     id="path504" /></g>
	<g
   aria-label="-"
   id="text231"
   style="font-size:20px;line-height:0%;font-family:'Linux Libertine';text-align:center;text-anchor:middle;display:inline;fill:#111111;stroke-width:1.25"
   class="key"><path
     d="m 290.04001,-4.46 c 0.26,0 0.54,-0.56 0.54,-0.8 0,-0.2 -0.08,-0.4 -0.28,-0.4 h -4.38 c -0.24,0 -0.5,0.46 -0.5,0.82 0,0.2 0.12,0.38 0.3,0.38 z"
     style="font-size:20px;line-height:0%;font-family:'Linux Libertine';text-align:center;text-anchor:middle;display:inline;fill:#111111;stroke-width:1.25"
     id="path507" /></g>
	<g
   aria-label=":"
   id="text233"
   style="font-size:20px;line-height:0%;font-family:'Linux Libertine';text-align:center;text-anchor:middle;display:inline;fill:#111111;stroke-width:1.25"
   class="key"><path
     d="m 323.04002,-1.2 c 0,0.58 0.48,1.06 1.06,1.06 0.58,0 1.06,-0.48 1.06,-1.06 0,-0.58 -0.48,-1.06 -1.06,-1.06 -0.58,0 -1.06,0.48 -1.06,1.06 z m 0,-5.96 c 0,0.58 0.48,1.06 1.06,1.06 0.58,0 1.06,-0.48 1.06,-1.06 0,-0.58 -0.48,-1.06 -1.06,-1.06 -0.58,0 -1.06,0.48 -1.06,1.06 z"
     style="font-size:20px;line-height:0%;font-family:'Linux Libertine';text-align:center;text-anchor:middle;display:inline;fill:#111111;stroke-width:1.25"
     id="path510" /></g>

    <g
   aria-label="@"
   id="text235"
   style="font-size:20px;line-height:0%;font-family:'Linux Libertine';text-align:center;text-anchor:middle;display:inline;fill:#111111;stroke-width:1.25"
   class="key"><path
     d="m 362.71001,-1.48 c 0,-0.14 0.14,-0.8 0.26,-1.34 l 1.2,-5.16 -0.3,-0.1 -1.06,0.26 -0.1,0.48 c -0.2,-0.52 -0.88,-0.86 -1.54,-0.86 -2.12,0 -4.66,2.28 -4.66,5.14 0,0.8 0.44,2.48 2.44,2.48 0.7,0 1.78,-0.58 2.66,-2.06 l 0.04,0.02 c -0.16,0.5 -0.3,0.96 -0.3,1.26 0,0.32 0.14,0.82 0.72,0.82 4.36,0 5.76,-2.82 5.76,-5.1 0,-3.74 -3.1,-6.58 -7.4,-6.58 -4.5,0 -8.2,3.46 -8.2,7.76 0,4.26 3.12,7.62 7.9,7.62 2.26,0 3.46,-0.7 4.66,-1.62 l -0.26,-0.36 c -1.08,0.86 -2.32,1.32 -4.02,1.32 -5.16,0 -6.68,-4.32 -6.68,-7.32 0,-4.74 3.36,-6.78 6.4,-6.78 2.5,0 6,1.98 6,6.1 0,3.32 -1.26,4.26 -3.3,4.26 -0.04,0 -0.22,-0.04 -0.22,-0.24 z m -0.28,-4.84 c 0,0.68 -0.34,1.7 -0.6,2.32 -0.62,1.46 -1.6,2.6 -2.3,2.6 -1.26,0 -1.56,-0.88 -1.56,-1.84 0,-1.24 0.34,-2.52 1.36,-3.54 0.6,-0.62 1.46,-0.8 1.8,-0.8 0.72,0 1.3,0.5 1.3,1.26 z"
     style="font-size:20px;line-height:0%;font-family:'Linux Libertine';text-align:center;text-anchor:middle;display:inline;fill:#111111;stroke-width:1.25"
     id="path513" /></g>

</g>

<g
   transform="translate(101,134)"
   id="g259">
    <g
   aria-label="#"
   id="text239"
   style="font-size:20px;line-height:0%;font-family:'Linux Libertine';text-align:center;text-anchor:middle;display:inline;fill:#111111;stroke-width:1.25"
   class="key"><path
     d="m 2.0500175,-7.2 h 1.9 l 0.16,-1.06 h -1.92 l 0.58,-3.58 h -0.76 l -0.56,3.58 h -2.27999995 l 0.6,-3.58 h -0.76 l -0.58000005,3.58 h -1.86 l -0.16,1.06 h 1.86 l -0.36,2.3 h -1.88 l -0.16,1.06 h 1.86 l -0.56,3.56 h 0.74 l 0.58,-3.56 h 2.24000005 l -0.54,3.56 h 0.76 L 1.5500175,-3.84 h 1.88 l 0.14,-1.06 h -1.9 z M 0.93001755,-4.9 H -1.3499825 l 0.38000005,-2.3 H 1.2900175 Z"
     style="font-size:20px;line-height:0%;font-family:'Linux Libertine';text-align:center;text-anchor:middle;display:inline;fill:#111111;stroke-width:1.25"
     id="path516" /></g>
    <g
   aria-label="$"
   id="text241"
   style="font-size:20px;line-height:0%;font-family:'Linux Libertine';text-align:center;text-anchor:middle;display:inline;fill:#111111;stroke-width:1.25"
   class="key"><path
     d="m 38.770018,-11.7 c -0.94,-0.12 -1.04,-0.42 -2.28,-0.48 l 0.1,-1.72 c -0.26,0 -0.56,0.04 -0.74,0.1 l -0.1,1.6 c -1.8,0.06 -3.38,1.26 -3.38,3.18 0,1.74 1.26,2.64 2.7,3.26 0.1,0.04 0.22,0.08 0.32,0.14 l -0.28,5.1 c -1.34,-0.2 -2.22,-1 -2.58,-2.6 -0.22,-0.08 -0.42,-0.04 -0.6,0.06 0.08,1.44 0.16,1.9 0.38,2.82 1.04,0 1.54,0.32 2.78,0.4 l -0.1,1.8 c 0.2,0 0.58,-0.02 0.74,-0.1 l 0.08,-1.68 c 0.78,-0.02 1.54,-0.22 2.14,-0.6 1.06,-0.66 1.74,-1.82 1.74,-3 0,-1.78 -1.22,-2.66 -2.56,-3.24 -0.22,-0.1 -0.56,-0.22 -0.92,-0.36 l 0.24,-4.48 c 1.26,0.28 1.72,1.28 2.04,2.32 0.02,0 0.04,0 0.08,0 0.2,0 0.4,0 0.54,-0.12 -0.06,-0.9 -0.14,-1.42 -0.34,-2.4 z m -2.66,6.34 c 1.02,0.42 2.02,1.02 2.02,2.58 0,1.48 -0.82,2.28 -2.28,2.3 z m -0.62,-1.98 c -0.9,-0.44 -1.78,-1.1 -1.78,-2.18 0,-1.04 0.92,-2.02 2.02,-2.04 z"
     style="font-size:20px;line-height:0%;font-family:'Linux Libertine';text-align:center;text-anchor:middle;display:inline;fill:#111111;stroke-width:1.25"
     id="path519" /></g>
    <g
   aria-label="|"
   id="text243"
   style="font-size:20px;line-height:0%;font-family:'Linux Libertine';text-align:center;text-anchor:middle;display:inline;fill:#111111;stroke-width:1.25"
   class="key"><path
     d="m 72.450001,4.64 v -18.6 h -0.88 v 18.6 z"
     style="font-size:20px;line-height:0%;font-family:'Linux Libertine';text-align:center;text-anchor:middle;display:inline;fill:#111111;stroke-width:1.25"
     id="path522" /></g>
    <g
   aria-label="~"
   id="text245"
   style="font-size:20px;line-height:0%;font-family:'Linux Libertine';text-align:center;text-anchor:middle;display:inline;fill:#111111;stroke-width:1.25"
   class="key"><path
     d="m 104.03001,-4.18 c 0.12,0.06 0.22,0.08 0.34,0.08 0.46,-0.88 1.4,-1.46 2.1,-1.46 0.5,0 0.98,0.28 1.46,0.64 0.48,0.36 1.06,0.66 1.52,0.66 0.48,0 1.78,-0.26 2.4,-2.4 -0.06,-0.08 -0.18,-0.12 -0.34,-0.12 -0.44,1 -1.42,1.34 -1.98,1.34 -0.44,0 -0.9,-0.26 -1.44,-0.66 -0.48,-0.36 -1.04,-0.64 -1.5,-0.64 -1.22,0 -2.3,1.26 -2.56,2.56 z"
     style="font-size:20px;line-height:0%;font-family:'Linux Libertine';text-align:center;text-anchor:middle;display:inline;fill:#111111;stroke-width:1.25"
     id="path525" /></g>

    <g
   aria-label="`"
   id="text247"
   style="font-size:20px;line-height:0%;font-family:'Linux Libertine';text-align:center;text-anchor:middle;display:inline;fill:#111111;stroke-width:1.25"
   class="key"><path
     d="m 143.64002,-13.98 c -0.08,-0.02 -0.2,-0.04 -0.3,-0.04 -0.68,0 -1.14,0.34 -1.3,0.46 l -0.04,0.22 2.28,2.18 c 0.32,0.3 0.46,0.4 0.58,0.4 0.16,0 0.3,-0.12 0.3,-0.22 0,-0.14 -0.02,-0.28 -0.12,-0.48 z"
     style="font-size:20px;line-height:0%;font-family:'Linux Libertine';text-align:center;text-anchor:middle;display:inline;fill:#111111;stroke-width:1.25"
     id="path528" /></g>
    <g
   aria-label="+"
   id="text249"
   style="font-size:20px;line-height:0%;font-family:'Linux Libertine';text-align:center;text-anchor:middle;display:inline;fill:#111111;stroke-width:1.25"
   class="key"><path
     d="m 179.50001,-8.7 v 3.18 h -3.3 c -0.24,0 -0.5,0.38 -0.5,0.68 0,0.16 0.12,0.32 0.3,0.32 h 3.5 v 3.4 c 0,0.18 0.16,0.3 0.32,0.3 0.3,0 0.68,-0.26 0.68,-0.5 v -3.2 h 3.26 c 0.26,0 0.54,-0.46 0.54,-0.66 0,-0.16 -0.08,-0.34 -0.28,-0.34 h -3.52 v -3.44 c 0,-0.2 -0.18,-0.28 -0.34,-0.28 -0.2,0 -0.66,0.28 -0.66,0.54 z"
     style="font-size:20px;line-height:0%;font-family:'Linux Libertine';text-align:center;text-anchor:middle;display:inline;fill:#111111;stroke-width:1.25"
     id="path531" /></g>
    <g
   aria-label="%"
   id="text251"
   style="font-size:20px;line-height:0%;font-family:'Linux Libertine';text-align:center;text-anchor:middle;display:inline;fill:#111111;stroke-width:1.25"
   class="key"><path
     d="m 216.91001,-10.42 c -0.36,0 -1.06,0 -2.14,-0.5 -0.2,-0.24 -0.78,-0.5 -1.34,-0.5 -1.44,0 -2.66,1.42 -2.66,3.18 0,1.02 0.6,2.18 1.84,2.18 1.68,0 2.56,-2.26 2.56,-3.54 0,-0.18 -0.02,-0.36 -0.06,-0.5 0.38,0.22 1.14,0.42 1.6,0.42 0.6,0 1.38,-0.08 2.14,-0.38 l -7.18,10 0.68,0.3 8.2,-11.42 -0.64,-0.32 c -0.62,0.84 -2.16,1.08 -3,1.08 z m 0.28,8.46 c 0,1.06 0.64,2.2 1.86,2.2 1.66,0 2.54,-2.2 2.54,-3.54 0,-1.46 -0.92,-1.82 -1.72,-1.82 -1.48,0 -2.68,1.52 -2.68,3.16 z m -5.34,-6 c 0,-1.16 0.82,-2.84 1.8,-2.84 0.36,0 0.86,0.22 0.86,1.22 0,1.16 -0.68,2.9 -1.78,2.9 -0.36,0 -0.88,-0.24 -0.88,-1.28 z m 6.44,6.3 c 0,-1.16 0.82,-2.84 1.8,-2.84 0.28,0 0.84,0.18 0.84,1.22 0,1.12 -0.66,2.9 -1.76,2.9 -0.38,0 -0.88,-0.24 -0.88,-1.28 z"
     style="font-size:20px;line-height:0%;font-family:'Linux Libertine';text-align:center;text-anchor:middle;display:inline;fill:#111111;stroke-width:1.25"
     id="path534" /></g>
    <g
   aria-label="&quot;"
   id="text253"
   style="font-size:20px;line-height:0%;font-family:'Linux Libertine';text-align:center;text-anchor:middle;display:inline;fill:#111111;stroke-width:1.25"
   class="key"><path
     d="m 250.42001,-8.52 0.54,-0.08 c 0,0 0.66,-3.3 0.66,-3.62 0,-0.32 -0.18,-0.66 -0.7,-0.66 -0.6,0 -1.02,0.56 -1.02,1 0,0.18 0.52,3.36 0.52,3.36 z m 2.52,-0.02 0.54,-0.08 c 0,0 0.66,-3.3 0.66,-3.62 0,-0.32 -0.18,-0.66 -0.7,-0.66 -0.6,0 -1.02,0.56 -1.02,1 0,0.18 0.52,3.36 0.52,3.36 z"
     style="font-size:20px;line-height:0%;font-family:'Linux Libertine';text-align:center;text-anchor:middle;display:inline;fill:#111111;stroke-width:1.25"
     id="path537" /></g>
    <g
   aria-label="'"
   id="text255"
   style="font-size:20px;line-height:0%;font-family:'Linux Libertine';text-align:center;text-anchor:middle;display:inline;fill:#111111;stroke-width:1.25"
   class="key"><path
     d="m 287.68001,-8.52 0.54,-0.08 c 0,0 0.66,-3.3 0.66,-3.62 0,-0.32 -0.18,-0.66 -0.7,-0.66 -0.6,0 -1.02,0.56 -1.02,1 0,0.18 0.52,3.36 0.52,3.36 z"
     style="font-size:20px;line-height:0%;font-family:'Linux Libertine';text-align:center;text-anchor:middle;display:inline;fill:#111111;stroke-width:1.25"
     id="path540" /></g>
    <g
   aria-label=";"
   id="text257"
   style="font-size:20px;line-height:0%;font-family:'Linux Libertine';text-align:center;text-anchor:middle;display:inline;fill:#111111;stroke-width:1.25"
   class="key"><path
     d="m 324.10002,-1.9 c -0.62,0 -1.06,0.42 -1.06,0.98 0,0.62 0.52,0.82 0.88,0.88 0.38,0.04 0.72,0.16 0.72,0.62 0,0.42 -0.72,1.34 -1.76,1.6 0,0.2 0.04,0.34 0.18,0.48 1.2,-0.22 2.36,-1.18 2.36,-2.58 0,-1.2 -0.52,-1.98 -1.32,-1.98 z m -1.06,-5.2 c 0,0.58 0.48,1.06 1.06,1.06 0.58,0 1.06,-0.48 1.06,-1.06 0,-0.58 -0.48,-1.06 -1.06,-1.06 -0.58,0 -1.06,0.48 -1.06,1.06 z"
     style="font-size:20px;line-height:0%;font-family:'Linux Libertine';text-align:center;text-anchor:middle;display:inline;fill:#111111;stroke-width:1.25"
     id="path543" /></g>
</g>


<g
   transform="translate(561,26)"
   id="g269">
    <g
   aria-label="="
   id="text261"
   style="font-size:20px;line-height:0%;font-family:'Linux Libertine';text-align:center;text-anchor:middle;display:inline;fill:#111111;stroke-width:1.25"
   class="key"><path
     d="m 3.7800076,-6.18 c 0.26,0 0.54,-0.46 0.54,-0.66 0,-0.16 -0.08,-0.34 -0.28,-0.34 h -7.84 c -0.24,0 -0.5,0.38 -0.5,0.68 0,0.16 0.12,0.32 0.3,0.32 z m 0,3.32 c 0.26,0 0.54,-0.46 0.54,-0.66 0,-0.16 -0.08,-0.34 -0.28,-0.34 h -7.84 c -0.24,0 -0.5,0.38 -0.5,0.68 0,0.16 0.12,0.32 0.3,0.32 z"
     style="font-size:20px;line-height:0%;font-family:'Linux Libertine';text-align:center;text-anchor:middle;display:inline;fill:#111111;stroke-width:1.25"
     id="path546" /></g>
    <g
   aria-label="÷"
   id="text263"
   style="font-size:20px;line-height:0%;font-family:'Linux Libertine';text-align:center;text-anchor:middle;display:inline;fill:#111111;stroke-width:1.25"
   class="key"><path
     d="m 39.760008,-4.52 c 0.26,0 0.54,-0.46 0.54,-0.66 0,-0.16 -0.08,-0.34 -0.28,-0.34 h -7.82 c -0.24,0 -0.5,0.38 -0.5,0.68 0,0.16 0.12,0.32 0.3,0.32 z m -4.74,-3.22 c 0,0.48 0.4,0.88 0.88,0.88 0.5,0 0.9,-0.4 0.9,-0.88 0,-0.48 -0.4,-0.88 -0.9,-0.88 -0.48,0 -0.88,0.4 -0.88,0.88 z m 0,5.36 c 0,0.48 0.4,0.88 0.88,0.88 0.5,0 0.9,-0.4 0.9,-0.88 0,-0.48 -0.4,-0.88 -0.9,-0.88 -0.48,0 -0.88,0.4 -0.88,0.88 z"
     style="font-size:20px;line-height:0%;font-family:'Linux Libertine';text-align:center;text-anchor:middle;display:inline;fill:#111111;stroke-width:1.25"
     id="path549" /></g>
    <g
   aria-label="⋅"
   id="text265"
   style="font-size:20px;line-height:0%;font-family:'Linux Libertine';text-align:center;text-anchor:middle;display:inline;fill:#111111;stroke-width:1.25"
   class="key"><path
     d="m 72.000019,-3.98 c 0.56,0 1.08,-0.52 1.08,-1.08 0,-0.56 -0.52,-1.08 -1.08,-1.08 -0.56,0 -1.08,0.52 -1.08,1.08 0,0.56 0.52,1.08 1.08,1.08 z"
     style="font-size:20px;line-height:0%;font-family:'Linux Libertine';text-align:center;text-anchor:middle;display:inline;fill:#111111;stroke-width:1.25"
     id="path552" /></g>
    <g
   aria-label="−"
   id="text267"
   style="font-size:20px;line-height:0%;font-family:'Linux Libertine';text-align:center;text-anchor:middle;display:inline;fill:#111111;stroke-width:1.25"
   class="key"><path
     d="m 111.76001,-4.52 c 0.26,0 0.54,-0.46 0.54,-0.66 0,-0.16 -0.08,-0.34 -0.28,-0.34 h -7.82 c -0.24,0 -0.5,0.38 -0.5,0.68 0,0.16 0.12,0.32 0.3,0.32 z"
     style="font-size:20px;line-height:0%;font-family:'Linux Libertine';text-align:center;text-anchor:middle;display:inline;fill:#111111;stroke-width:1.25"
     id="path555" /></g>
</g>
<g
   transform="translate(561,62)"
   id="g277">
    <g
   aria-label="↕"
   id="text271"
   style="font-size:20px;line-height:0%;font-family:'Linux Libertine';text-align:center;text-anchor:middle;display:inline;fill:#111111;stroke-width:1.25"
   class="key"><path
     d="M -0.50999344,-12.22 V 1.6 C -1.1499934,1.08 -1.6499934,0.72 -1.9699934,0.52 c -0.66,-0.42 -1.22,-0.72 -1.68,-0.92 v 0.78 c 0.92,0.8 1.66,1.58 2.24,2.36 0.55999996,0.76 0.95999996,1.4 1.15999996,1.96 h 0.46 c 0.32,-0.8 0.74,-1.5 1.26000004,-2.06 1.14,-1.26 1.88,-2.02 2.2,-2.28 v -0.8 c -1.36,0.64 -2.4,1.3 -3.14000004,2.04 v -13.82 c 0.72000004,0.74 1.78000004,1.4 3.12000004,2.04 v -0.8 c -0.32,-0.26 -1.06,-1.02 -2.2,-2.28 -0.50000004,-0.58 -0.92000004,-1.26 -1.26000004,-2.06 h -0.46 c -0.2,0.56 -0.58,1.2 -1.15999996,1.96 -0.58,0.78 -1.32,1.56 -2.22,2.36 v 0.78 c 0.46,-0.2 1.02,-0.5 1.66,-0.92 0.32,-0.2 0.82,-0.56 1.47999996,-1.08 z"
     style="font-size:20px;line-height:0%;font-family:'Linux Libertine';text-align:center;text-anchor:middle;display:inline;fill:#111111;stroke-width:1.25"
     id="path558" /></g>
    <g
   aria-label="↑"
   id="text273"
   style="font-size:20px;line-height:0%;font-family:'Linux Libertine';text-align:center;text-anchor:middle;display:inline;fill:#111111;stroke-width:1.25"
   class="key"><path
     d="m 39.69,-11.34 c -1.94,-1.72 -3.06,-3.34 -3.4,-4.32 h -0.46 c -0.88,2.16 -3.44,4.32 -3.46,4.32 v 0.8 c 1.68,-0.78 2.6,-1.6 3.14,-2.26 V 4.6 h 1.04 v -17.4 c 0.62,0.64 1.7,1.62 3.14,2.22 z"
     style="font-size:20px;line-height:0%;font-family:'Linux Libertine';text-align:center;text-anchor:middle;display:inline;fill:#111111;stroke-width:1.25"
     id="path561" /></g>
    <g
   aria-label="⃗"
   id="text275"
   style="font-size:20px;line-height:0%;font-family:'Linux Libertine';text-align:center;text-anchor:middle;display:inline;fill:#111111;stroke-width:1.25"
   class="key"><path
     d="m 66.672852,-1.3964844 q 0.419921,0.58593752 0.996093,1.06445315 0.449219,0.37109375 0.996094,0.68359375 L 68.186523,1.3867187 Q 67.50293,0.99609375 66.946289,0.52734375 q -0.732422,-0.59570312 -1.25,-1.31835937 z m 8.652343,1.7480469 q 0.546875,-0.3125 0.996094,-0.68359375 0.507813,-0.4296875 0.996094,-1.06445315 l 0.976562,0.59570315 q -0.576172,0.76171875 -1.25,1.328125 -0.55664,0.46875 -1.25,0.85937495 z m 1.992188,-9.3457031 q -0.429688,-0.5859375 -0.996094,-1.0644534 -0.449219,-0.371094 -0.996094,-0.683594 l 0.46875,-1.035156 q 0.69336,0.390625 1.25,0.859375 0.722657,0.595703 1.25,1.3183596 z m -8.652344,-1.7480474 q -0.546875,0.3125 -0.996094,0.683594 -0.576172,0.4785159 -0.996093,1.0644534 l -0.976563,-0.6054688 q 0.478516,-0.6738286 1.25,-1.3183596 0.556641,-0.46875 1.240234,-0.859375 z m 1.835938,11.8945317 q 0.742187,0.2148438 1.49414,0.2148438 0.751953,0 1.494141,-0.2148438 l 0.371094,1.0742188 q -0.927735,0.2636719 -1.865235,0.2636719 -0.9375,0 -1.875,-0.2636719 z m 7.841796,-4.8535156 q 0.15625,-0.7128906 0.15625,-1.4941406 0,-0.78125 -0.15625,-1.4941406 l 1.074219,-0.3808594 q 0.195313,0.8886719 0.195313,1.875 0,0.9863281 -0.195313,1.875 z m -4.853515,-7.8417971 q -0.742188,-0.214844 -1.494141,-0.214844 -0.751953,0 -1.49414,0.214844 l -0.38086,-1.074219 q 0.9375,-0.263671 1.875,-0.263671 0.9375,0 1.865235,0.263671 z m -7.832031,4.8535159 q -0.15625,0.7128906 -0.15625,1.4941406 0,0.78125 0.15625,1.4941406 l -1.074219,0.3808594 q -0.195313,-0.8886719 -0.195313,-1.875 0,-0.9863281 0.195313,-1.875 z"
     style="font-size:20px;line-height:0%;font-family:'Linux Libertine';text-align:center;text-anchor:middle;display:inline;fill:#111111;stroke-width:1.25"
     id="path564" /><path
     d="m 71.321289,-12.705078 v -0.976563 h 7.236328 l -1.289062,-1.513672 h 1.230468 l 1.708985,2.001954 -1.708985,2.001953 h -1.230468 l 1.289062,-1.513672 z"
     style="font-size:20px;line-height:0%;font-family:'Linux Libertine';text-align:center;text-anchor:middle;display:inline;fill:#111111;stroke-width:1.25"
     id="path566" /></g>
</g>
<g
   transform="translate(561,98)"
   id="g285">
    <g
   aria-label="←"
   id="text279"
   style="font-size:20px;line-height:0%;font-family:'Linux Libertine';text-align:center;text-anchor:middle;display:inline;fill:#111111;stroke-width:1.25"
   class="key"><path
     d="m -5.7999916,-8.96 c -1.72,1.94 -3.34,3.06 -4.3200004,3.4 v 0.46 c 2.1600004,0.88 4.3200004,3.44 4.3200004,3.46 h 0.8 c -0.78,-1.68 -1.6,-2.6 -2.26,-3.14 H 10.140008 V -5.82 H -7.2599916 c 0.64,-0.62 1.62,-1.7 2.22,-3.14 z"
     style="font-size:20px;line-height:0%;font-family:'Linux Libertine';text-align:center;text-anchor:middle;display:inline;fill:#111111;stroke-width:1.25"
     id="path569" /></g>
    <g
   aria-label=":"
   id="text281"
   style="font-size:20px;line-height:0%;font-family:'Linux Libertine';text-align:center;text-anchor:middle;display:inline;fill:#111111;stroke-width:1.25"
   class="key"><path
     d="m 35.040018,-1.2 c 0,0.58 0.48,1.06 1.06,1.06 0.58,0 1.06,-0.48 1.06,-1.06 0,-0.58 -0.48,-1.06 -1.06,-1.06 -0.58,0 -1.06,0.48 -1.06,1.06 z m 0,-5.96 c 0,0.58 0.48,1.06 1.06,1.06 0.58,0 1.06,-0.48 1.06,-1.06 0,-0.58 -0.48,-1.06 -1.06,-1.06 -0.58,0 -1.06,0.48 -1.06,1.06 z"
     style="font-size:20px;line-height:0%;font-family:'Linux Libertine';text-align:center;text-anchor:middle;display:inline;fill:#111111;stroke-width:1.25"
     id="path572" /></g>
    <g
   aria-label="→"
   id="text283"
   style="font-size:20px;line-height:0%;font-family:'Linux Libertine';text-align:center;text-anchor:middle;display:inline;fill:#111111;stroke-width:1.25"
   class="key"><path
     d="m 77.820008,-1.64 c 1.72,-1.94 3.34,-3.06 4.32,-3.4 V -5.5 c -2.16,-0.88 -4.32,-3.44 -4.32,-3.46 h -0.8 c 0.78,1.68 1.6,2.6 2.26,3.14 h -17.4 v 1.04 h 17.4 c -0.64,0.62 -1.62,1.7 -2.22,3.14 z"
     style="font-size:20px;line-height:0%;font-family:'Linux Libertine';text-align:center;text-anchor:middle;display:inline;fill:#111111;stroke-width:1.25"
     id="path575" /></g>
</g>
<g
   transform="translate(561,134)"
   id="g293">
    <g
   aria-label="↔"
   id="text287"
   style="font-size:20px;line-height:0%;font-family:'Linux Libertine';text-align:center;text-anchor:middle;display:inline;fill:#111111;stroke-width:1.25"
   class="key"><path
     d="m 6.9200043,-5.82 h -13.82 c 0.52,-0.64 0.88,-1.14 1.08,-1.46 0.42,-0.66 0.72,-1.22 0.92,-1.68 h -0.78 c -0.8,0.92 -1.58,1.66 -2.36,2.24 -0.76,0.56 -1.4,0.96 -1.96,1.16 v 0.46 c 0.8,0.32 1.5,0.74 2.06,1.26 1.26,1.14 2.02,1.88 2.28,2.2 h 0.8 c -0.64,-1.36 -1.3,-2.4 -2.04,-3.14 h 13.82 c -0.74,0.72 -1.4,1.78 -2.04,3.12 h 0.8 c 0.26,-0.32 1.02,-1.06 2.28,-2.2 0.58,-0.5 1.26,-0.92 2.0599997,-1.26 v -0.46 c -0.5599997,-0.2 -1.1999997,-0.58 -1.9599997,-1.16 -0.78,-0.58 -1.56,-1.32 -2.36,-2.22 h -0.78 c 0.2,0.46 0.5,1.02 0.92,1.66 0.2,0.32 0.56,0.82 1.08,1.48 z"
     style="font-size:20px;line-height:0%;font-family:'Linux Libertine';text-align:center;text-anchor:middle;display:inline;fill:#111111;stroke-width:1.25"
     id="path578" /></g>
    <g
   aria-label="↓"
   id="text289"
   style="font-size:20px;line-height:0%;font-family:'Linux Libertine';text-align:center;text-anchor:middle;display:inline;fill:#111111;stroke-width:1.25"
   class="key"><path
     d="m 32.360001,0.26 c 1.94,1.72 3.06,3.34 3.4,4.32 h 0.46 c 0.88,-2.16 3.44,-4.32 3.46,-4.32 v -0.8 c -1.68,0.78 -2.6,1.6 -3.14,2.26 v -17.4 h -1.04 v 17.4 c -0.62,-0.64 -1.7,-1.62 -3.14,-2.22 z"
     style="font-size:20px;line-height:0%;font-family:'Linux Libertine';text-align:center;text-anchor:middle;display:inline;fill:#111111;stroke-width:1.25"
     id="path581" /></g>
    <g
   aria-label="⇌"
   id="text291"
   style="font-size:20px;line-height:0%;font-family:'Linux Libertine';text-align:center;text-anchor:middle;display:inline;fill:#111111;stroke-width:1.25"
   class="key"><path
     d="m 62.350001,-5.82 v 0.72 c 0.66,0.32 1.34,0.74 1.96,1.26 0.64,0.5 1.4,1.24 2.28,2.22 h 0.8 c -0.66,-1.36 -1.32,-2.42 -2.02,-3.16 h 16.34 v -1.04 z m 19.32,-2.12 v -0.72 c -0.66,-0.32 -1.34,-0.74 -1.96,-1.26 -0.64,-0.5 -1.4,-1.24 -2.28,-2.22 h -0.8 c 0.66,1.36 1.32,2.42 2.02,3.16 h -16.34 v 1.04 z"
     style="font-size:20px;line-height:0%;font-family:'Linux Libertine';text-align:center;text-anchor:middle;display:inline;fill:#111111;stroke-width:1.25"
     id="path584" /></g>
</g>
<g
   transform="translate(561,170)"
   id="g299">
    <g
   aria-label="%"
   id="text295"
   style="font-size:20px;line-height:0%;font-family:'Linux Libertine';text-align:center;text-anchor:middle;display:inline;fill:#111111;stroke-width:1.25"
   class="key"><path
     d="m 18.910009,-10.42 c -0.36,0 -1.06,0 -2.14,-0.5 -0.2,-0.24 -0.78,-0.5 -1.34,-0.5 -1.44,0 -2.66,1.42 -2.66,3.18 0,1.02 0.6,2.18 1.84,2.18 1.68,0 2.56,-2.26 2.56,-3.54 0,-0.18 -0.02,-0.36 -0.06,-0.5 0.38,0.22 1.14,0.42 1.6,0.42 0.6,0 1.38,-0.08 2.14,-0.38 l -7.18,10 0.68,0.3 8.2,-11.42 -0.64,-0.32 c -0.62,0.84 -2.16,1.08 -3,1.08 z m 0.28,8.46 c 0,1.06 0.64,2.2 1.86,2.2 1.66,0 2.54,-2.2 2.54,-3.54 0,-1.46 -0.92,-1.82 -1.72,-1.82 -1.48,0 -2.68,1.52 -2.68,3.16 z m -5.34,-6 c 0,-1.16 0.82,-2.84 1.8,-2.84 0.36,0 0.86,0.22 0.86,1.22 0,1.16 -0.68,2.9 -1.78,2.9 -0.36,0 -0.88,-0.24 -0.88,-1.28 z m 6.44,6.3 c 0,-1.16 0.82,-2.84 1.8,-2.84 0.28,0 0.84,0.18 0.84,1.22 0,1.12 -0.66,2.9 -1.76,2.9 -0.38,0 -0.88,-0.24 -0.88,-1.28 z"
     style="font-size:20px;line-height:0%;font-family:'Linux Libertine';text-align:center;text-anchor:middle;display:inline;fill:#111111;stroke-width:1.25"
     id="path587" /></g>
    <g
   aria-label=","
   id="text297"
   style="font-size:20px;line-height:0%;font-family:'Linux Libertine';text-align:center;text-anchor:middle;display:inline;fill:#111111;stroke-width:1.25"
   class="key"><path
     d="m 71.880007,-1.9 c -0.62,0 -1.06,0.42 -1.06,0.98 0,0.62 0.52,0.82 0.88,0.88 0.38,0.04 0.72,0.16 0.72,0.62 0,0.42 -0.72,1.34 -1.76,1.6 0,0.2 0.04,0.34 0.18,0.48 1.2,-0.22 2.36,-1.18 2.36,-2.58 0,-1.2 -0.52,-1.98 -1.32,-1.98 z"
     style="font-size:20px;line-height:0%;font-family:'Linux Libertine';text-align:center;text-anchor:middle;display:inline;fill:#111111;stroke-width:1.25"
     id="path590" /></g>
</g>

<g
   transform="translate(561,78)"
   id="g303">
    <g
   aria-label="±"
   id="text301"
   style="font-size:20px;line-height:0%;font-family:'Linux Libertine';text-align:center;text-anchor:middle;display:inline;fill:#111111;stroke-width:1.25"
   class="key"><path
     d="m 107.50001,-10.4 v 3.18 h -3.3 c -0.24,0 -0.5,0.38 -0.5,0.68 0,0.16 0.12,0.32 0.3,0.32 h 3.5 v 3.4 c 0,0.18 0.16,0.3 0.32,0.3 0.3,0 0.68,-0.26 0.68,-0.5 v -3.2 h 3.26 c 0.26,0 0.54,-0.46 0.54,-0.66 0,-0.16 -0.08,-0.34 -0.28,-0.34 h -3.52 v -3.44 c 0,-0.2 -0.18,-0.28 -0.34,-0.28 -0.2,0 -0.66,0.28 -0.66,0.54 z m 4.26,9.66 c 0.26,0 0.54,-0.46 0.54,-0.66 0,-0.16 -0.08,-0.34 -0.28,-0.34 h -7.82 c -0.24,0 -0.5,0.38 -0.5,0.68 0,0.16 0.12,0.32 0.3,0.32 z"
     style="font-size:20px;line-height:0%;font-family:'Linux Libertine';text-align:center;text-anchor:middle;display:inline;fill:#111111;stroke-width:1.25"
     id="path593" /></g>
</g>
<g
   transform="translate(561,150)"
   id="g307">
    <g
   aria-label="⏎"
   id="text305"
   style="font-size:20px;line-height:0%;font-family:'Linux Libertine';text-align:center;text-anchor:middle;display:inline;fill:#111111;stroke-width:1.25"
   class="key"><path
     d="m 110.62002,-14 v 5.24 h -6.06 v -3.48 l -5.960001,5.98 5.960001,5.96 v -3.48 h 10.24 c 0.6,0 1,-0.4 1,-1 V -14 c 0,-0.6 -0.4,-1 -1,-1 h -3.18 c -0.6,0 -1,0.4 -1,1 z m 4.26,-0.12 v 9.46 h -11.22 v 2.22 l -3.780001,-3.82 3.780001,-3.82 v 2.22 h 7.86 v -6.26 z"
     style="font-size:20px;line-height:0%;font-family:'Linux Libertine';text-align:center;text-anchor:middle;display:inline;fill:#111111;stroke-width:1.25"
     id="path596" /></g>
</g>

<g
   aria-label="↻"
   id="t1"
   style="font-size:20px;line-height:0%;font-family:'Gentium Plus Compact';text-align:center;text-anchor:middle;display:inline;fill:#111111"
   class="dead"><path
     d="m 23.378906,15.580078 1.171875,-1.171875 q 0.898438,0.927735 1.337891,1.972656 0.449219,1.09375 0.449219,2.333985 0,1.210937 -0.449219,2.304687 -0.46875,1.103516 -1.337891,1.972656 -0.859375,0.84961 -1.953125,1.31836 -1.054687,0.449219 -2.304687,0.449219 -1.298828,0 -2.304688,-0.449219 -1.132812,-0.507813 -1.953125,-1.31836 -0.86914,-0.86914 -1.33789,-1.972656 -0.449219,-1.09375 -0.449219,-2.304687 0,-1.240235 0.449219,-2.333985 0.458984,-1.09375 1.33789,-1.972656 l 0.341797,-0.341797 H 13.154297 V 12.40625 h 5.429687 l 0.625,0.625 v 5.429687 h -1.660156 v -3.222656 l -0.341797,0.341797 q -0.644531,0.644531 -0.976562,1.435547 -0.322266,0.791016 -0.322266,1.699219 0,0.878906 0.322266,1.669922 0.322265,0.791015 0.966797,1.435546 0.625,0.615235 1.425781,0.957032 0.761719,0.322265 1.689453,0.322265 0.927734,0 1.650391,-0.322265 0.839843,-0.38086 1.425781,-0.957032 0.644531,-0.644531 0.966797,-1.435546 0.322265,-0.791016 0.322265,-1.669922 0,-0.908203 -0.322265,-1.699219 -0.3125,-0.791016 -0.976563,-1.435547 z"
     style="font-size:20px;line-height:0%;font-family:'Gentium Plus Compact';text-align:center;text-anchor:middle;display:inline;fill:#111111"
     id="path599" /></g>
<g
   aria-label="◌̊"
   id="t2"
   style="font-size:20px;line-height:0%;font-family:'Gentium Plus Compact';text-align:center;text-anchor:middle;display:inline;fill:#111111"
   class="dead"><path
     d="m 450.88672,17.640625 q 0.0391,0.07813 0.0391,0.185547 0,0.185547 -0.12695,0.332031 -0.11719,0.136719 -0.3125,0.136719 -0.18555,0 -0.3418,-0.126953 -0.14648,-0.136719 -0.14648,-0.341797 0,-0.175781 0.13672,-0.322266 0.14648,-0.146484 0.34179,-0.146484 0.29297,0 0.41016,0.283203 z m 3.07617,7.412109 q 0.0391,0.117188 0.0391,0.175782 0,0.175781 -0.13672,0.322265 -0.13671,0.146485 -0.33203,0.146485 -0.17578,0 -0.32226,-0.136719 -0.14649,-0.136719 -0.14649,-0.341797 0,-0.166016 0.12696,-0.3125 0.12695,-0.146484 0.3125,-0.146484 0.3125,0 0.45898,0.292968 z m -4.48242,-6.689453 q 0.14648,0.126953 0.14648,0.322266 0,0.46875 -0.45898,0.46875 -0.19531,0 -0.33203,-0.126953 -0.13672,-0.136719 -0.13672,-0.322266 0,-0.195312 0.13672,-0.332031 0.13672,-0.146485 0.32226,-0.146485 0.18555,0 0.32227,0.136719 z m 5.68359,5.664063 q 0.13672,0.136718 0.13672,0.332031 0,0.185547 -0.13672,0.322266 -0.12695,0.136718 -0.33203,0.136718 -0.19531,0 -0.33203,-0.136718 -0.13672,-0.136719 -0.13672,-0.322266 0,-0.195313 0.12695,-0.322266 0.13672,-0.136718 0.32227,-0.136718 0.19531,0 0.35156,0.126953 z m -6.69922,-4.462891 q 0.30274,0.126953 0.30274,0.449219 0,0.185547 -0.15625,0.322265 -0.14649,0.126954 -0.32227,0.126954 -0.20508,0 -0.33203,-0.146485 -0.12695,-0.146484 -0.12695,-0.322265 0,-0.195313 0.13672,-0.332032 0.14648,-0.136718 0.32226,-0.136718 0.0586,0 0.17578,0.03906 z m 7.41211,3.066406 q 0.29297,0.126953 0.29297,0.429688 0,0.195312 -0.14648,0.332031 -0.13672,0.126953 -0.32227,0.126953 -0.21484,0 -0.3418,-0.136719 -0.12695,-0.146484 -0.12695,-0.322265 0,-0.22461 0.14649,-0.341797 0.15625,-0.117188 0.33203,-0.117188 0.0976,0 0.16601,0.0293 z m -7.89062,-1.5625 q 0.18554,0 0.33203,0.136719 0.14648,0.126953 0.14648,0.3125 0,0.195313 -0.14648,0.341797 -0.14649,0.136719 -0.32227,0.136719 h -0.0195 q -0.18554,0 -0.32226,-0.136719 -0.12696,-0.146484 -0.12696,-0.332031 0,-0.195313 0.12696,-0.322266 0.13672,-0.136719 0.33203,-0.136719 z m 8.01758,-0.0098 q 0.19531,0 0.33203,0.136718 0.13672,0.136719 0.13672,0.332032 0,0.185547 -0.13672,0.322265 -0.12696,0.136719 -0.32227,0.136719 h -0.0391 q -0.17578,0 -0.3125,-0.136719 -0.12695,-0.136718 -0.12695,-0.3125 0,-0.195312 0.14648,-0.332031 0.14648,-0.136719 0.32227,-0.146484 z m -7.89063,1.582031 q 0.0781,-0.03906 0.18555,-0.03906 0.19531,0 0.33203,0.126954 0.13672,0.126953 0.13672,0.322265 0,0.185547 -0.13672,0.332031 -0.13672,0.146485 -0.33203,0.146485 -0.18555,0 -0.33203,-0.136719 -0.13672,-0.146484 -0.13672,-0.341797 0,-0.302734 0.2832,-0.410156 z m 7.41211,-3.076172 q 0.11719,-0.03906 0.17578,-0.03906 0.17578,0 0.32227,0.136718 0.14648,0.136719 0.14648,0.332032 0,0.175781 -0.13672,0.322265 -0.13672,0.146485 -0.34179,0.146485 -0.17579,0 -0.3125,-0.136719 -0.13672,-0.136719 -0.13672,-0.322266 0,-0.3125 0.2832,-0.439453 z m -6.68945,4.482422 q 0.14648,-0.146484 0.3125,-0.146484 0.20508,0 0.34179,0.136718 0.13672,0.126953 0.13672,0.322266 0,0.185547 -0.13672,0.332031 -0.12695,0.136719 -0.32226,0.136719 -0.18555,0 -0.33203,-0.136719 -0.13672,-0.146484 -0.13672,-0.332031 0,-0.175781 0.13672,-0.3125 z M 454.5,18.363281 q 0.15625,-0.136719 0.33203,-0.136719 0.19531,0 0.32227,0.136719 0.13672,0.136719 0.13672,0.332031 0,0.185547 -0.13672,0.332032 -0.12696,0.136718 -0.32227,0.136718 -0.18555,0 -0.32226,-0.146484 -0.13672,-0.146484 -0.13672,-0.322266 0,-0.185546 0.12695,-0.332031 z m -4.46289,6.699219 q 0.0586,-0.136719 0.18555,-0.214844 0.13671,-0.07813 0.2539,-0.07813 0.19531,0 0.32227,0.146485 0.13672,0.146484 0.13672,0.322265 0,0.195313 -0.14649,0.332031 -0.14648,0.126954 -0.32226,0.126954 -0.18555,0 -0.33203,-0.146485 -0.13672,-0.146484 -0.13672,-0.3125 0,-0.05859 0.0391,-0.175781 z m 3.06641,-7.412109 q 0.12695,-0.292969 0.42968,-0.292969 0.19532,0 0.33203,0.146484 0.13672,0.146485 0.13672,0.332031 0,0.195313 -0.14648,0.332032 -0.14649,0.126953 -0.32227,0.126953 -0.19531,0 -0.33203,-0.146485 -0.12695,-0.15625 -0.12695,-0.332031 0,-0.07813 0.0293,-0.166015 z m -1.5625,7.890625 q 0,-0.195313 0.13671,-0.332032 0.13672,-0.136718 0.32227,-0.136718 0.19531,0 0.33203,0.136718 0.13672,0.136719 0.13672,0.332032 0,0.185546 -0.13672,0.322265 Q 452.19531,26 452,26 q -0.18555,0 -0.32227,-0.136719 -0.13671,-0.136719 -0.13671,-0.322265 z m 0,-8.017579 q 0,-0.195312 0.13671,-0.332031 0.13672,-0.136719 0.32227,-0.136719 0.19531,0 0.33203,0.136719 0.13672,0.136719 0.13672,0.332031 0,0.185547 -0.13672,0.322266 -0.13672,0.136719 -0.33203,0.136719 -0.18555,0 -0.32227,-0.136719 -0.13671,-0.136719 -0.13671,-0.322266 z"
     style="font-size:20px;line-height:0%;font-family:'Gentium Plus Compact';text-align:center;text-anchor:middle;display:inline;fill:#111111"
     id="path602" /><path
     d="m 453.99219,13.460938 q 0,0.654296 -0.32227,1.171875 -0.32226,0.517578 -0.81055,0.820312 -0.49804,0.292969 -0.98632,0.292969 -0.6543,0 -1.08399,-0.439453 -0.42969,-0.449219 -0.42969,-1.064453 0,-0.673829 0.32227,-1.191407 0.32227,-0.517578 0.81055,-0.810547 0.48828,-0.302734 0.98633,-0.302734 0.63476,0 1.07421,0.458984 0.43946,0.449219 0.43946,1.064454 z m -0.87891,0.40039 q 0,-0.46875 -0.22461,-0.820312 -0.22461,-0.361328 -0.61523,-0.361328 -0.40039,0 -0.71289,0.322265 -0.32227,0.3125 -0.32227,0.839844 0,0.449219 0.22461,0.810547 0.22461,0.351562 0.61523,0.351562 0.39063,0 0.7129,-0.292968 0.32226,-0.292969 0.32226,-0.84961 z"
     style="font-size:20px;line-height:0%;font-family:'Gentium Plus Compact';text-align:center;text-anchor:middle;display:inline;fill:#111111"
     id="path604" /></g>

<g
   aria-label="◌̸"
   id="t3"
   style="font-size:20px;line-height:0%;font-family:'Gentium Plus Compact';text-align:center;text-anchor:middle;display:inline;fill:#111111"
   class="dead"><path
     d="m 468.88672,53.640625 q 0.0391,0.07813 0.0391,0.185547 0,0.185547 -0.12695,0.332031 -0.11719,0.136719 -0.3125,0.136719 -0.18555,0 -0.3418,-0.126953 -0.14648,-0.136719 -0.14648,-0.341797 0,-0.175781 0.13672,-0.322266 0.14648,-0.146484 0.34179,-0.146484 0.29297,0 0.41016,0.283203 z m 3.07617,7.412109 q 0.0391,0.117188 0.0391,0.175782 0,0.175781 -0.13672,0.322265 -0.13671,0.146485 -0.33203,0.146485 -0.17578,0 -0.32226,-0.136719 -0.14649,-0.136719 -0.14649,-0.341797 0,-0.166016 0.12696,-0.3125 0.12695,-0.146484 0.3125,-0.146484 0.3125,0 0.45898,0.292968 z m -4.48242,-6.689453 q 0.14648,0.126953 0.14648,0.322266 0,0.46875 -0.45898,0.46875 -0.19531,0 -0.33203,-0.126953 -0.13672,-0.136719 -0.13672,-0.322266 0,-0.195312 0.13672,-0.332031 0.13672,-0.146485 0.32226,-0.146485 0.18555,0 0.32227,0.136719 z m 5.68359,5.664063 q 0.13672,0.136718 0.13672,0.332031 0,0.185547 -0.13672,0.322266 -0.12695,0.136718 -0.33203,0.136718 -0.19531,0 -0.33203,-0.136718 -0.13672,-0.136719 -0.13672,-0.322266 0,-0.195313 0.12695,-0.322266 0.13672,-0.136718 0.32227,-0.136718 0.19531,0 0.35156,0.126953 z m -6.69922,-4.462891 q 0.30274,0.126953 0.30274,0.449219 0,0.185547 -0.15625,0.322265 -0.14649,0.126954 -0.32227,0.126954 -0.20508,0 -0.33203,-0.146485 -0.12695,-0.146484 -0.12695,-0.322265 0,-0.195313 0.13672,-0.332032 0.14648,-0.136718 0.32226,-0.136718 0.0586,0 0.17578,0.03906 z m 7.41211,3.066406 q 0.29297,0.126953 0.29297,0.429688 0,0.195312 -0.14648,0.332031 -0.13672,0.126953 -0.32227,0.126953 -0.21484,0 -0.3418,-0.136719 -0.12695,-0.146484 -0.12695,-0.322265 0,-0.22461 0.14649,-0.341797 0.15625,-0.117188 0.33203,-0.117188 0.0976,0 0.16601,0.0293 z m -7.89062,-1.5625 q 0.18554,0 0.33203,0.136719 0.14648,0.126953 0.14648,0.3125 0,0.195313 -0.14648,0.341797 -0.14649,0.136719 -0.32227,0.136719 h -0.0195 q -0.18554,0 -0.32226,-0.136719 -0.12696,-0.146484 -0.12696,-0.332031 0,-0.195313 0.12696,-0.322266 0.13672,-0.136719 0.33203,-0.136719 z m 8.01758,-0.0098 q 0.19531,0 0.33203,0.136718 0.13672,0.136719 0.13672,0.332032 0,0.185547 -0.13672,0.322265 -0.12696,0.136719 -0.32227,0.136719 h -0.0391 q -0.17578,0 -0.3125,-0.136719 -0.12695,-0.136718 -0.12695,-0.3125 0,-0.195312 0.14648,-0.332031 0.14648,-0.136719 0.32227,-0.146484 z m -7.89063,1.582031 q 0.0781,-0.03906 0.18555,-0.03906 0.19531,0 0.33203,0.126954 0.13672,0.126953 0.13672,0.322265 0,0.185547 -0.13672,0.332031 -0.13672,0.146485 -0.33203,0.146485 -0.18555,0 -0.33203,-0.136719 -0.13672,-0.146484 -0.13672,-0.341797 0,-0.302734 0.2832,-0.410156 z m 7.41211,-3.076172 q 0.11719,-0.03906 0.17578,-0.03906 0.17578,0 0.32227,0.136718 0.14648,0.136719 0.14648,0.332032 0,0.175781 -0.13672,0.322265 -0.13672,0.146485 -0.34179,0.146485 -0.17579,0 -0.3125,-0.136719 -0.13672,-0.136719 -0.13672,-0.322266 0,-0.3125 0.2832,-0.439453 z m -6.68945,4.482422 q 0.14648,-0.146484 0.3125,-0.146484 0.20508,0 0.34179,0.136718 0.13672,0.126953 0.13672,0.322266 0,0.185547 -0.13672,0.332031 -0.12695,0.136719 -0.32226,0.136719 -0.18555,0 -0.33203,-0.136719 -0.13672,-0.146484 -0.13672,-0.332031 0,-0.175781 0.13672,-0.3125 z M 472.5,54.363281 q 0.15625,-0.136719 0.33203,-0.136719 0.19531,0 0.32227,0.136719 0.13672,0.136719 0.13672,0.332031 0,0.185547 -0.13672,0.332032 -0.12696,0.136718 -0.32227,0.136718 -0.18555,0 -0.32226,-0.146484 -0.13672,-0.146484 -0.13672,-0.322266 0,-0.185546 0.12695,-0.332031 z m -4.46289,6.699219 q 0.0586,-0.136719 0.18555,-0.214844 0.13671,-0.07813 0.2539,-0.07813 0.19531,0 0.32227,0.146485 0.13672,0.146484 0.13672,0.322265 0,0.195313 -0.14649,0.332031 -0.14648,0.126954 -0.32226,0.126954 -0.18555,0 -0.33203,-0.146485 -0.13672,-0.146484 -0.13672,-0.3125 0,-0.05859 0.0391,-0.175781 z m 3.06641,-7.412109 q 0.12695,-0.292969 0.42968,-0.292969 0.19532,0 0.33203,0.146484 0.13672,0.146485 0.13672,0.332031 0,0.195313 -0.14648,0.332032 -0.14649,0.126953 -0.32227,0.126953 -0.19531,0 -0.33203,-0.146485 -0.12695,-0.15625 -0.12695,-0.332031 0,-0.07813 0.0293,-0.166015 z m -1.5625,7.890625 q 0,-0.195313 0.13671,-0.332032 0.13672,-0.136718 0.32227,-0.136718 0.19531,0 0.33203,0.136718 0.13672,0.136719 0.13672,0.332032 0,0.185546 -0.13672,0.322265 Q 470.19531,62 470,62 q -0.18555,0 -0.32227,-0.136719 -0.13671,-0.136719 -0.13671,-0.322265 z m 0,-8.017579 q 0,-0.195312 0.13671,-0.332031 0.13672,-0.136719 0.32227,-0.136719 0.19531,0 0.33203,0.136719 0.13672,0.136719 0.13672,0.332031 0,0.185547 -0.13672,0.322266 -0.13672,0.136719 -0.33203,0.136719 -0.18555,0 -0.32227,-0.136719 -0.13671,-0.136719 -0.13671,-0.322266 z"
     style="font-size:20px;line-height:0%;font-family:'Gentium Plus Compact';text-align:center;text-anchor:middle;display:inline;fill:#111111"
     id="path607" /><path
     d="m 474.46289,49.802734 -7.14844,14.677735 q -0.15625,0.166015 -0.49804,0.46875 -0.3418,0.3125 -0.56641,0.439453 L 465.9082,65.125 473.06641,50.4375 q 0.22461,-0.214844 0.50781,-0.488281 0.2832,-0.283203 0.52734,-0.400391 z"
     style="font-size:20px;line-height:0%;font-family:'Gentium Plus Compact';text-align:center;text-anchor:middle;display:inline;fill:#111111"
     id="path609" /></g>

</svg>
